G04*
G04 #@! TF.GenerationSoftware,Altium Limited,CircuitMaker,2.3.0 (2.3.0.3)*
G04*
G04 Layer_Color=20142*
%FSLAX43Y43*%
%MOMM*%
G71*
G04*
G04 #@! TF.SameCoordinates,73D6295F-4BFA-4EF8-802C-3659C78386D7*
G04*
G04*
G04 #@! TF.FilePolarity,Negative*
G04*
G01*
G75*
%ADD17C,2.203*%
%ADD18R,1.703X1.703*%
%ADD19C,1.703*%
%ADD20C,1.727*%
%ADD21C,2.210*%
%ADD22R,1.703X1.703*%
%ADD23R,2.203X2.203*%
%ADD24C,0.711*%
D17*
X398020Y46482D02*
D03*
X442720D02*
D03*
X344680D02*
D03*
X389380D02*
D03*
X291342D02*
D03*
X336042D02*
D03*
X186639Y46228D02*
D03*
X175209D02*
D03*
X163830D02*
D03*
X152400D02*
D03*
X140919D02*
D03*
X129489D02*
D03*
X118110D02*
D03*
X106629D02*
D03*
D18*
X239522Y50292D02*
D03*
X226568Y53848D02*
D03*
X212090Y37338D02*
D03*
X281900Y50800D02*
D03*
D19*
X239522Y47752D02*
D03*
Y45212D02*
D03*
Y42672D02*
D03*
X247142Y50292D02*
D03*
Y47752D02*
D03*
Y45212D02*
D03*
Y42672D02*
D03*
X226568Y51308D02*
D03*
Y48768D02*
D03*
Y46228D02*
D03*
Y43688D02*
D03*
Y41148D02*
D03*
Y38608D02*
D03*
X234188Y53848D02*
D03*
Y51308D02*
D03*
Y48768D02*
D03*
Y46228D02*
D03*
Y43688D02*
D03*
Y41148D02*
D03*
Y38608D02*
D03*
X212090Y39878D02*
D03*
Y42418D02*
D03*
Y44958D02*
D03*
Y47498D02*
D03*
Y50038D02*
D03*
Y52578D02*
D03*
Y55118D02*
D03*
X204470Y37338D02*
D03*
Y39878D02*
D03*
Y42418D02*
D03*
Y44958D02*
D03*
Y47498D02*
D03*
Y50038D02*
D03*
Y52578D02*
D03*
Y55118D02*
D03*
X276900Y50800D02*
D03*
X279400D02*
D03*
Y43164D02*
D03*
D20*
X220472Y37846D02*
D03*
X217932D02*
D03*
X220472Y54610D02*
D03*
X217932D02*
D03*
X254508Y38608D02*
D03*
X257048Y36068D02*
D03*
X259588Y38608D02*
D03*
X254508Y53848D02*
D03*
X257048Y51308D02*
D03*
X259588Y53848D02*
D03*
X266954Y52832D02*
D03*
X269494D02*
D03*
Y46482D02*
D03*
X266954D02*
D03*
X269494Y39878D02*
D03*
X266954D02*
D03*
D21*
X196850Y55880D02*
D03*
X186690D02*
D03*
X185420Y36576D02*
D03*
X175260D02*
D03*
X162560D02*
D03*
X152400D02*
D03*
X173990Y55880D02*
D03*
X163830D02*
D03*
X151130D02*
D03*
X140970D02*
D03*
X128270D02*
D03*
X118110D02*
D03*
X139700Y36576D02*
D03*
X129540D02*
D03*
X116840D02*
D03*
X106680D02*
D03*
D22*
X279400Y41164D02*
D03*
D23*
X189179Y46228D02*
D03*
X177749D02*
D03*
X166370D02*
D03*
X154940D02*
D03*
X143459D02*
D03*
X132029D02*
D03*
X120650D02*
D03*
X109169D02*
D03*
D24*
X204521Y35052D02*
D03*
M02*
