G04*
G04 #@! TF.GenerationSoftware,Altium Limited,CircuitMaker,2.3.0 (2.3.0.3)*
G04*
G04 Layer_Physical_Order=1*
G04 Layer_Color=25308*
%FSLAX43Y43*%
%MOMM*%
G71*
G04*
G04 #@! TF.SameCoordinates,73D6295F-4BFA-4EF8-802C-3659C78386D7*
G04*
G04*
G04 #@! TF.FilePolarity,Positive*
G04*
G01*
G75*
%ADD25C,0.305*%
%ADD26C,0.508*%
%ADD27C,2.000*%
%ADD28R,1.500X1.500*%
%ADD29C,1.500*%
%ADD30C,1.524*%
%ADD31C,2.134*%
%ADD32R,1.500X1.500*%
%ADD33R,2.000X2.000*%
%ADD34C,0.508*%
G36*
X449326Y29972D02*
X449326Y29972D01*
X101600D01*
Y62992D01*
X101600Y62992D01*
X449326D01*
Y29972D01*
D02*
G37*
%LPC*%
G36*
X212222Y56122D02*
X212217D01*
Y55245D01*
X213094D01*
Y55250D01*
X213026Y55506D01*
X212893Y55734D01*
X212706Y55921D01*
X212478Y56054D01*
X212222Y56122D01*
D02*
G37*
G36*
X211963D02*
X211958D01*
X211702Y56054D01*
X211474Y55921D01*
X211287Y55734D01*
X211154Y55506D01*
X211086Y55250D01*
Y55245D01*
X211963D01*
Y56122D01*
D02*
G37*
G36*
X218066Y55626D02*
X218059D01*
Y54737D01*
X218948D01*
Y54744D01*
X218879Y55002D01*
X218745Y55234D01*
X218556Y55423D01*
X218324Y55557D01*
X218066Y55626D01*
D02*
G37*
G36*
X217805D02*
X217798D01*
X217540Y55557D01*
X217308Y55423D01*
X217119Y55234D01*
X216985Y55002D01*
X216916Y54744D01*
Y54737D01*
X217805D01*
Y55626D01*
D02*
G37*
G36*
X151304Y57201D02*
X150956D01*
X150620Y57111D01*
X150319Y56937D01*
X150073Y56691D01*
X149899Y56390D01*
X149809Y56054D01*
Y55706D01*
X149899Y55370D01*
X150073Y55069D01*
X150319Y54823D01*
X150620Y54649D01*
X150956Y54559D01*
X151304D01*
X151640Y54649D01*
X151941Y54823D01*
X152187Y55069D01*
X152361Y55370D01*
X152451Y55706D01*
Y56054D01*
X152361Y56390D01*
X152187Y56691D01*
X151941Y56937D01*
X151640Y57111D01*
X151304Y57201D01*
D02*
G37*
G36*
X128444D02*
X128096D01*
X127760Y57111D01*
X127459Y56937D01*
X127213Y56691D01*
X127039Y56390D01*
X126949Y56054D01*
Y55706D01*
X127039Y55370D01*
X127213Y55069D01*
X127459Y54823D01*
X127760Y54649D01*
X128096Y54559D01*
X128444D01*
X128780Y54649D01*
X129081Y54823D01*
X129327Y55069D01*
X129501Y55370D01*
X129591Y55706D01*
Y56054D01*
X129501Y56390D01*
X129327Y56691D01*
X129081Y56937D01*
X128780Y57111D01*
X128444Y57201D01*
D02*
G37*
G36*
X213094Y54991D02*
X212217D01*
Y54114D01*
X212222D01*
X212478Y54182D01*
X212706Y54315D01*
X212893Y54502D01*
X213026Y54730D01*
X213094Y54986D01*
Y54991D01*
D02*
G37*
G36*
X211963D02*
X211086D01*
Y54986D01*
X211154Y54730D01*
X211287Y54502D01*
X211474Y54315D01*
X211702Y54182D01*
X211958Y54114D01*
X211963D01*
Y54991D01*
D02*
G37*
G36*
X204602Y56122D02*
X204338D01*
X204082Y56054D01*
X203854Y55921D01*
X203667Y55734D01*
X203534Y55506D01*
X203466Y55250D01*
Y54986D01*
X203534Y54730D01*
X203667Y54502D01*
X203854Y54315D01*
X204082Y54182D01*
X204338Y54114D01*
X204602D01*
X204858Y54182D01*
X205086Y54315D01*
X205273Y54502D01*
X205406Y54730D01*
X205474Y54986D01*
Y55250D01*
X205406Y55506D01*
X205273Y55734D01*
X205086Y55921D01*
X204858Y56054D01*
X204602Y56122D01*
D02*
G37*
G36*
X218948Y54483D02*
X218059D01*
Y53594D01*
X218066D01*
X218324Y53663D01*
X218556Y53797D01*
X218745Y53986D01*
X218879Y54218D01*
X218948Y54476D01*
Y54483D01*
D02*
G37*
G36*
X217805D02*
X216916D01*
Y54476D01*
X216985Y54218D01*
X217119Y53986D01*
X217308Y53797D01*
X217540Y53663D01*
X217798Y53594D01*
X217805D01*
Y54483D01*
D02*
G37*
G36*
X267088Y53848D02*
X267081D01*
Y52959D01*
X267970D01*
Y52966D01*
X267901Y53224D01*
X267767Y53456D01*
X267578Y53645D01*
X267346Y53779D01*
X267088Y53848D01*
D02*
G37*
G36*
X266827D02*
X266820D01*
X266562Y53779D01*
X266330Y53645D01*
X266141Y53456D01*
X266007Y53224D01*
X265938Y52966D01*
Y52959D01*
X266827D01*
Y53848D01*
D02*
G37*
G36*
X227572Y54852D02*
X225564D01*
Y52844D01*
X227572D01*
Y54852D01*
D02*
G37*
G36*
X254642Y54864D02*
X254374D01*
X254116Y54795D01*
X253884Y54661D01*
X253695Y54472D01*
X253561Y54240D01*
X253492Y53982D01*
Y53714D01*
X253561Y53456D01*
X253695Y53224D01*
X253884Y53035D01*
X254116Y52901D01*
X254374Y52832D01*
X254642D01*
X254900Y52901D01*
X255132Y53035D01*
X255321Y53224D01*
X255455Y53456D01*
X255524Y53714D01*
Y53982D01*
X255455Y54240D01*
X255321Y54472D01*
X255132Y54661D01*
X254900Y54795D01*
X254642Y54864D01*
D02*
G37*
G36*
X269628Y53848D02*
X269360D01*
X269102Y53779D01*
X268870Y53645D01*
X268681Y53456D01*
X268547Y53224D01*
X268478Y52966D01*
Y52698D01*
X268547Y52440D01*
X268681Y52208D01*
X268870Y52019D01*
X269102Y51885D01*
X269360Y51816D01*
X269628D01*
X269886Y51885D01*
X270118Y52019D01*
X270307Y52208D01*
X270441Y52440D01*
X270510Y52698D01*
Y52966D01*
X270441Y53224D01*
X270307Y53456D01*
X270118Y53645D01*
X269886Y53779D01*
X269628Y53848D01*
D02*
G37*
G36*
X267970Y52705D02*
X267081D01*
Y51816D01*
X267088D01*
X267346Y51885D01*
X267578Y52019D01*
X267767Y52208D01*
X267901Y52440D01*
X267970Y52698D01*
Y52705D01*
D02*
G37*
G36*
X266827D02*
X265938D01*
Y52698D01*
X266007Y52440D01*
X266141Y52208D01*
X266330Y52019D01*
X266562Y51885D01*
X266820Y51816D01*
X266827D01*
Y52705D01*
D02*
G37*
G36*
X212222Y53582D02*
X211958D01*
X211702Y53514D01*
X211474Y53381D01*
X211287Y53194D01*
X211154Y52966D01*
X211086Y52710D01*
Y52446D01*
X211154Y52190D01*
X211287Y51962D01*
X211474Y51775D01*
X211702Y51642D01*
X211958Y51574D01*
X212222D01*
X212478Y51642D01*
X212706Y51775D01*
X212893Y51962D01*
X213026Y52190D01*
X213094Y52446D01*
Y52710D01*
X213026Y52966D01*
X212893Y53194D01*
X212706Y53381D01*
X212478Y53514D01*
X212222Y53582D01*
D02*
G37*
G36*
X226700Y52312D02*
X226695D01*
Y51435D01*
X227572D01*
Y51440D01*
X227504Y51696D01*
X227371Y51924D01*
X227184Y52111D01*
X226956Y52244D01*
X226700Y52312D01*
D02*
G37*
G36*
X226441D02*
X226436D01*
X226180Y52244D01*
X225952Y52111D01*
X225765Y51924D01*
X225632Y51696D01*
X225564Y51440D01*
Y51435D01*
X226441D01*
Y52312D01*
D02*
G37*
G36*
X240526Y51296D02*
X239649D01*
Y50419D01*
X240526D01*
Y51296D01*
D02*
G37*
G36*
X239395D02*
X238518D01*
Y50419D01*
X239395D01*
Y51296D01*
D02*
G37*
G36*
X227572Y51181D02*
X226695D01*
Y50304D01*
X226700D01*
X226956Y50372D01*
X227184Y50505D01*
X227371Y50692D01*
X227504Y50920D01*
X227572Y51176D01*
Y51181D01*
D02*
G37*
G36*
X226441D02*
X225564D01*
Y51176D01*
X225632Y50920D01*
X225765Y50692D01*
X225952Y50505D01*
X226180Y50372D01*
X226436Y50304D01*
X226441D01*
Y51181D01*
D02*
G37*
G36*
X257182Y52324D02*
X256914D01*
X256656Y52255D01*
X256424Y52121D01*
X256235Y51932D01*
X256101Y51700D01*
X256032Y51442D01*
Y51174D01*
X256101Y50916D01*
X256235Y50684D01*
X256424Y50495D01*
X256656Y50361D01*
X256914Y50292D01*
X257182D01*
X257440Y50361D01*
X257672Y50495D01*
X257861Y50684D01*
X257995Y50916D01*
X258064Y51174D01*
Y51442D01*
X257995Y51700D01*
X257861Y51932D01*
X257672Y52121D01*
X257440Y52255D01*
X257182Y52324D01*
D02*
G37*
G36*
X282904Y51804D02*
X280896D01*
Y49796D01*
X282904D01*
Y51804D01*
D02*
G37*
G36*
X277032D02*
X276768D01*
X276512Y51736D01*
X276284Y51603D01*
X276097Y51416D01*
X275964Y51188D01*
X275896Y50932D01*
Y50668D01*
X275964Y50412D01*
X276097Y50184D01*
X276284Y49997D01*
X276512Y49864D01*
X276768Y49796D01*
X277032D01*
X277288Y49864D01*
X277516Y49997D01*
X277703Y50184D01*
X277836Y50412D01*
X277904Y50668D01*
Y50932D01*
X277836Y51188D01*
X277703Y51416D01*
X277516Y51603D01*
X277288Y51736D01*
X277032Y51804D01*
D02*
G37*
G36*
X247274Y51296D02*
X247010D01*
X246754Y51228D01*
X246526Y51095D01*
X246339Y50908D01*
X246206Y50680D01*
X246138Y50424D01*
Y50160D01*
X246206Y49904D01*
X246339Y49676D01*
X246526Y49489D01*
X246754Y49356D01*
X247010Y49288D01*
X247274D01*
X247530Y49356D01*
X247758Y49489D01*
X247945Y49676D01*
X248078Y49904D01*
X248146Y50160D01*
Y50424D01*
X248078Y50680D01*
X247945Y50908D01*
X247758Y51095D01*
X247530Y51228D01*
X247274Y51296D01*
D02*
G37*
G36*
X240526Y50165D02*
X239649D01*
Y49288D01*
X240526D01*
Y50165D01*
D02*
G37*
G36*
X239395D02*
X238518D01*
Y49288D01*
X239395D01*
Y50165D01*
D02*
G37*
G36*
X212222Y51042D02*
X211958D01*
X211702Y50974D01*
X211474Y50841D01*
X211287Y50654D01*
X211154Y50426D01*
X211086Y50170D01*
Y49906D01*
X211154Y49650D01*
X211287Y49422D01*
X211474Y49235D01*
X211702Y49102D01*
X211958Y49034D01*
X212222D01*
X212478Y49102D01*
X212706Y49235D01*
X212893Y49422D01*
X213026Y49650D01*
X213094Y49906D01*
Y50170D01*
X213026Y50426D01*
X212893Y50654D01*
X212706Y50841D01*
X212478Y50974D01*
X212222Y51042D01*
D02*
G37*
G36*
X204602D02*
X204338D01*
X204082Y50974D01*
X203854Y50841D01*
X203667Y50654D01*
X203534Y50426D01*
X203466Y50170D01*
Y49906D01*
X203534Y49650D01*
X203667Y49422D01*
X203854Y49235D01*
X204082Y49102D01*
X204338Y49034D01*
X204602D01*
X204858Y49102D01*
X205086Y49235D01*
X205273Y49422D01*
X205406Y49650D01*
X205474Y49906D01*
Y50170D01*
X205406Y50426D01*
X205273Y50654D01*
X205086Y50841D01*
X204858Y50974D01*
X204602Y51042D01*
D02*
G37*
G36*
X234320Y49772D02*
X234315D01*
Y48895D01*
X235192D01*
Y48900D01*
X235124Y49156D01*
X234991Y49384D01*
X234804Y49571D01*
X234576Y49704D01*
X234320Y49772D01*
D02*
G37*
G36*
X234061D02*
X234056D01*
X233800Y49704D01*
X233572Y49571D01*
X233385Y49384D01*
X233252Y49156D01*
X233184Y48900D01*
Y48895D01*
X234061D01*
Y49772D01*
D02*
G37*
G36*
X235192Y48641D02*
X234315D01*
Y47764D01*
X234320D01*
X234576Y47832D01*
X234804Y47965D01*
X234991Y48152D01*
X235124Y48380D01*
X235192Y48636D01*
Y48641D01*
D02*
G37*
G36*
X234061D02*
X233184D01*
Y48636D01*
X233252Y48380D01*
X233385Y48152D01*
X233572Y47965D01*
X233800Y47832D01*
X234056Y47764D01*
X234061D01*
Y48641D01*
D02*
G37*
G36*
X226700Y49772D02*
X226436D01*
X226180Y49704D01*
X225952Y49571D01*
X225765Y49384D01*
X225632Y49156D01*
X225564Y48900D01*
Y48636D01*
X225632Y48380D01*
X225765Y48152D01*
X225952Y47965D01*
X226180Y47832D01*
X226436Y47764D01*
X226700D01*
X226956Y47832D01*
X227184Y47965D01*
X227371Y48152D01*
X227504Y48380D01*
X227572Y48636D01*
Y48900D01*
X227504Y49156D01*
X227371Y49384D01*
X227184Y49571D01*
X226956Y49704D01*
X226700Y49772D01*
D02*
G37*
G36*
X212222Y48502D02*
X212217D01*
Y47625D01*
X213094D01*
Y47630D01*
X213026Y47886D01*
X212893Y48114D01*
X212706Y48301D01*
X212478Y48434D01*
X212222Y48502D01*
D02*
G37*
G36*
X211963D02*
X211958D01*
X211702Y48434D01*
X211474Y48301D01*
X211287Y48114D01*
X211154Y47886D01*
X211086Y47630D01*
Y47625D01*
X211963D01*
Y48502D01*
D02*
G37*
G36*
X179003Y47482D02*
X176495D01*
Y46816D01*
X176474Y46800D01*
X176308Y46834D01*
X176213Y46998D01*
X175979Y47231D01*
X175693Y47397D01*
X175374Y47482D01*
X175044D01*
X174725Y47397D01*
X174439Y47231D01*
X174206Y46998D01*
X174041Y46712D01*
X173955Y46393D01*
Y46063D01*
X174041Y45744D01*
X174206Y45458D01*
X174439Y45225D01*
X174725Y45059D01*
X174795Y45041D01*
Y37819D01*
X174750Y37807D01*
X174449Y37633D01*
X174203Y37387D01*
X174029Y37086D01*
X173939Y36750D01*
Y36402D01*
X174029Y36066D01*
X174203Y35765D01*
X174449Y35519D01*
X174750Y35345D01*
X175086Y35255D01*
X175434D01*
X175770Y35345D01*
X176071Y35519D01*
X176317Y35765D01*
X176491Y36066D01*
X176581Y36402D01*
Y36750D01*
X176491Y37086D01*
X176317Y37387D01*
X176071Y37633D01*
X175770Y37807D01*
X175624Y37846D01*
Y45041D01*
X175693Y45059D01*
X175979Y45225D01*
X176213Y45458D01*
X176308Y45622D01*
X176474Y45656D01*
X176495Y45640D01*
Y44974D01*
X179003D01*
Y47482D01*
D02*
G37*
G36*
X156194D02*
X153686D01*
Y46816D01*
X153664Y46800D01*
X153498Y46834D01*
X153403Y46998D01*
X153170Y47231D01*
X152884Y47397D01*
X152565Y47482D01*
X152235D01*
X151916Y47397D01*
X151630Y47231D01*
X151397Y46998D01*
X151231Y46712D01*
X151146Y46393D01*
Y46063D01*
X151231Y45744D01*
X151397Y45458D01*
X151630Y45225D01*
X151916Y45059D01*
X151986Y45041D01*
Y37832D01*
X151890Y37807D01*
X151589Y37633D01*
X151343Y37387D01*
X151169Y37086D01*
X151079Y36750D01*
Y36402D01*
X151169Y36066D01*
X151343Y35765D01*
X151589Y35519D01*
X151890Y35345D01*
X152226Y35255D01*
X152574D01*
X152910Y35345D01*
X153211Y35519D01*
X153457Y35765D01*
X153631Y36066D01*
X153721Y36402D01*
Y36750D01*
X153631Y37086D01*
X153457Y37387D01*
X153211Y37633D01*
X152910Y37807D01*
X152814Y37832D01*
Y45041D01*
X152884Y45059D01*
X153170Y45225D01*
X153403Y45458D01*
X153498Y45622D01*
X153664Y45656D01*
X153686Y45640D01*
Y44974D01*
X156194D01*
Y47482D01*
D02*
G37*
G36*
X133283D02*
X130775D01*
Y46816D01*
X130754Y46800D01*
X130588Y46834D01*
X130493Y46998D01*
X130259Y47231D01*
X129973Y47397D01*
X129654Y47482D01*
X129324D01*
X129005Y47397D01*
X128719Y47231D01*
X128486Y46998D01*
X128321Y46712D01*
X128235Y46393D01*
Y46063D01*
X128321Y45744D01*
X128486Y45458D01*
X128719Y45225D01*
X129005Y45059D01*
X129075Y45041D01*
Y37819D01*
X129030Y37807D01*
X128729Y37633D01*
X128483Y37387D01*
X128309Y37086D01*
X128219Y36750D01*
Y36402D01*
X128309Y36066D01*
X128483Y35765D01*
X128729Y35519D01*
X129030Y35345D01*
X129366Y35255D01*
X129714D01*
X130050Y35345D01*
X130351Y35519D01*
X130597Y35765D01*
X130771Y36066D01*
X130861Y36402D01*
Y36750D01*
X130771Y37086D01*
X130597Y37387D01*
X130351Y37633D01*
X130050Y37807D01*
X129904Y37846D01*
Y45041D01*
X129973Y45059D01*
X130259Y45225D01*
X130493Y45458D01*
X130588Y45622D01*
X130754Y45656D01*
X130775Y45640D01*
Y44974D01*
X133283D01*
Y47482D01*
D02*
G37*
G36*
X110423D02*
X107915D01*
Y46816D01*
X107894Y46800D01*
X107728Y46834D01*
X107633Y46998D01*
X107399Y47231D01*
X107113Y47397D01*
X106794Y47482D01*
X106464D01*
X106145Y47397D01*
X105859Y47231D01*
X105626Y46998D01*
X105461Y46712D01*
X105375Y46393D01*
Y46063D01*
X105461Y45744D01*
X105626Y45458D01*
X105859Y45225D01*
X106145Y45059D01*
X106215Y45041D01*
Y37819D01*
X106170Y37807D01*
X105869Y37633D01*
X105623Y37387D01*
X105449Y37086D01*
X105359Y36750D01*
Y36402D01*
X105449Y36066D01*
X105623Y35765D01*
X105869Y35519D01*
X106170Y35345D01*
X106506Y35255D01*
X106854D01*
X107190Y35345D01*
X107491Y35519D01*
X107737Y35765D01*
X107911Y36066D01*
X108001Y36402D01*
Y36750D01*
X107911Y37086D01*
X107737Y37387D01*
X107491Y37633D01*
X107190Y37807D01*
X107044Y37846D01*
Y45041D01*
X107113Y45059D01*
X107399Y45225D01*
X107633Y45458D01*
X107728Y45622D01*
X107894Y45656D01*
X107915Y45640D01*
Y44974D01*
X110423D01*
Y47482D01*
D02*
G37*
G36*
X259722Y54864D02*
X259454D01*
X259196Y54795D01*
X258964Y54661D01*
X258775Y54472D01*
X258641Y54240D01*
X258572Y53982D01*
Y53714D01*
X258641Y53456D01*
X258775Y53224D01*
X258964Y53035D01*
X259174Y52914D01*
Y46400D01*
X256755Y43981D01*
X256665Y43847D01*
X256634Y43688D01*
Y37002D01*
X256424Y36881D01*
X256235Y36692D01*
X256114Y36482D01*
X251632D01*
X245524Y42590D01*
Y45548D01*
X246784Y46808D01*
X247010Y46748D01*
X247274D01*
X247530Y46816D01*
X247758Y46949D01*
X247945Y47136D01*
X248078Y47364D01*
X248146Y47620D01*
Y47884D01*
X248078Y48140D01*
X247945Y48368D01*
X247758Y48555D01*
X247530Y48688D01*
X247274Y48756D01*
X247010D01*
X246754Y48688D01*
X246526Y48555D01*
X246339Y48368D01*
X246206Y48140D01*
X246138Y47884D01*
Y47620D01*
X246198Y47394D01*
X244817Y46013D01*
X244727Y45879D01*
X244696Y45720D01*
Y42418D01*
X244727Y42259D01*
X244817Y42125D01*
X251167Y35775D01*
X251301Y35685D01*
X251460Y35654D01*
X256114D01*
X256235Y35444D01*
X256424Y35255D01*
X256656Y35121D01*
X256914Y35052D01*
X257182D01*
X257440Y35121D01*
X257672Y35255D01*
X257861Y35444D01*
X257995Y35676D01*
X258064Y35934D01*
Y36202D01*
X257995Y36460D01*
X257861Y36692D01*
X257672Y36881D01*
X257462Y37002D01*
Y43516D01*
X259881Y45935D01*
X259971Y46069D01*
X260002Y46228D01*
X260002Y46228D01*
Y52914D01*
X260212Y53035D01*
X260401Y53224D01*
X260535Y53456D01*
X260604Y53714D01*
Y53982D01*
X260535Y54240D01*
X260401Y54472D01*
X260212Y54661D01*
X259980Y54795D01*
X259722Y54864D01*
D02*
G37*
G36*
X239654Y48756D02*
X239390D01*
X239134Y48688D01*
X238906Y48555D01*
X238719Y48368D01*
X238586Y48140D01*
X238518Y47884D01*
Y47620D01*
X238586Y47364D01*
X238719Y47136D01*
X238906Y46949D01*
X239134Y46816D01*
X239390Y46748D01*
X239654D01*
X239910Y46816D01*
X240138Y46949D01*
X240325Y47136D01*
X240458Y47364D01*
X240526Y47620D01*
Y47884D01*
X240458Y48140D01*
X240325Y48368D01*
X240138Y48555D01*
X239910Y48688D01*
X239654Y48756D01*
D02*
G37*
G36*
X442885Y47736D02*
X442847D01*
Y46609D01*
X443974D01*
Y46647D01*
X443889Y46966D01*
X443723Y47252D01*
X443490Y47485D01*
X443204Y47651D01*
X442885Y47736D01*
D02*
G37*
G36*
X269628Y47498D02*
X269621D01*
Y46609D01*
X270510D01*
Y46616D01*
X270441Y46874D01*
X270307Y47106D01*
X270118Y47295D01*
X269886Y47429D01*
X269628Y47498D01*
D02*
G37*
G36*
X269367D02*
X269360D01*
X269102Y47429D01*
X268870Y47295D01*
X268681Y47106D01*
X268547Y46874D01*
X268478Y46616D01*
Y46609D01*
X269367D01*
Y47498D01*
D02*
G37*
G36*
X442593Y47736D02*
X442555D01*
X442236Y47651D01*
X441950Y47485D01*
X441717Y47252D01*
X441551Y46966D01*
X441466Y46647D01*
Y46609D01*
X442593D01*
Y47736D01*
D02*
G37*
G36*
X213094Y47371D02*
X212217D01*
Y46494D01*
X212222D01*
X212478Y46562D01*
X212706Y46695D01*
X212893Y46882D01*
X213026Y47110D01*
X213094Y47366D01*
Y47371D01*
D02*
G37*
G36*
X211963D02*
X211086D01*
Y47366D01*
X211154Y47110D01*
X211287Y46882D01*
X211474Y46695D01*
X211702Y46562D01*
X211958Y46494D01*
X211963D01*
Y47371D01*
D02*
G37*
G36*
X204602Y48502D02*
X204338D01*
X204082Y48434D01*
X203854Y48301D01*
X203667Y48114D01*
X203534Y47886D01*
X203466Y47630D01*
Y47366D01*
X203534Y47110D01*
X203667Y46882D01*
X203854Y46695D01*
X204082Y46562D01*
X204338Y46494D01*
X204602D01*
X204858Y46562D01*
X205086Y46695D01*
X205273Y46882D01*
X205406Y47110D01*
X205474Y47366D01*
Y47630D01*
X205406Y47886D01*
X205273Y48114D01*
X205086Y48301D01*
X204858Y48434D01*
X204602Y48502D01*
D02*
G37*
G36*
X270510Y46355D02*
X269621D01*
Y45466D01*
X269628D01*
X269886Y45535D01*
X270118Y45669D01*
X270307Y45858D01*
X270441Y46090D01*
X270510Y46348D01*
Y46355D01*
D02*
G37*
G36*
X269367D02*
X268478D01*
Y46348D01*
X268547Y46090D01*
X268681Y45858D01*
X268870Y45669D01*
X269102Y45535D01*
X269360Y45466D01*
X269367D01*
Y46355D01*
D02*
G37*
G36*
X443974D02*
X442847D01*
Y45228D01*
X442885D01*
X443204Y45313D01*
X443490Y45479D01*
X443723Y45712D01*
X443889Y45998D01*
X443974Y46317D01*
Y46355D01*
D02*
G37*
G36*
X442593D02*
X441466D01*
Y46317D01*
X441551Y45998D01*
X441717Y45712D01*
X441950Y45479D01*
X442236Y45313D01*
X442555Y45228D01*
X442593D01*
Y46355D01*
D02*
G37*
G36*
X398185Y47736D02*
X397855D01*
X397536Y47651D01*
X397250Y47485D01*
X397017Y47252D01*
X396851Y46966D01*
X396766Y46647D01*
Y46317D01*
X396851Y45998D01*
X397017Y45712D01*
X397250Y45479D01*
X397536Y45313D01*
X397855Y45228D01*
X398185D01*
X398504Y45313D01*
X398790Y45479D01*
X399023Y45712D01*
X399189Y45998D01*
X399274Y46317D01*
Y46647D01*
X399189Y46966D01*
X399023Y47252D01*
X398790Y47485D01*
X398504Y47651D01*
X398185Y47736D01*
D02*
G37*
G36*
X389545D02*
X389215D01*
X388896Y47651D01*
X388610Y47485D01*
X388377Y47252D01*
X388211Y46966D01*
X388126Y46647D01*
Y46317D01*
X388211Y45998D01*
X388377Y45712D01*
X388610Y45479D01*
X388896Y45313D01*
X389215Y45228D01*
X389545D01*
X389864Y45313D01*
X390150Y45479D01*
X390383Y45712D01*
X390549Y45998D01*
X390634Y46317D01*
Y46647D01*
X390549Y46966D01*
X390383Y47252D01*
X390150Y47485D01*
X389864Y47651D01*
X389545Y47736D01*
D02*
G37*
G36*
X344845D02*
X344515D01*
X344196Y47651D01*
X343910Y47485D01*
X343677Y47252D01*
X343511Y46966D01*
X343426Y46647D01*
Y46317D01*
X343511Y45998D01*
X343677Y45712D01*
X343910Y45479D01*
X344196Y45313D01*
X344515Y45228D01*
X344845D01*
X345164Y45313D01*
X345450Y45479D01*
X345683Y45712D01*
X345849Y45998D01*
X345934Y46317D01*
Y46647D01*
X345849Y46966D01*
X345683Y47252D01*
X345450Y47485D01*
X345164Y47651D01*
X344845Y47736D01*
D02*
G37*
G36*
X336207D02*
X335877D01*
X335558Y47651D01*
X335272Y47485D01*
X335039Y47252D01*
X334873Y46966D01*
X334788Y46647D01*
Y46317D01*
X334873Y45998D01*
X335039Y45712D01*
X335272Y45479D01*
X335558Y45313D01*
X335877Y45228D01*
X336207D01*
X336526Y45313D01*
X336812Y45479D01*
X337045Y45712D01*
X337211Y45998D01*
X337296Y46317D01*
Y46647D01*
X337211Y46966D01*
X337045Y47252D01*
X336812Y47485D01*
X336526Y47651D01*
X336207Y47736D01*
D02*
G37*
G36*
X291507D02*
X291177D01*
X290858Y47651D01*
X290572Y47485D01*
X290339Y47252D01*
X290173Y46966D01*
X290088Y46647D01*
Y46317D01*
X290173Y45998D01*
X290339Y45712D01*
X290572Y45479D01*
X290858Y45313D01*
X291177Y45228D01*
X291507D01*
X291826Y45313D01*
X292112Y45479D01*
X292345Y45712D01*
X292511Y45998D01*
X292596Y46317D01*
Y46647D01*
X292511Y46966D01*
X292345Y47252D01*
X292112Y47485D01*
X291826Y47651D01*
X291507Y47736D01*
D02*
G37*
G36*
X234320Y47232D02*
X234056D01*
X233800Y47164D01*
X233572Y47031D01*
X233385Y46844D01*
X233252Y46616D01*
X233184Y46360D01*
Y46096D01*
X233252Y45840D01*
X233385Y45612D01*
X233572Y45425D01*
X233800Y45292D01*
X234056Y45224D01*
X234320D01*
X234576Y45292D01*
X234804Y45425D01*
X234991Y45612D01*
X235124Y45840D01*
X235192Y46096D01*
Y46360D01*
X235124Y46616D01*
X234991Y46844D01*
X234804Y47031D01*
X234576Y47164D01*
X234320Y47232D01*
D02*
G37*
G36*
X226700D02*
X226436D01*
X226180Y47164D01*
X225952Y47031D01*
X225765Y46844D01*
X225632Y46616D01*
X225564Y46360D01*
Y46096D01*
X225632Y45840D01*
X225765Y45612D01*
X225952Y45425D01*
X226180Y45292D01*
X226436Y45224D01*
X226700D01*
X226956Y45292D01*
X227184Y45425D01*
X227371Y45612D01*
X227504Y45840D01*
X227572Y46096D01*
Y46360D01*
X227504Y46616D01*
X227371Y46844D01*
X227184Y47031D01*
X226956Y47164D01*
X226700Y47232D01*
D02*
G37*
G36*
X212222Y45962D02*
X212217D01*
Y45085D01*
X213094D01*
Y45090D01*
X213026Y45346D01*
X212893Y45574D01*
X212706Y45761D01*
X212478Y45894D01*
X212222Y45962D01*
D02*
G37*
G36*
X211963D02*
X211958D01*
X211702Y45894D01*
X211474Y45761D01*
X211287Y45574D01*
X211154Y45346D01*
X211086Y45090D01*
Y45085D01*
X211963D01*
Y45962D01*
D02*
G37*
G36*
X186864Y57201D02*
X186516D01*
X186180Y57111D01*
X185879Y56937D01*
X185633Y56691D01*
X185459Y56390D01*
X185369Y56054D01*
Y55706D01*
X185459Y55370D01*
X185633Y55069D01*
X185879Y54823D01*
X186180Y54649D01*
X186276Y54624D01*
Y47429D01*
X186155Y47397D01*
X185869Y47231D01*
X185636Y46998D01*
X185471Y46712D01*
X185385Y46393D01*
Y46063D01*
X185471Y45744D01*
X185636Y45458D01*
X185869Y45225D01*
X186155Y45059D01*
X186474Y44974D01*
X186804D01*
X187123Y45059D01*
X187409Y45225D01*
X187643Y45458D01*
X187738Y45622D01*
X187904Y45656D01*
X187925Y45640D01*
Y44974D01*
X190433D01*
Y47482D01*
X187925D01*
Y46816D01*
X187904Y46800D01*
X187738Y46834D01*
X187643Y46998D01*
X187409Y47231D01*
X187123Y47397D01*
X187104Y47402D01*
Y54624D01*
X187200Y54649D01*
X187501Y54823D01*
X187747Y55069D01*
X187921Y55370D01*
X188011Y55706D01*
Y56054D01*
X187921Y56390D01*
X187747Y56691D01*
X187501Y56937D01*
X187200Y57111D01*
X186864Y57201D01*
D02*
G37*
G36*
X164004D02*
X163656D01*
X163320Y57111D01*
X163019Y56937D01*
X162773Y56691D01*
X162599Y56390D01*
X162509Y56054D01*
Y55706D01*
X162599Y55370D01*
X162773Y55069D01*
X163019Y54823D01*
X163320Y54649D01*
X163416Y54624D01*
Y47415D01*
X163346Y47397D01*
X163060Y47231D01*
X162827Y46998D01*
X162661Y46712D01*
X162576Y46393D01*
Y46063D01*
X162661Y45744D01*
X162827Y45458D01*
X163060Y45225D01*
X163346Y45059D01*
X163665Y44974D01*
X163995D01*
X164314Y45059D01*
X164600Y45225D01*
X164833Y45458D01*
X164928Y45622D01*
X165094Y45656D01*
X165116Y45640D01*
Y44974D01*
X167624D01*
Y47482D01*
X165116D01*
Y46816D01*
X165094Y46800D01*
X164928Y46834D01*
X164833Y46998D01*
X164600Y47231D01*
X164314Y47397D01*
X164244Y47415D01*
Y54624D01*
X164340Y54649D01*
X164641Y54823D01*
X164887Y55069D01*
X165061Y55370D01*
X165151Y55706D01*
Y56054D01*
X165061Y56390D01*
X164887Y56691D01*
X164641Y56937D01*
X164340Y57111D01*
X164004Y57201D01*
D02*
G37*
G36*
X141144D02*
X140796D01*
X140460Y57111D01*
X140159Y56937D01*
X139913Y56691D01*
X139739Y56390D01*
X139649Y56054D01*
Y55706D01*
X139739Y55370D01*
X139913Y55069D01*
X140159Y54823D01*
X140460Y54649D01*
X140556Y54624D01*
Y47429D01*
X140435Y47397D01*
X140149Y47231D01*
X139916Y46998D01*
X139751Y46712D01*
X139665Y46393D01*
Y46063D01*
X139751Y45744D01*
X139916Y45458D01*
X140149Y45225D01*
X140435Y45059D01*
X140754Y44974D01*
X141084D01*
X141403Y45059D01*
X141689Y45225D01*
X141923Y45458D01*
X142018Y45622D01*
X142184Y45656D01*
X142205Y45640D01*
Y44974D01*
X144713D01*
Y47482D01*
X142205D01*
Y46816D01*
X142184Y46800D01*
X142018Y46834D01*
X141923Y46998D01*
X141689Y47231D01*
X141403Y47397D01*
X141384Y47402D01*
Y54624D01*
X141480Y54649D01*
X141781Y54823D01*
X142027Y55069D01*
X142201Y55370D01*
X142291Y55706D01*
Y56054D01*
X142201Y56390D01*
X142027Y56691D01*
X141781Y56937D01*
X141480Y57111D01*
X141144Y57201D01*
D02*
G37*
G36*
X118284D02*
X117936D01*
X117600Y57111D01*
X117299Y56937D01*
X117053Y56691D01*
X116879Y56390D01*
X116789Y56054D01*
Y55706D01*
X116879Y55370D01*
X117053Y55069D01*
X117299Y54823D01*
X117600Y54649D01*
X117696Y54624D01*
Y47415D01*
X117626Y47397D01*
X117340Y47231D01*
X117107Y46998D01*
X116941Y46712D01*
X116856Y46393D01*
Y46063D01*
X116941Y45744D01*
X117107Y45458D01*
X117340Y45225D01*
X117626Y45059D01*
X117945Y44974D01*
X118275D01*
X118594Y45059D01*
X118880Y45225D01*
X119113Y45458D01*
X119208Y45622D01*
X119374Y45656D01*
X119396Y45640D01*
Y44974D01*
X121904D01*
Y47482D01*
X119396D01*
Y46816D01*
X119374Y46800D01*
X119208Y46834D01*
X119113Y46998D01*
X118880Y47231D01*
X118594Y47397D01*
X118524Y47415D01*
Y54624D01*
X118620Y54649D01*
X118921Y54823D01*
X119167Y55069D01*
X119341Y55370D01*
X119431Y55706D01*
Y56054D01*
X119341Y56390D01*
X119167Y56691D01*
X118921Y56937D01*
X118620Y57111D01*
X118284Y57201D01*
D02*
G37*
G36*
X247274Y46216D02*
X247010D01*
X246754Y46148D01*
X246526Y46015D01*
X246339Y45828D01*
X246206Y45600D01*
X246138Y45344D01*
Y45080D01*
X246206Y44824D01*
X246339Y44596D01*
X246526Y44409D01*
X246754Y44276D01*
X247010Y44208D01*
X247274D01*
X247530Y44276D01*
X247758Y44409D01*
X247945Y44596D01*
X248078Y44824D01*
X248146Y45080D01*
Y45344D01*
X248078Y45600D01*
X247945Y45828D01*
X247758Y46015D01*
X247530Y46148D01*
X247274Y46216D01*
D02*
G37*
G36*
X239654D02*
X239390D01*
X239134Y46148D01*
X238906Y46015D01*
X238719Y45828D01*
X238586Y45600D01*
X238518Y45344D01*
Y45080D01*
X238586Y44824D01*
X238719Y44596D01*
X238906Y44409D01*
X239134Y44276D01*
X239390Y44208D01*
X239654D01*
X239910Y44276D01*
X240138Y44409D01*
X240325Y44596D01*
X240458Y44824D01*
X240526Y45080D01*
Y45344D01*
X240458Y45600D01*
X240325Y45828D01*
X240138Y46015D01*
X239910Y46148D01*
X239654Y46216D01*
D02*
G37*
G36*
X213094Y44831D02*
X212217D01*
Y43954D01*
X212222D01*
X212478Y44022D01*
X212706Y44155D01*
X212893Y44342D01*
X213026Y44570D01*
X213094Y44826D01*
Y44831D01*
D02*
G37*
G36*
X211963D02*
X211086D01*
Y44826D01*
X211154Y44570D01*
X211287Y44342D01*
X211474Y44155D01*
X211702Y44022D01*
X211958Y43954D01*
X211963D01*
Y44831D01*
D02*
G37*
G36*
X198984Y58326D02*
X176022D01*
X175863Y58295D01*
X175729Y58205D01*
X174585Y57061D01*
X174500Y57111D01*
X174164Y57201D01*
X173816D01*
X173480Y57111D01*
X173179Y56937D01*
X172933Y56691D01*
X172759Y56390D01*
X172669Y56054D01*
Y55706D01*
X172759Y55370D01*
X172933Y55069D01*
X173179Y54823D01*
X173480Y54649D01*
X173816Y54559D01*
X174164D01*
X174500Y54649D01*
X174801Y54823D01*
X175047Y55069D01*
X175221Y55370D01*
X175311Y55706D01*
Y56054D01*
X175221Y56390D01*
X175171Y56475D01*
X176194Y57498D01*
X198812D01*
X200601Y55708D01*
Y48412D01*
X200633Y48254D01*
X200723Y48119D01*
X203526Y45316D01*
X203466Y45090D01*
Y44826D01*
X203534Y44570D01*
X203667Y44342D01*
X203854Y44155D01*
X204082Y44022D01*
X204338Y43954D01*
X204602D01*
X204858Y44022D01*
X205086Y44155D01*
X205273Y44342D01*
X205406Y44570D01*
X205474Y44826D01*
Y45090D01*
X205406Y45346D01*
X205273Y45574D01*
X205086Y45761D01*
X204858Y45894D01*
X204602Y45962D01*
X204338D01*
X204112Y45902D01*
X201430Y48584D01*
Y55880D01*
X201398Y56039D01*
X201309Y56173D01*
X199277Y58205D01*
X199142Y58295D01*
X198984Y58326D01*
D02*
G37*
G36*
X234320Y44692D02*
X234056D01*
X233800Y44624D01*
X233572Y44491D01*
X233385Y44304D01*
X233252Y44076D01*
X233184Y43820D01*
Y43556D01*
X233252Y43300D01*
X233385Y43072D01*
X233572Y42885D01*
X233800Y42752D01*
X234056Y42684D01*
X234320D01*
X234576Y42752D01*
X234804Y42885D01*
X234991Y43072D01*
X235124Y43300D01*
X235192Y43556D01*
Y43820D01*
X235124Y44076D01*
X234991Y44304D01*
X234804Y44491D01*
X234576Y44624D01*
X234320Y44692D01*
D02*
G37*
G36*
X226700D02*
X226436D01*
X226180Y44624D01*
X225952Y44491D01*
X225765Y44304D01*
X225632Y44076D01*
X225564Y43820D01*
Y43556D01*
X225632Y43300D01*
X225765Y43072D01*
X225952Y42885D01*
X226180Y42752D01*
X226436Y42684D01*
X226700D01*
X226956Y42752D01*
X227184Y42885D01*
X227371Y43072D01*
X227504Y43300D01*
X227572Y43556D01*
Y43820D01*
X227504Y44076D01*
X227371Y44304D01*
X227184Y44491D01*
X226956Y44624D01*
X226700Y44692D01*
D02*
G37*
G36*
X247274Y43676D02*
X247010D01*
X246754Y43608D01*
X246526Y43475D01*
X246339Y43288D01*
X246206Y43060D01*
X246138Y42804D01*
Y42540D01*
X246206Y42284D01*
X246339Y42056D01*
X246526Y41869D01*
X246754Y41736D01*
X247010Y41668D01*
X247274D01*
X247530Y41736D01*
X247758Y41869D01*
X247945Y42056D01*
X248078Y42284D01*
X248146Y42540D01*
Y42804D01*
X248078Y43060D01*
X247945Y43288D01*
X247758Y43475D01*
X247530Y43608D01*
X247274Y43676D01*
D02*
G37*
G36*
X234320Y54852D02*
X234056D01*
X233800Y54784D01*
X233572Y54651D01*
X233385Y54464D01*
X233252Y54236D01*
X233184Y53980D01*
Y53716D01*
X233252Y53460D01*
X233385Y53232D01*
X233572Y53045D01*
X233774Y52928D01*
Y52228D01*
X233572Y52111D01*
X233385Y51924D01*
X233252Y51696D01*
X233184Y51440D01*
Y51176D01*
X233252Y50920D01*
X233385Y50692D01*
X233572Y50505D01*
X233800Y50372D01*
X234056Y50304D01*
X234320D01*
X234546Y50364D01*
X235552Y49358D01*
Y46228D01*
X235583Y46069D01*
X235673Y45935D01*
X238578Y43030D01*
X238518Y42804D01*
Y42540D01*
X238586Y42284D01*
X238719Y42056D01*
X238906Y41869D01*
X239134Y41736D01*
X239390Y41668D01*
X239654D01*
X239910Y41736D01*
X240138Y41869D01*
X240325Y42056D01*
X240458Y42284D01*
X240526Y42540D01*
Y42804D01*
X240458Y43060D01*
X240325Y43288D01*
X240138Y43475D01*
X239910Y43608D01*
X239654Y43676D01*
X239390D01*
X239164Y43616D01*
X236380Y46400D01*
Y49530D01*
X236349Y49689D01*
X236259Y49823D01*
X235132Y50950D01*
X235192Y51176D01*
Y51440D01*
X235124Y51696D01*
X234991Y51924D01*
X234804Y52111D01*
X234602Y52228D01*
Y52928D01*
X234804Y53045D01*
X234991Y53232D01*
X235124Y53460D01*
X235192Y53716D01*
Y53980D01*
X235124Y54236D01*
X234991Y54464D01*
X234804Y54651D01*
X234576Y54784D01*
X234320Y54852D01*
D02*
G37*
G36*
X212222Y43422D02*
X211958D01*
X211702Y43354D01*
X211474Y43221D01*
X211287Y43034D01*
X211154Y42806D01*
X211086Y42550D01*
Y42286D01*
X211154Y42030D01*
X211287Y41802D01*
X211474Y41615D01*
X211702Y41482D01*
X211958Y41414D01*
X212222D01*
X212478Y41482D01*
X212706Y41615D01*
X212893Y41802D01*
X213026Y42030D01*
X213094Y42286D01*
Y42550D01*
X213026Y42806D01*
X212893Y43034D01*
X212706Y43221D01*
X212478Y43354D01*
X212222Y43422D01*
D02*
G37*
G36*
X204602D02*
X204338D01*
X204082Y43354D01*
X203854Y43221D01*
X203667Y43034D01*
X203534Y42806D01*
X203466Y42550D01*
Y42286D01*
X203534Y42030D01*
X203667Y41802D01*
X203854Y41615D01*
X204082Y41482D01*
X204338Y41414D01*
X204602D01*
X204858Y41482D01*
X205086Y41615D01*
X205273Y41802D01*
X205406Y42030D01*
X205474Y42286D01*
Y42550D01*
X205406Y42806D01*
X205273Y43034D01*
X205086Y43221D01*
X204858Y43354D01*
X204602Y43422D01*
D02*
G37*
G36*
X279532Y51804D02*
X279268D01*
X279012Y51736D01*
X278784Y51603D01*
X278597Y51416D01*
X278464Y51188D01*
X278396Y50932D01*
Y50668D01*
X278464Y50412D01*
X278597Y50184D01*
X278784Y49997D01*
X278986Y49880D01*
Y44084D01*
X278784Y43967D01*
X278597Y43780D01*
X278464Y43552D01*
X278396Y43296D01*
Y43032D01*
X278464Y42776D01*
X278597Y42548D01*
X278784Y42361D01*
X278897Y42295D01*
X278863Y42168D01*
X278396D01*
Y41291D01*
X279400D01*
X280404D01*
Y42168D01*
X279937D01*
X279903Y42295D01*
X280016Y42361D01*
X280203Y42548D01*
X280336Y42776D01*
X280404Y43032D01*
Y43296D01*
X280336Y43552D01*
X280203Y43780D01*
X280016Y43967D01*
X279814Y44084D01*
Y49880D01*
X280016Y49997D01*
X280203Y50184D01*
X280336Y50412D01*
X280404Y50668D01*
Y50932D01*
X280336Y51188D01*
X280203Y51416D01*
X280016Y51603D01*
X279788Y51736D01*
X279532Y51804D01*
D02*
G37*
G36*
X280404Y41037D02*
X279527D01*
Y40160D01*
X280404D01*
Y41037D01*
D02*
G37*
G36*
X279273D02*
X278396D01*
Y40160D01*
X279273D01*
Y41037D01*
D02*
G37*
G36*
X234320Y42152D02*
X234056D01*
X233800Y42084D01*
X233572Y41951D01*
X233385Y41764D01*
X233252Y41536D01*
X233184Y41280D01*
Y41016D01*
X233252Y40760D01*
X233385Y40532D01*
X233572Y40345D01*
X233800Y40212D01*
X234056Y40144D01*
X234320D01*
X234576Y40212D01*
X234804Y40345D01*
X234991Y40532D01*
X235124Y40760D01*
X235192Y41016D01*
Y41280D01*
X235124Y41536D01*
X234991Y41764D01*
X234804Y41951D01*
X234576Y42084D01*
X234320Y42152D01*
D02*
G37*
G36*
X226700D02*
X226436D01*
X226180Y42084D01*
X225952Y41951D01*
X225765Y41764D01*
X225632Y41536D01*
X225564Y41280D01*
Y41016D01*
X225632Y40760D01*
X225765Y40532D01*
X225952Y40345D01*
X226180Y40212D01*
X226436Y40144D01*
X226700D01*
X226956Y40212D01*
X227184Y40345D01*
X227371Y40532D01*
X227504Y40760D01*
X227572Y41016D01*
Y41280D01*
X227504Y41536D01*
X227371Y41764D01*
X227184Y41951D01*
X226956Y42084D01*
X226700Y42152D01*
D02*
G37*
G36*
X269628Y40894D02*
X269621D01*
Y40005D01*
X270510D01*
Y40012D01*
X270441Y40270D01*
X270307Y40502D01*
X270118Y40691D01*
X269886Y40825D01*
X269628Y40894D01*
D02*
G37*
G36*
X269367D02*
X269360D01*
X269102Y40825D01*
X268870Y40691D01*
X268681Y40502D01*
X268547Y40270D01*
X268478Y40012D01*
Y40005D01*
X269367D01*
Y40894D01*
D02*
G37*
G36*
X267088Y47498D02*
X266820D01*
X266562Y47429D01*
X266330Y47295D01*
X266141Y47106D01*
X266007Y46874D01*
X265938Y46616D01*
Y46348D01*
X266007Y46090D01*
X266141Y45858D01*
X266330Y45669D01*
X266393Y45633D01*
X266409Y45507D01*
X260267Y39365D01*
X260212Y39421D01*
X259980Y39555D01*
X259722Y39624D01*
X259454D01*
X259196Y39555D01*
X258964Y39421D01*
X258775Y39232D01*
X258641Y39000D01*
X258572Y38742D01*
Y38474D01*
X258641Y38216D01*
X258775Y37984D01*
X258964Y37795D01*
X259196Y37661D01*
X259454Y37592D01*
X259722D01*
X259980Y37661D01*
X260212Y37795D01*
X260401Y37984D01*
X260535Y38216D01*
X260604Y38474D01*
Y38530D01*
X267247Y45173D01*
X267337Y45307D01*
X267368Y45466D01*
Y45548D01*
X267578Y45669D01*
X267767Y45858D01*
X267901Y46090D01*
X267970Y46348D01*
Y46616D01*
X267901Y46874D01*
X267767Y47106D01*
X267578Y47295D01*
X267346Y47429D01*
X267088Y47498D01*
D02*
G37*
G36*
X212222Y40882D02*
X211958D01*
X211702Y40814D01*
X211474Y40681D01*
X211287Y40494D01*
X211154Y40266D01*
X211086Y40010D01*
Y39746D01*
X211154Y39490D01*
X211287Y39262D01*
X211474Y39075D01*
X211702Y38942D01*
X211958Y38874D01*
X212222D01*
X212478Y38942D01*
X212706Y39075D01*
X212893Y39262D01*
X213026Y39490D01*
X213094Y39746D01*
Y40010D01*
X213026Y40266D01*
X212893Y40494D01*
X212706Y40681D01*
X212478Y40814D01*
X212222Y40882D01*
D02*
G37*
G36*
X197024Y57201D02*
X196676D01*
X196340Y57111D01*
X196039Y56937D01*
X195793Y56691D01*
X195619Y56390D01*
X195529Y56054D01*
Y55706D01*
X195619Y55370D01*
X195793Y55069D01*
X196039Y54823D01*
X196340Y54649D01*
X196436Y54624D01*
Y47498D01*
X196467Y47339D01*
X196557Y47205D01*
X203526Y40236D01*
X203466Y40010D01*
Y39746D01*
X203534Y39490D01*
X203667Y39262D01*
X203854Y39075D01*
X204082Y38942D01*
X204338Y38874D01*
X204602D01*
X204858Y38942D01*
X205086Y39075D01*
X205273Y39262D01*
X205406Y39490D01*
X205474Y39746D01*
Y40010D01*
X205406Y40266D01*
X205273Y40494D01*
X205086Y40681D01*
X204858Y40814D01*
X204602Y40882D01*
X204338D01*
X204112Y40822D01*
X197264Y47670D01*
Y54624D01*
X197360Y54649D01*
X197661Y54823D01*
X197907Y55069D01*
X198081Y55370D01*
X198171Y55706D01*
Y56054D01*
X198081Y56390D01*
X197907Y56691D01*
X197661Y56937D01*
X197360Y57111D01*
X197024Y57201D01*
D02*
G37*
G36*
X270510Y39751D02*
X269621D01*
Y38862D01*
X269628D01*
X269886Y38931D01*
X270118Y39065D01*
X270307Y39254D01*
X270441Y39486D01*
X270510Y39744D01*
Y39751D01*
D02*
G37*
G36*
X269367D02*
X268478D01*
Y39744D01*
X268547Y39486D01*
X268681Y39254D01*
X268870Y39065D01*
X269102Y38931D01*
X269360Y38862D01*
X269367D01*
Y39751D01*
D02*
G37*
G36*
X267088Y40894D02*
X266820D01*
X266562Y40825D01*
X266330Y40691D01*
X266141Y40502D01*
X266007Y40270D01*
X265938Y40012D01*
Y39744D01*
X266007Y39486D01*
X266141Y39254D01*
X266330Y39065D01*
X266562Y38931D01*
X266820Y38862D01*
X267088D01*
X267346Y38931D01*
X267578Y39065D01*
X267767Y39254D01*
X267901Y39486D01*
X267970Y39744D01*
Y40012D01*
X267901Y40270D01*
X267767Y40502D01*
X267578Y40691D01*
X267346Y40825D01*
X267088Y40894D01*
D02*
G37*
G36*
X226700Y39612D02*
X226695D01*
Y38735D01*
X227572D01*
Y38740D01*
X227504Y38996D01*
X227371Y39224D01*
X227184Y39411D01*
X226956Y39544D01*
X226700Y39612D01*
D02*
G37*
G36*
X226441D02*
X226436D01*
X226180Y39544D01*
X225952Y39411D01*
X225765Y39224D01*
X225632Y38996D01*
X225564Y38740D01*
Y38735D01*
X226441D01*
Y39612D01*
D02*
G37*
G36*
X218066Y38862D02*
X218059D01*
Y37973D01*
X218948D01*
Y37980D01*
X218879Y38238D01*
X218745Y38470D01*
X218556Y38659D01*
X218324Y38793D01*
X218066Y38862D01*
D02*
G37*
G36*
X217805D02*
X217798D01*
X217540Y38793D01*
X217308Y38659D01*
X217119Y38470D01*
X216985Y38238D01*
X216916Y37980D01*
Y37973D01*
X217805D01*
Y38862D01*
D02*
G37*
G36*
X234320Y39612D02*
X234056D01*
X233800Y39544D01*
X233572Y39411D01*
X233385Y39224D01*
X233252Y38996D01*
X233184Y38740D01*
Y38476D01*
X233252Y38220D01*
X233385Y37992D01*
X233572Y37805D01*
X233800Y37672D01*
X234056Y37604D01*
X234320D01*
X234576Y37672D01*
X234804Y37805D01*
X234991Y37992D01*
X235124Y38220D01*
X235192Y38476D01*
Y38740D01*
X235124Y38996D01*
X234991Y39224D01*
X234804Y39411D01*
X234576Y39544D01*
X234320Y39612D01*
D02*
G37*
G36*
X227572Y38481D02*
X226695D01*
Y37604D01*
X226700D01*
X226956Y37672D01*
X227184Y37805D01*
X227371Y37992D01*
X227504Y38220D01*
X227572Y38476D01*
Y38481D01*
D02*
G37*
G36*
X226441D02*
X225564D01*
Y38476D01*
X225632Y38220D01*
X225765Y37992D01*
X225952Y37805D01*
X226180Y37672D01*
X226436Y37604D01*
X226441D01*
Y38481D01*
D02*
G37*
G36*
X254642Y39624D02*
X254374D01*
X254116Y39555D01*
X253884Y39421D01*
X253695Y39232D01*
X253561Y39000D01*
X253492Y38742D01*
Y38474D01*
X253561Y38216D01*
X253695Y37984D01*
X253884Y37795D01*
X254116Y37661D01*
X254374Y37592D01*
X254642D01*
X254900Y37661D01*
X255132Y37795D01*
X255321Y37984D01*
X255455Y38216D01*
X255524Y38474D01*
Y38742D01*
X255455Y39000D01*
X255321Y39232D01*
X255132Y39421D01*
X254900Y39555D01*
X254642Y39624D01*
D02*
G37*
G36*
X220606Y55626D02*
X220338D01*
X220080Y55557D01*
X219848Y55423D01*
X219659Y55234D01*
X219525Y55002D01*
X219456Y54744D01*
Y54476D01*
X219525Y54218D01*
X219659Y53986D01*
X219848Y53797D01*
X220058Y53676D01*
Y38780D01*
X219848Y38659D01*
X219659Y38470D01*
X219525Y38238D01*
X219456Y37980D01*
Y37712D01*
X219525Y37454D01*
X219659Y37222D01*
X219848Y37033D01*
X220080Y36899D01*
X220338Y36830D01*
X220606D01*
X220864Y36899D01*
X221096Y37033D01*
X221285Y37222D01*
X221419Y37454D01*
X221488Y37712D01*
Y37980D01*
X221419Y38238D01*
X221285Y38470D01*
X221096Y38659D01*
X220886Y38780D01*
Y53676D01*
X221096Y53797D01*
X221285Y53986D01*
X221419Y54218D01*
X221488Y54476D01*
Y54744D01*
X221419Y55002D01*
X221285Y55234D01*
X221096Y55423D01*
X220864Y55557D01*
X220606Y55626D01*
D02*
G37*
G36*
X218948Y37719D02*
X218059D01*
Y36830D01*
X218066D01*
X218324Y36899D01*
X218556Y37033D01*
X218745Y37222D01*
X218879Y37454D01*
X218948Y37712D01*
Y37719D01*
D02*
G37*
G36*
X217805D02*
X216916D01*
Y37712D01*
X216985Y37454D01*
X217119Y37222D01*
X217308Y37033D01*
X217540Y36899D01*
X217798Y36830D01*
X217805D01*
Y37719D01*
D02*
G37*
G36*
X213094Y38342D02*
X211086D01*
Y36334D01*
X213094D01*
Y38342D01*
D02*
G37*
G36*
X204602D02*
X204338D01*
X204082Y38274D01*
X203854Y38141D01*
X203667Y37954D01*
X203534Y37726D01*
X203466Y37470D01*
Y37206D01*
X203534Y36950D01*
X203667Y36722D01*
X203854Y36535D01*
X204082Y36402D01*
X204338Y36334D01*
X204602D01*
X204858Y36402D01*
X205086Y36535D01*
X205273Y36722D01*
X205406Y36950D01*
X205474Y37206D01*
Y37470D01*
X205406Y37726D01*
X205273Y37954D01*
X205086Y38141D01*
X204858Y38274D01*
X204602Y38342D01*
D02*
G37*
G36*
X185594Y37897D02*
X185246D01*
X184910Y37807D01*
X184609Y37633D01*
X184363Y37387D01*
X184189Y37086D01*
X184099Y36750D01*
Y36402D01*
X184189Y36066D01*
X184363Y35765D01*
X184609Y35519D01*
X184910Y35345D01*
X185246Y35255D01*
X185594D01*
X185930Y35345D01*
X186231Y35519D01*
X186477Y35765D01*
X186651Y36066D01*
X186741Y36402D01*
Y36750D01*
X186651Y37086D01*
X186477Y37387D01*
X186231Y37633D01*
X185930Y37807D01*
X185594Y37897D01*
D02*
G37*
G36*
X162734D02*
X162386D01*
X162050Y37807D01*
X161749Y37633D01*
X161503Y37387D01*
X161329Y37086D01*
X161239Y36750D01*
Y36402D01*
X161329Y36066D01*
X161503Y35765D01*
X161749Y35519D01*
X162050Y35345D01*
X162386Y35255D01*
X162734D01*
X163070Y35345D01*
X163371Y35519D01*
X163617Y35765D01*
X163791Y36066D01*
X163881Y36402D01*
Y36750D01*
X163791Y37086D01*
X163617Y37387D01*
X163371Y37633D01*
X163070Y37807D01*
X162734Y37897D01*
D02*
G37*
G36*
X139874D02*
X139526D01*
X139190Y37807D01*
X138889Y37633D01*
X138643Y37387D01*
X138469Y37086D01*
X138379Y36750D01*
Y36402D01*
X138469Y36066D01*
X138643Y35765D01*
X138889Y35519D01*
X139190Y35345D01*
X139526Y35255D01*
X139874D01*
X140210Y35345D01*
X140511Y35519D01*
X140757Y35765D01*
X140931Y36066D01*
X141021Y36402D01*
Y36750D01*
X140931Y37086D01*
X140757Y37387D01*
X140511Y37633D01*
X140210Y37807D01*
X139874Y37897D01*
D02*
G37*
G36*
X117014D02*
X116666D01*
X116330Y37807D01*
X116029Y37633D01*
X115783Y37387D01*
X115609Y37086D01*
X115519Y36750D01*
Y36402D01*
X115609Y36066D01*
X115783Y35765D01*
X116029Y35519D01*
X116330Y35345D01*
X116666Y35255D01*
X117014D01*
X117350Y35345D01*
X117651Y35519D01*
X117897Y35765D01*
X118071Y36066D01*
X118161Y36402D01*
Y36750D01*
X118071Y37086D01*
X117897Y37387D01*
X117651Y37633D01*
X117350Y37807D01*
X117014Y37897D01*
D02*
G37*
G36*
X204602Y53582D02*
X204338D01*
X204082Y53514D01*
X203854Y53381D01*
X203667Y53194D01*
X203534Y52966D01*
X203466Y52710D01*
Y52446D01*
X203534Y52190D01*
X203667Y51962D01*
X203854Y51775D01*
X204082Y51642D01*
X204338Y51574D01*
X204602D01*
X204828Y51634D01*
X205834Y50628D01*
Y36951D01*
X204443Y35560D01*
X204420D01*
X204233Y35483D01*
X204090Y35340D01*
X204013Y35153D01*
Y34951D01*
X204090Y34764D01*
X204233Y34621D01*
X204420Y34544D01*
X204622D01*
X204809Y34621D01*
X204951Y34764D01*
X205029Y34951D01*
Y34974D01*
X206541Y36486D01*
X206631Y36621D01*
X206662Y36779D01*
Y50800D01*
X206631Y50959D01*
X206541Y51093D01*
X205414Y52220D01*
X205474Y52446D01*
Y52710D01*
X205406Y52966D01*
X205273Y53194D01*
X205086Y53381D01*
X204858Y53514D01*
X204602Y53582D01*
D02*
G37*
%LPD*%
D25*
X266954Y45466D02*
Y46482D01*
X260096Y38608D02*
X266954Y45466D01*
X259588Y38608D02*
X260096D01*
X259588Y46228D02*
Y53848D01*
X257048Y43688D02*
X259588Y46228D01*
X251460Y36068D02*
X257048D01*
X245110Y42418D02*
X251460Y36068D01*
X245110Y42418D02*
Y45720D01*
X247142Y47752D01*
X198984Y57912D02*
X201016Y55880D01*
X176022Y57912D02*
X198984D01*
X173990Y55880D02*
X176022Y57912D01*
X186690Y46279D02*
Y55880D01*
X186639Y46228D02*
X186690Y46279D01*
X106629Y36627D02*
Y46228D01*
Y36627D02*
X106680Y36576D01*
X129489Y36627D02*
Y46228D01*
Y36627D02*
X129540Y36576D01*
X175209Y36627D02*
Y46228D01*
Y36627D02*
X175260Y36576D01*
X140970Y46279D02*
Y55880D01*
X140919Y46228D02*
X140970Y46279D01*
X204470Y52578D02*
X206248Y50800D01*
Y36779D02*
Y50800D01*
X204521Y35052D02*
X206248Y36779D01*
X257048Y36068D02*
Y43688D01*
X196850Y47498D02*
X204470Y39878D01*
X196850Y47498D02*
Y55880D01*
X201016Y48412D02*
Y55880D01*
Y48412D02*
X204470Y44958D01*
X163830Y46228D02*
Y55880D01*
X152400Y36576D02*
Y46228D01*
X118110D02*
Y55880D01*
D26*
X234188Y51308D02*
X235966Y49530D01*
Y46228D02*
Y49530D01*
Y46228D02*
X239522Y42672D01*
X220472Y37846D02*
Y54610D01*
X279400Y43164D02*
Y50800D01*
X234188Y51308D02*
Y53848D01*
D27*
X398020Y46482D02*
D03*
X442720D02*
D03*
X344680D02*
D03*
X389380D02*
D03*
X291342D02*
D03*
X336042D02*
D03*
X186639Y46228D02*
D03*
X175209D02*
D03*
X163830D02*
D03*
X152400D02*
D03*
X140919D02*
D03*
X129489D02*
D03*
X118110D02*
D03*
X106629D02*
D03*
D28*
X239522Y50292D02*
D03*
X226568Y53848D02*
D03*
X212090Y37338D02*
D03*
X281900Y50800D02*
D03*
D29*
X239522Y47752D02*
D03*
Y45212D02*
D03*
Y42672D02*
D03*
X247142Y50292D02*
D03*
Y47752D02*
D03*
Y45212D02*
D03*
Y42672D02*
D03*
X226568Y51308D02*
D03*
Y48768D02*
D03*
Y46228D02*
D03*
Y43688D02*
D03*
Y41148D02*
D03*
Y38608D02*
D03*
X234188Y53848D02*
D03*
Y51308D02*
D03*
Y48768D02*
D03*
Y46228D02*
D03*
Y43688D02*
D03*
Y41148D02*
D03*
Y38608D02*
D03*
X212090Y39878D02*
D03*
Y42418D02*
D03*
Y44958D02*
D03*
Y47498D02*
D03*
Y50038D02*
D03*
Y52578D02*
D03*
Y55118D02*
D03*
X204470Y37338D02*
D03*
Y39878D02*
D03*
Y42418D02*
D03*
Y44958D02*
D03*
Y47498D02*
D03*
Y50038D02*
D03*
Y52578D02*
D03*
Y55118D02*
D03*
X276900Y50800D02*
D03*
X279400D02*
D03*
Y43164D02*
D03*
D30*
X220472Y37846D02*
D03*
X217932D02*
D03*
X220472Y54610D02*
D03*
X217932D02*
D03*
X254508Y38608D02*
D03*
X257048Y36068D02*
D03*
X259588Y38608D02*
D03*
X254508Y53848D02*
D03*
X257048Y51308D02*
D03*
X259588Y53848D02*
D03*
X266954Y52832D02*
D03*
X269494D02*
D03*
Y46482D02*
D03*
X266954D02*
D03*
X269494Y39878D02*
D03*
X266954D02*
D03*
D31*
X196850Y55880D02*
D03*
X186690D02*
D03*
X185420Y36576D02*
D03*
X175260D02*
D03*
X162560D02*
D03*
X152400D02*
D03*
X173990Y55880D02*
D03*
X163830D02*
D03*
X151130D02*
D03*
X140970D02*
D03*
X128270D02*
D03*
X118110D02*
D03*
X139700Y36576D02*
D03*
X129540D02*
D03*
X116840D02*
D03*
X106680D02*
D03*
D32*
X279400Y41164D02*
D03*
D33*
X189179Y46228D02*
D03*
X177749D02*
D03*
X166370D02*
D03*
X154940D02*
D03*
X143459D02*
D03*
X132029D02*
D03*
X120650D02*
D03*
X109169D02*
D03*
D34*
X204521Y35052D02*
D03*
M02*
