G04*
G04 #@! TF.GenerationSoftware,Altium Limited,CircuitMaker,2.3.0 (2.3.0.3)*
G04*
G04 Layer_Color=16740166*
%FSLAX43Y43*%
%MOMM*%
G71*
G04*
G04 #@! TF.SameCoordinates,73D6295F-4BFA-4EF8-802C-3659C78386D7*
G04*
G04*
G04 #@! TF.FilePolarity,Positive*
G04*
G01*
G75*
%ADD13C,0.254*%
D13*
X449453Y62992D02*
G03*
X449326Y63119I-127J0D01*
G01*
X449453Y62992D02*
G03*
X449326Y63119I-127J0D01*
G01*
Y29845D02*
G03*
X449453Y29972I0J127D01*
G01*
X449326Y29845D02*
G03*
X449453Y29972I0J127D01*
G01*
X101600Y63119D02*
G03*
X101473Y62992I0J-127D01*
G01*
X101600Y63119D02*
G03*
X101473Y62992I0J-127D01*
G01*
Y29972D02*
G03*
X101600Y29845I127J0D01*
G01*
X101473Y29972D02*
G03*
X101600Y29845I127J0D01*
G01*
X449453Y29972D02*
Y62992D01*
X101600Y63119D02*
X449326D01*
X101600Y29845D02*
X449326D01*
X101473Y29972D02*
Y62992D01*
X252222Y43434D02*
X261874D01*
Y33782D02*
Y43434D01*
X252222Y33782D02*
X261874D01*
X252222D02*
Y43434D01*
Y58674D02*
X261874D01*
Y49022D02*
Y58674D01*
X252222Y49022D02*
X261874D01*
X252222D02*
Y58674D01*
M02*
