G04*
G04 #@! TF.GenerationSoftware,Altium Limited,CircuitMaker,2.3.0 (2.3.0.3)*
G04*
G04 Layer_Color=15132400*
%FSLAX43Y43*%
%MOMM*%
G71*
G04*
G04 #@! TF.SameCoordinates,73D6295F-4BFA-4EF8-802C-3659C78386D7*
G04*
G04*
G04 #@! TF.FilePolarity,Positive*
G04*
G01*
G75*
%ADD10C,0.200*%
%ADD11C,0.250*%
%ADD12C,0.600*%
%ADD13C,0.254*%
%ADD14C,0.100*%
%ADD15C,0.127*%
%ADD16C,0.203*%
G36*
X281263Y49849D02*
X281273Y49848D01*
X281283Y49847D01*
X281294Y49846D01*
X281319Y49843D01*
X281346Y49837D01*
X281374Y49829D01*
X281400Y49820D01*
X281401D01*
X281403Y49818D01*
X281407Y49817D01*
X281411Y49814D01*
X281417Y49811D01*
X281424Y49807D01*
X281439Y49799D01*
X281456Y49786D01*
X281474Y49771D01*
X281491Y49754D01*
X281506Y49734D01*
X281507Y49733D01*
X281507Y49732D01*
X281509Y49729D01*
X281512Y49724D01*
X281515Y49719D01*
X281518Y49713D01*
X281521Y49705D01*
X281525Y49697D01*
X281532Y49679D01*
X281538Y49657D01*
X281544Y49633D01*
X281546Y49606D01*
X281443Y49598D01*
Y49599D01*
X281442Y49602D01*
Y49605D01*
X281441Y49611D01*
X281440Y49618D01*
X281438Y49625D01*
X281433Y49642D01*
X281426Y49660D01*
X281415Y49680D01*
X281403Y49698D01*
X281395Y49706D01*
X281386Y49714D01*
X281385Y49715D01*
X281384Y49716D01*
X281381Y49717D01*
X281377Y49720D01*
X281372Y49723D01*
X281366Y49726D01*
X281359Y49730D01*
X281351Y49734D01*
X281341Y49738D01*
X281330Y49741D01*
X281319Y49745D01*
X281307Y49747D01*
X281292Y49750D01*
X281277Y49752D01*
X281262Y49754D01*
X281236D01*
X281229Y49753D01*
X281221D01*
X281212Y49752D01*
X281202Y49751D01*
X281191Y49749D01*
X281167Y49745D01*
X281144Y49739D01*
X281122Y49730D01*
X281112Y49724D01*
X281103Y49717D01*
X281102D01*
X281101Y49716D01*
X281096Y49711D01*
X281089Y49703D01*
X281081Y49693D01*
X281073Y49680D01*
X281066Y49665D01*
X281061Y49650D01*
X281060Y49641D01*
X281059Y49631D01*
Y49630D01*
Y49629D01*
X281060Y49624D01*
X281061Y49616D01*
X281062Y49606D01*
X281067Y49595D01*
X281072Y49583D01*
X281079Y49571D01*
X281090Y49560D01*
X281091Y49559D01*
X281093Y49557D01*
X281097Y49554D01*
X281101Y49552D01*
X281106Y49549D01*
X281113Y49546D01*
X281121Y49541D01*
X281131Y49537D01*
X281143Y49532D01*
X281156Y49528D01*
X281171Y49523D01*
X281188Y49517D01*
X281207Y49512D01*
X281228Y49506D01*
X281252Y49501D01*
X281254D01*
X281258Y49500D01*
X281264Y49498D01*
X281273Y49495D01*
X281284Y49494D01*
X281296Y49490D01*
X281309Y49487D01*
X281323Y49483D01*
X281353Y49475D01*
X281383Y49467D01*
X281397Y49463D01*
X281410Y49458D01*
X281422Y49454D01*
X281432Y49449D01*
X281433D01*
X281435Y49448D01*
X281439Y49446D01*
X281443Y49443D01*
X281449Y49441D01*
X281456Y49436D01*
X281471Y49427D01*
X281489Y49415D01*
X281506Y49401D01*
X281522Y49384D01*
X281530Y49375D01*
X281537Y49367D01*
Y49366D01*
X281538Y49364D01*
X281540Y49361D01*
X281542Y49358D01*
X281544Y49353D01*
X281547Y49347D01*
X281554Y49333D01*
X281560Y49316D01*
X281566Y49297D01*
X281569Y49275D01*
X281571Y49251D01*
Y49250D01*
Y49249D01*
Y49245D01*
X281570Y49241D01*
Y49234D01*
X281569Y49228D01*
X281567Y49211D01*
X281562Y49193D01*
X281555Y49173D01*
X281545Y49152D01*
X281540Y49140D01*
X281533Y49130D01*
Y49129D01*
X281531Y49127D01*
X281530Y49124D01*
X281526Y49120D01*
X281518Y49110D01*
X281506Y49097D01*
X281491Y49083D01*
X281472Y49068D01*
X281451Y49054D01*
X281426Y49041D01*
X281426D01*
X281423Y49039D01*
X281419Y49038D01*
X281414Y49035D01*
X281408Y49033D01*
X281400Y49031D01*
X281391Y49027D01*
X281381Y49025D01*
X281370Y49022D01*
X281358Y49018D01*
X281331Y49014D01*
X281302Y49011D01*
X281270Y49009D01*
X281260D01*
X281252Y49010D01*
X281242D01*
X281232Y49011D01*
X281219Y49011D01*
X281205Y49013D01*
X281176Y49017D01*
X281145Y49022D01*
X281114Y49030D01*
X281084Y49041D01*
X281084D01*
X281081Y49042D01*
X281077Y49044D01*
X281072Y49047D01*
X281066Y49050D01*
X281059Y49054D01*
X281042Y49064D01*
X281024Y49078D01*
X281004Y49094D01*
X280985Y49114D01*
X280968Y49137D01*
X280967Y49137D01*
X280966Y49139D01*
X280965Y49143D01*
X280962Y49148D01*
X280958Y49154D01*
X280955Y49161D01*
X280950Y49170D01*
X280947Y49180D01*
X280943Y49189D01*
X280939Y49201D01*
X280932Y49226D01*
X280927Y49254D01*
X280925Y49269D01*
X280924Y49284D01*
X281025Y49293D01*
Y49292D01*
Y49290D01*
X281026Y49286D01*
X281027Y49282D01*
X281028Y49277D01*
X281029Y49271D01*
X281032Y49256D01*
X281037Y49241D01*
X281042Y49224D01*
X281049Y49207D01*
X281058Y49191D01*
X281059Y49189D01*
X281063Y49185D01*
X281069Y49178D01*
X281078Y49169D01*
X281090Y49159D01*
X281104Y49149D01*
X281121Y49138D01*
X281140Y49129D01*
X281141D01*
X281143Y49128D01*
X281145Y49127D01*
X281150Y49125D01*
X281155Y49123D01*
X281161Y49121D01*
X281168Y49119D01*
X281176Y49117D01*
X281195Y49113D01*
X281217Y49108D01*
X281240Y49106D01*
X281265Y49105D01*
X281276D01*
X281281Y49106D01*
X281287D01*
X281301Y49107D01*
X281318Y49109D01*
X281336Y49112D01*
X281355Y49116D01*
X281373Y49122D01*
X281374D01*
X281374Y49123D01*
X281377Y49124D01*
X281381Y49126D01*
X281388Y49130D01*
X281399Y49136D01*
X281411Y49143D01*
X281423Y49152D01*
X281433Y49161D01*
X281443Y49173D01*
X281444Y49174D01*
X281447Y49178D01*
X281451Y49185D01*
X281455Y49194D01*
X281459Y49204D01*
X281463Y49216D01*
X281466Y49229D01*
X281467Y49242D01*
Y49243D01*
Y49244D01*
Y49249D01*
X281466Y49256D01*
X281464Y49265D01*
X281462Y49276D01*
X281457Y49287D01*
X281452Y49299D01*
X281444Y49309D01*
X281443Y49310D01*
X281440Y49314D01*
X281434Y49319D01*
X281426Y49326D01*
X281417Y49333D01*
X281403Y49341D01*
X281388Y49349D01*
X281371Y49357D01*
X281369Y49358D01*
X281367Y49359D01*
X281364Y49360D01*
X281360Y49360D01*
X281355Y49362D01*
X281348Y49365D01*
X281341Y49367D01*
X281331Y49369D01*
X281322Y49373D01*
X281309Y49375D01*
X281296Y49379D01*
X281281Y49383D01*
X281265Y49387D01*
X281247Y49392D01*
X281226Y49397D01*
X281225D01*
X281222Y49397D01*
X281216Y49399D01*
X281209Y49401D01*
X281199Y49404D01*
X281188Y49406D01*
X281178Y49410D01*
X281165Y49413D01*
X281139Y49421D01*
X281113Y49430D01*
X281101Y49434D01*
X281090Y49439D01*
X281079Y49443D01*
X281070Y49448D01*
X281069D01*
X281068Y49449D01*
X281065Y49451D01*
X281061Y49453D01*
X281050Y49459D01*
X281038Y49468D01*
X281023Y49479D01*
X281009Y49492D01*
X280995Y49507D01*
X280983Y49523D01*
Y49524D01*
X280982Y49524D01*
X280980Y49527D01*
X280979Y49531D01*
X280974Y49540D01*
X280969Y49553D01*
X280964Y49568D01*
X280959Y49585D01*
X280956Y49605D01*
X280955Y49625D01*
Y49626D01*
Y49628D01*
Y49631D01*
X280956Y49635D01*
Y49641D01*
X280957Y49647D01*
X280959Y49663D01*
X280964Y49680D01*
X280969Y49699D01*
X280978Y49719D01*
X280989Y49739D01*
Y49740D01*
X280991Y49742D01*
X280993Y49745D01*
X280995Y49748D01*
X281004Y49758D01*
X281016Y49770D01*
X281030Y49784D01*
X281047Y49797D01*
X281068Y49810D01*
X281091Y49821D01*
X281092D01*
X281094Y49822D01*
X281099Y49824D01*
X281103Y49826D01*
X281109Y49828D01*
X281117Y49830D01*
X281126Y49833D01*
X281136Y49836D01*
X281146Y49838D01*
X281158Y49841D01*
X281182Y49845D01*
X281210Y49849D01*
X281240Y49850D01*
X281255D01*
X281263Y49849D01*
D02*
G37*
G36*
X282467Y49022D02*
X282362D01*
X282192Y49642D01*
Y49642D01*
X282191Y49645D01*
X282191Y49649D01*
X282189Y49654D01*
X282187Y49660D01*
X282185Y49667D01*
X282181Y49683D01*
X282176Y49699D01*
X282172Y49715D01*
X282170Y49722D01*
X282169Y49728D01*
X282167Y49733D01*
X282166Y49737D01*
Y49736D01*
X282165Y49734D01*
Y49732D01*
X282163Y49727D01*
X282162Y49723D01*
X282161Y49717D01*
X282158Y49704D01*
X282154Y49689D01*
X282150Y49672D01*
X282146Y49657D01*
X282141Y49642D01*
X281970Y49022D01*
X281858D01*
X281644Y49836D01*
X281755D01*
X281878Y49301D01*
Y49301D01*
X281879Y49298D01*
X281879Y49293D01*
X281881Y49287D01*
X281883Y49279D01*
X281885Y49271D01*
X281887Y49261D01*
X281890Y49249D01*
X281893Y49237D01*
X281895Y49224D01*
X281901Y49197D01*
X281907Y49167D01*
X281912Y49136D01*
Y49137D01*
X281914Y49141D01*
X281915Y49148D01*
X281917Y49156D01*
X281919Y49167D01*
X281922Y49178D01*
X281925Y49190D01*
X281928Y49203D01*
X281935Y49229D01*
X281938Y49241D01*
X281941Y49254D01*
X281944Y49264D01*
X281946Y49273D01*
X281947Y49280D01*
X281949Y49286D01*
X282104Y49836D01*
X282234D01*
X282349Y49423D01*
X282350Y49421D01*
X282351Y49416D01*
X282354Y49408D01*
X282356Y49397D01*
X282360Y49383D01*
X282364Y49368D01*
X282369Y49350D01*
X282374Y49330D01*
X282379Y49308D01*
X282384Y49286D01*
X282390Y49262D01*
X282395Y49237D01*
X282405Y49187D01*
X282414Y49136D01*
Y49137D01*
X282414Y49139D01*
X282415Y49144D01*
X282416Y49149D01*
X282418Y49157D01*
X282420Y49166D01*
X282422Y49175D01*
X282425Y49187D01*
X282428Y49199D01*
X282430Y49212D01*
X282434Y49227D01*
X282437Y49242D01*
X282445Y49276D01*
X282454Y49312D01*
X282582Y49836D01*
X282690D01*
X282467Y49022D01*
D02*
G37*
G36*
X283126D02*
X283026D01*
Y49657D01*
X283024Y49656D01*
X283020Y49651D01*
X283012Y49645D01*
X283001Y49636D01*
X282987Y49626D01*
X282971Y49614D01*
X282952Y49602D01*
X282931Y49589D01*
X282930D01*
X282928Y49587D01*
X282926Y49585D01*
X282921Y49583D01*
X282916Y49580D01*
X282910Y49577D01*
X282896Y49569D01*
X282880Y49561D01*
X282862Y49553D01*
X282844Y49545D01*
X282826Y49538D01*
Y49634D01*
X282827Y49635D01*
X282830Y49635D01*
X282834Y49638D01*
X282840Y49641D01*
X282847Y49644D01*
X282856Y49650D01*
X282866Y49655D01*
X282875Y49660D01*
X282898Y49674D01*
X282923Y49691D01*
X282949Y49709D01*
X282972Y49729D01*
X282973Y49730D01*
X282975Y49732D01*
X282978Y49734D01*
X282983Y49739D01*
X282987Y49744D01*
X282993Y49749D01*
X283007Y49764D01*
X283022Y49780D01*
X283037Y49799D01*
X283050Y49818D01*
X283061Y49838D01*
X283126D01*
Y49022D01*
D02*
G37*
G36*
X282054Y52631D02*
X282063Y52630D01*
X282073Y52629D01*
X282084Y52628D01*
X282109Y52625D01*
X282136Y52619D01*
X282163Y52612D01*
X282191Y52603D01*
X282192D01*
X282194Y52602D01*
X282198Y52600D01*
X282202Y52597D01*
X282208Y52595D01*
X282215Y52591D01*
X282231Y52582D01*
X282250Y52571D01*
X282268Y52558D01*
X282286Y52542D01*
X282303Y52523D01*
X282304Y52522D01*
X282304Y52521D01*
X282306Y52518D01*
X282310Y52514D01*
X282312Y52509D01*
X282317Y52503D01*
X282321Y52496D01*
X282326Y52487D01*
X282331Y52478D01*
X282335Y52469D01*
X282341Y52457D01*
X282346Y52446D01*
X282356Y52419D01*
X282364Y52390D01*
X282267Y52364D01*
Y52365D01*
X282266Y52366D01*
X282265Y52370D01*
X282263Y52374D01*
X282261Y52379D01*
X282259Y52385D01*
X282254Y52399D01*
X282247Y52415D01*
X282239Y52431D01*
X282230Y52447D01*
X282221Y52461D01*
X282220Y52462D01*
X282215Y52467D01*
X282209Y52473D01*
X282201Y52482D01*
X282190Y52491D01*
X282177Y52500D01*
X282161Y52509D01*
X282143Y52518D01*
X282142D01*
X282141Y52519D01*
X282138Y52520D01*
X282134Y52521D01*
X282130Y52523D01*
X282124Y52525D01*
X282111Y52529D01*
X282094Y52533D01*
X282075Y52536D01*
X282054Y52539D01*
X282032Y52540D01*
X282020D01*
X282014Y52539D01*
X282006D01*
X281998Y52538D01*
X281988Y52537D01*
X281969Y52535D01*
X281947Y52530D01*
X281925Y52525D01*
X281904Y52517D01*
X281903D01*
X281902Y52516D01*
X281899Y52514D01*
X281895Y52513D01*
X281886Y52508D01*
X281873Y52501D01*
X281859Y52492D01*
X281845Y52482D01*
X281830Y52470D01*
X281817Y52457D01*
X281815Y52455D01*
X281812Y52451D01*
X281806Y52443D01*
X281799Y52433D01*
X281791Y52422D01*
X281782Y52408D01*
X281774Y52393D01*
X281767Y52377D01*
Y52376D01*
X281766Y52373D01*
X281764Y52370D01*
X281762Y52364D01*
X281760Y52357D01*
X281757Y52349D01*
X281754Y52339D01*
X281752Y52328D01*
X281748Y52317D01*
X281746Y52304D01*
X281741Y52276D01*
X281738Y52246D01*
X281736Y52213D01*
Y52212D01*
Y52209D01*
Y52202D01*
X281737Y52195D01*
Y52186D01*
X281738Y52175D01*
X281739Y52163D01*
X281740Y52150D01*
X281745Y52120D01*
X281752Y52090D01*
X281761Y52060D01*
X281773Y52031D01*
X281774Y52030D01*
X281775Y52027D01*
X281776Y52023D01*
X281780Y52018D01*
X281784Y52013D01*
X281789Y52006D01*
X281800Y51990D01*
X281816Y51972D01*
X281835Y51954D01*
X281856Y51937D01*
X281868Y51929D01*
X281881Y51922D01*
X281882D01*
X281885Y51920D01*
X281888Y51919D01*
X281894Y51917D01*
X281901Y51914D01*
X281909Y51911D01*
X281918Y51908D01*
X281927Y51904D01*
X281938Y51901D01*
X281950Y51898D01*
X281976Y51892D01*
X282004Y51889D01*
X282034Y51887D01*
X282041D01*
X282046Y51888D01*
X282052D01*
X282059Y51889D01*
X282067Y51889D01*
X282077Y51890D01*
X282097Y51893D01*
X282120Y51898D01*
X282145Y51904D01*
X282170Y51913D01*
X282170D01*
X282172Y51914D01*
X282176Y51916D01*
X282181Y51918D01*
X282186Y51920D01*
X282193Y51924D01*
X282207Y51931D01*
X282224Y51940D01*
X282241Y51949D01*
X282257Y51959D01*
X282271Y51971D01*
Y52123D01*
X282032D01*
Y52219D01*
X282377D01*
Y51917D01*
X282376Y51916D01*
X282373Y51914D01*
X282369Y51911D01*
X282363Y51906D01*
X282356Y51901D01*
X282347Y51896D01*
X282337Y51889D01*
X282326Y51882D01*
X282315Y51875D01*
X282302Y51867D01*
X282274Y51851D01*
X282245Y51836D01*
X282213Y51823D01*
X282212D01*
X282209Y51821D01*
X282205Y51820D01*
X282198Y51817D01*
X282191Y51815D01*
X282181Y51813D01*
X282171Y51809D01*
X282160Y51807D01*
X282147Y51804D01*
X282133Y51800D01*
X282104Y51796D01*
X282073Y51793D01*
X282040Y51791D01*
X282029D01*
X282020Y51792D01*
X282009Y51793D01*
X281997Y51793D01*
X281983Y51795D01*
X281968Y51797D01*
X281952Y51800D01*
X281934Y51803D01*
X281917Y51808D01*
X281897Y51813D01*
X281879Y51818D01*
X281860Y51825D01*
X281841Y51833D01*
X281822Y51842D01*
X281821Y51843D01*
X281818Y51845D01*
X281813Y51847D01*
X281806Y51852D01*
X281799Y51857D01*
X281789Y51863D01*
X281778Y51871D01*
X281767Y51880D01*
X281755Y51889D01*
X281743Y51901D01*
X281731Y51912D01*
X281718Y51926D01*
X281707Y51941D01*
X281695Y51956D01*
X281684Y51972D01*
X281674Y51990D01*
X281673Y51991D01*
X281672Y51994D01*
X281670Y52000D01*
X281666Y52007D01*
X281663Y52016D01*
X281658Y52027D01*
X281654Y52039D01*
X281650Y52053D01*
X281645Y52068D01*
X281641Y52085D01*
X281636Y52104D01*
X281633Y52122D01*
X281629Y52142D01*
X281627Y52163D01*
X281626Y52185D01*
X281625Y52207D01*
Y52209D01*
Y52212D01*
Y52218D01*
X281626Y52227D01*
X281627Y52238D01*
X281628Y52250D01*
X281629Y52264D01*
X281631Y52279D01*
X281634Y52296D01*
X281637Y52313D01*
X281646Y52350D01*
X281651Y52370D01*
X281658Y52389D01*
X281665Y52409D01*
X281674Y52428D01*
X281675Y52429D01*
X281677Y52432D01*
X281680Y52438D01*
X281683Y52445D01*
X281688Y52454D01*
X281695Y52463D01*
X281702Y52474D01*
X281710Y52486D01*
X281720Y52499D01*
X281731Y52511D01*
X281742Y52523D01*
X281755Y52536D01*
X281769Y52549D01*
X281784Y52560D01*
X281799Y52572D01*
X281816Y52581D01*
X281817Y52582D01*
X281821Y52583D01*
X281826Y52586D01*
X281833Y52589D01*
X281842Y52593D01*
X281852Y52597D01*
X281865Y52602D01*
X281878Y52607D01*
X281893Y52611D01*
X281910Y52616D01*
X281927Y52620D01*
X281947Y52624D01*
X281966Y52627D01*
X281987Y52630D01*
X282009Y52631D01*
X282031Y52632D01*
X282046D01*
X282054Y52631D01*
D02*
G37*
G36*
X284135Y51804D02*
X284035D01*
Y52439D01*
X284034Y52438D01*
X284029Y52433D01*
X284021Y52427D01*
X284010Y52418D01*
X283997Y52408D01*
X283980Y52396D01*
X283961Y52384D01*
X283940Y52371D01*
X283939D01*
X283938Y52369D01*
X283935Y52367D01*
X283931Y52365D01*
X283925Y52362D01*
X283919Y52359D01*
X283905Y52351D01*
X283889Y52343D01*
X283872Y52335D01*
X283853Y52327D01*
X283835Y52320D01*
Y52416D01*
X283836Y52417D01*
X283839Y52417D01*
X283843Y52420D01*
X283850Y52423D01*
X283857Y52426D01*
X283865Y52432D01*
X283875Y52437D01*
X283885Y52442D01*
X283908Y52456D01*
X283932Y52473D01*
X283958Y52491D01*
X283982Y52511D01*
X283983Y52512D01*
X283984Y52514D01*
X283988Y52516D01*
X283992Y52521D01*
X283997Y52526D01*
X284003Y52531D01*
X284016Y52546D01*
X284031Y52562D01*
X284046Y52580D01*
X284059Y52600D01*
X284071Y52620D01*
X284135D01*
Y51804D01*
D02*
G37*
G36*
X283416Y52619D02*
X283426Y52618D01*
X283437Y52617D01*
X283450Y52615D01*
X283463Y52612D01*
X283478Y52609D01*
X283493Y52604D01*
X283509Y52599D01*
X283524Y52593D01*
X283540Y52585D01*
X283555Y52576D01*
X283569Y52566D01*
X283582Y52555D01*
X283583Y52554D01*
X283585Y52552D01*
X283589Y52548D01*
X283593Y52543D01*
X283598Y52537D01*
X283604Y52529D01*
X283611Y52521D01*
X283617Y52510D01*
X283623Y52499D01*
X283629Y52487D01*
X283635Y52474D01*
X283641Y52460D01*
X283645Y52444D01*
X283649Y52428D01*
X283650Y52411D01*
X283651Y52394D01*
Y52393D01*
Y52392D01*
Y52389D01*
Y52386D01*
X283650Y52376D01*
X283649Y52364D01*
X283646Y52349D01*
X283642Y52333D01*
X283638Y52315D01*
X283631Y52298D01*
Y52297D01*
X283630Y52296D01*
X283629Y52293D01*
X283627Y52290D01*
X283622Y52280D01*
X283615Y52268D01*
X283605Y52253D01*
X283594Y52236D01*
X283581Y52218D01*
X283564Y52199D01*
X283563Y52198D01*
X283562Y52196D01*
X283559Y52194D01*
X283555Y52189D01*
X283550Y52184D01*
X283544Y52178D01*
X283537Y52170D01*
X283528Y52162D01*
X283517Y52152D01*
X283506Y52142D01*
X283493Y52129D01*
X283479Y52117D01*
X283464Y52103D01*
X283448Y52089D01*
X283429Y52073D01*
X283410Y52056D01*
X283409Y52055D01*
X283406Y52053D01*
X283401Y52049D01*
X283396Y52044D01*
X283388Y52038D01*
X283380Y52031D01*
X283361Y52015D01*
X283342Y51998D01*
X283323Y51980D01*
X283315Y51972D01*
X283307Y51965D01*
X283300Y51958D01*
X283294Y51953D01*
X283293Y51952D01*
X283290Y51949D01*
X283285Y51943D01*
X283279Y51936D01*
X283272Y51928D01*
X283265Y51919D01*
X283251Y51900D01*
X283652D01*
Y51804D01*
X283114D01*
Y51806D01*
Y51810D01*
Y51817D01*
X283114Y51826D01*
X283115Y51837D01*
X283118Y51848D01*
X283121Y51860D01*
X283125Y51873D01*
Y51874D01*
X283126Y51875D01*
X283127Y51878D01*
X283129Y51882D01*
X283131Y51887D01*
X283134Y51893D01*
X283141Y51907D01*
X283150Y51924D01*
X283161Y51942D01*
X283174Y51962D01*
X283190Y51981D01*
X283191Y51982D01*
X283192Y51984D01*
X283195Y51986D01*
X283199Y51991D01*
X283203Y51995D01*
X283210Y52001D01*
X283216Y52008D01*
X283224Y52016D01*
X283233Y52025D01*
X283242Y52034D01*
X283253Y52045D01*
X283265Y52055D01*
X283277Y52067D01*
X283292Y52078D01*
X283306Y52090D01*
X283322Y52104D01*
X283323Y52105D01*
X283328Y52109D01*
X283334Y52114D01*
X283343Y52122D01*
X283353Y52131D01*
X283366Y52142D01*
X283380Y52153D01*
X283394Y52166D01*
X283424Y52194D01*
X283453Y52223D01*
X283467Y52237D01*
X283480Y52251D01*
X283492Y52264D01*
X283501Y52276D01*
X283502Y52277D01*
X283503Y52279D01*
X283506Y52283D01*
X283508Y52287D01*
X283513Y52293D01*
X283516Y52299D01*
X283525Y52315D01*
X283534Y52334D01*
X283542Y52354D01*
X283547Y52375D01*
X283548Y52386D01*
X283549Y52396D01*
Y52397D01*
Y52399D01*
Y52402D01*
X283548Y52406D01*
Y52411D01*
X283546Y52417D01*
X283544Y52431D01*
X283538Y52447D01*
X283530Y52463D01*
X283526Y52472D01*
X283520Y52480D01*
X283514Y52488D01*
X283506Y52496D01*
X283505Y52497D01*
X283504Y52498D01*
X283501Y52499D01*
X283498Y52502D01*
X283493Y52506D01*
X283488Y52509D01*
X283476Y52517D01*
X283459Y52524D01*
X283441Y52531D01*
X283419Y52536D01*
X283406Y52537D01*
X283387D01*
X283382Y52536D01*
X283375D01*
X283368Y52535D01*
X283352Y52532D01*
X283334Y52527D01*
X283315Y52519D01*
X283305Y52514D01*
X283295Y52508D01*
X283286Y52501D01*
X283277Y52493D01*
X283277Y52492D01*
X283276Y52491D01*
X283274Y52489D01*
X283270Y52485D01*
X283268Y52481D01*
X283264Y52476D01*
X283260Y52469D01*
X283256Y52462D01*
X283252Y52454D01*
X283248Y52446D01*
X283241Y52424D01*
X283236Y52402D01*
X283235Y52388D01*
X283234Y52374D01*
X283132Y52385D01*
Y52387D01*
X283133Y52390D01*
X283134Y52395D01*
X283135Y52403D01*
X283136Y52413D01*
X283139Y52424D01*
X283142Y52437D01*
X283146Y52450D01*
X283151Y52463D01*
X283156Y52478D01*
X283163Y52492D01*
X283170Y52506D01*
X283179Y52521D01*
X283188Y52535D01*
X283199Y52548D01*
X283211Y52559D01*
X283212Y52560D01*
X283215Y52562D01*
X283218Y52565D01*
X283224Y52569D01*
X283231Y52573D01*
X283240Y52579D01*
X283249Y52584D01*
X283261Y52590D01*
X283273Y52595D01*
X283287Y52601D01*
X283302Y52606D01*
X283319Y52610D01*
X283337Y52615D01*
X283355Y52618D01*
X283375Y52619D01*
X283396Y52620D01*
X283408D01*
X283416Y52619D01*
D02*
G37*
G36*
X282871Y51804D02*
X282772D01*
Y52439D01*
X282770Y52438D01*
X282765Y52433D01*
X282757Y52427D01*
X282746Y52418D01*
X282733Y52408D01*
X282716Y52396D01*
X282698Y52384D01*
X282676Y52371D01*
X282676D01*
X282674Y52369D01*
X282671Y52367D01*
X282667Y52365D01*
X282661Y52362D01*
X282655Y52359D01*
X282641Y52351D01*
X282625Y52343D01*
X282608Y52335D01*
X282589Y52327D01*
X282572Y52320D01*
Y52416D01*
X282572Y52417D01*
X282575Y52417D01*
X282579Y52420D01*
X282586Y52423D01*
X282593Y52426D01*
X282601Y52432D01*
X282611Y52437D01*
X282621Y52442D01*
X282644Y52456D01*
X282668Y52473D01*
X282694Y52491D01*
X282718Y52511D01*
X282719Y52512D01*
X282720Y52514D01*
X282724Y52516D01*
X282728Y52521D01*
X282733Y52526D01*
X282739Y52531D01*
X282752Y52546D01*
X282767Y52562D01*
X282782Y52580D01*
X282795Y52600D01*
X282807Y52620D01*
X282871D01*
Y51804D01*
D02*
G37*
G36*
X281485Y52521D02*
X281004D01*
Y52273D01*
X281454D01*
Y52177D01*
X281004D01*
Y51900D01*
X281503D01*
Y51804D01*
X280896D01*
Y52618D01*
X281485D01*
Y52521D01*
D02*
G37*
G36*
X284673Y52619D02*
X284682Y52618D01*
X284692Y52617D01*
X284704Y52615D01*
X284717Y52612D01*
X284730Y52609D01*
X284744Y52605D01*
X284758Y52600D01*
X284772Y52594D01*
X284787Y52587D01*
X284801Y52578D01*
X284815Y52569D01*
X284827Y52558D01*
X284828Y52557D01*
X284830Y52555D01*
X284833Y52551D01*
X284838Y52547D01*
X284842Y52541D01*
X284847Y52534D01*
X284853Y52525D01*
X284860Y52516D01*
X284866Y52506D01*
X284872Y52494D01*
X284877Y52482D01*
X284882Y52469D01*
X284886Y52454D01*
X284890Y52439D01*
X284891Y52424D01*
X284892Y52408D01*
Y52407D01*
Y52405D01*
Y52402D01*
Y52398D01*
X284891Y52394D01*
X284890Y52387D01*
X284889Y52374D01*
X284885Y52359D01*
X284880Y52343D01*
X284872Y52326D01*
X284862Y52309D01*
Y52308D01*
X284860Y52307D01*
X284857Y52302D01*
X284850Y52295D01*
X284840Y52285D01*
X284827Y52276D01*
X284812Y52264D01*
X284793Y52254D01*
X284772Y52245D01*
X284773D01*
X284776Y52244D01*
X284779Y52242D01*
X284785Y52240D01*
X284791Y52238D01*
X284798Y52234D01*
X284815Y52225D01*
X284833Y52215D01*
X284852Y52201D01*
X284870Y52185D01*
X284886Y52165D01*
X284887Y52164D01*
X284888Y52163D01*
X284890Y52160D01*
X284892Y52156D01*
X284895Y52150D01*
X284898Y52144D01*
X284902Y52137D01*
X284906Y52129D01*
X284913Y52111D01*
X284919Y52089D01*
X284924Y52064D01*
X284926Y52051D01*
Y52037D01*
Y52036D01*
Y52032D01*
X284925Y52027D01*
Y52019D01*
X284923Y52010D01*
X284922Y52000D01*
X284919Y51988D01*
X284917Y51976D01*
X284912Y51962D01*
X284908Y51948D01*
X284902Y51934D01*
X284895Y51919D01*
X284886Y51904D01*
X284876Y51889D01*
X284865Y51875D01*
X284852Y51861D01*
X284851Y51860D01*
X284848Y51859D01*
X284844Y51855D01*
X284838Y51851D01*
X284830Y51845D01*
X284822Y51839D01*
X284811Y51832D01*
X284800Y51826D01*
X284786Y51820D01*
X284771Y51813D01*
X284756Y51808D01*
X284739Y51802D01*
X284720Y51797D01*
X284701Y51793D01*
X284680Y51792D01*
X284658Y51791D01*
X284652D01*
X284646Y51792D01*
X284637D01*
X284628Y51793D01*
X284615Y51794D01*
X284602Y51797D01*
X284588Y51800D01*
X284573Y51803D01*
X284557Y51808D01*
X284541Y51814D01*
X284525Y51821D01*
X284509Y51829D01*
X284493Y51838D01*
X284477Y51849D01*
X284463Y51861D01*
X284462Y51862D01*
X284459Y51865D01*
X284456Y51868D01*
X284451Y51875D01*
X284446Y51882D01*
X284440Y51889D01*
X284433Y51899D01*
X284427Y51911D01*
X284420Y51923D01*
X284413Y51936D01*
X284407Y51951D01*
X284401Y51966D01*
X284397Y51983D01*
X284393Y52001D01*
X284391Y52020D01*
X284390Y52039D01*
Y52040D01*
Y52043D01*
Y52047D01*
X284391Y52053D01*
Y52060D01*
X284392Y52068D01*
X284393Y52076D01*
X284395Y52086D01*
X284399Y52106D01*
X284407Y52128D01*
X284416Y52150D01*
X284422Y52161D01*
X284429Y52172D01*
X284430Y52172D01*
X284431Y52174D01*
X284434Y52177D01*
X284437Y52180D01*
X284441Y52185D01*
X284446Y52189D01*
X284452Y52195D01*
X284459Y52201D01*
X284475Y52213D01*
X284495Y52225D01*
X284518Y52236D01*
X284544Y52245D01*
X284543D01*
X284541Y52246D01*
X284538Y52247D01*
X284534Y52249D01*
X284529Y52251D01*
X284523Y52254D01*
X284510Y52261D01*
X284495Y52270D01*
X284480Y52282D01*
X284465Y52294D01*
X284452Y52309D01*
Y52310D01*
X284451Y52311D01*
X284450Y52313D01*
X284448Y52317D01*
X284443Y52326D01*
X284437Y52337D01*
X284432Y52352D01*
X284427Y52370D01*
X284423Y52389D01*
X284422Y52410D01*
Y52411D01*
Y52414D01*
X284423Y52419D01*
Y52425D01*
X284424Y52432D01*
X284426Y52441D01*
X284428Y52451D01*
X284430Y52462D01*
X284434Y52474D01*
X284438Y52485D01*
X284443Y52498D01*
X284449Y52511D01*
X284457Y52523D01*
X284465Y52536D01*
X284474Y52548D01*
X284486Y52559D01*
X284487Y52560D01*
X284488Y52562D01*
X284492Y52565D01*
X284497Y52569D01*
X284503Y52573D01*
X284511Y52579D01*
X284520Y52584D01*
X284531Y52590D01*
X284542Y52595D01*
X284555Y52601D01*
X284569Y52606D01*
X284584Y52610D01*
X284600Y52615D01*
X284617Y52618D01*
X284636Y52619D01*
X284655Y52620D01*
X284666D01*
X284673Y52619D01*
D02*
G37*
%LPC*%
G36*
X284667Y52538D02*
X284652D01*
X284647Y52537D01*
X284643D01*
X284637Y52536D01*
X284623Y52534D01*
X284608Y52529D01*
X284592Y52522D01*
X284577Y52514D01*
X284562Y52501D01*
X284560Y52499D01*
X284555Y52495D01*
X284550Y52487D01*
X284543Y52476D01*
X284536Y52464D01*
X284531Y52449D01*
X284526Y52432D01*
X284525Y52414D01*
Y52413D01*
Y52411D01*
Y52409D01*
X284526Y52404D01*
Y52399D01*
X284526Y52394D01*
X284529Y52380D01*
X284533Y52365D01*
X284540Y52350D01*
X284548Y52334D01*
X284561Y52320D01*
X284563Y52318D01*
X284568Y52314D01*
X284576Y52308D01*
X284587Y52302D01*
X284600Y52295D01*
X284617Y52289D01*
X284637Y52285D01*
X284658Y52283D01*
X284663D01*
X284667Y52284D01*
X284673D01*
X284678Y52285D01*
X284691Y52288D01*
X284706Y52292D01*
X284722Y52298D01*
X284738Y52307D01*
X284753Y52320D01*
X284755Y52321D01*
X284759Y52326D01*
X284764Y52334D01*
X284771Y52344D01*
X284778Y52357D01*
X284784Y52372D01*
X284788Y52389D01*
X284790Y52408D01*
Y52409D01*
Y52410D01*
Y52413D01*
X284789Y52417D01*
X284788Y52427D01*
X284786Y52440D01*
X284781Y52454D01*
X284774Y52470D01*
X284764Y52485D01*
X284759Y52493D01*
X284752Y52500D01*
Y52501D01*
X284750Y52502D01*
X284745Y52506D01*
X284737Y52513D01*
X284726Y52520D01*
X284712Y52526D01*
X284696Y52532D01*
X284677Y52536D01*
X284667Y52538D01*
D02*
G37*
G36*
X284655Y52201D02*
X284648D01*
X284644Y52201D01*
X284637Y52200D01*
X284630Y52199D01*
X284614Y52195D01*
X284595Y52190D01*
X284576Y52182D01*
X284566Y52177D01*
X284556Y52171D01*
X284547Y52163D01*
X284538Y52155D01*
X284537Y52154D01*
X284536Y52153D01*
X284533Y52150D01*
X284531Y52147D01*
X284527Y52142D01*
X284524Y52136D01*
X284519Y52130D01*
X284515Y52123D01*
X284506Y52106D01*
X284499Y52086D01*
X284494Y52063D01*
X284493Y52052D01*
X284492Y52038D01*
Y52038D01*
Y52037D01*
Y52031D01*
X284493Y52023D01*
X284495Y52012D01*
X284496Y52000D01*
X284500Y51986D01*
X284505Y51971D01*
X284511Y51956D01*
X284512Y51954D01*
X284515Y51949D01*
X284520Y51941D01*
X284526Y51933D01*
X284535Y51923D01*
X284545Y51913D01*
X284557Y51903D01*
X284571Y51894D01*
X284572D01*
X284573Y51893D01*
X284578Y51890D01*
X284586Y51887D01*
X284598Y51883D01*
X284610Y51880D01*
X284625Y51876D01*
X284641Y51874D01*
X284658Y51873D01*
X284665D01*
X284670Y51874D01*
X284676Y51875D01*
X284683Y51875D01*
X284700Y51879D01*
X284719Y51884D01*
X284739Y51892D01*
X284749Y51897D01*
X284758Y51904D01*
X284768Y51911D01*
X284777Y51919D01*
X284778Y51919D01*
X284778Y51920D01*
X284781Y51923D01*
X284784Y51927D01*
X284787Y51932D01*
X284792Y51937D01*
X284796Y51943D01*
X284801Y51950D01*
X284808Y51967D01*
X284816Y51987D01*
X284822Y52009D01*
X284823Y52022D01*
X284823Y52035D01*
Y52036D01*
Y52038D01*
Y52042D01*
X284823Y52047D01*
X284822Y52053D01*
X284821Y52060D01*
X284817Y52077D01*
X284812Y52096D01*
X284803Y52116D01*
X284798Y52126D01*
X284791Y52135D01*
X284784Y52145D01*
X284775Y52154D01*
X284774Y52155D01*
X284773Y52156D01*
X284771Y52158D01*
X284766Y52161D01*
X284762Y52165D01*
X284756Y52169D01*
X284749Y52173D01*
X284742Y52178D01*
X284725Y52187D01*
X284704Y52194D01*
X284681Y52200D01*
X284668Y52201D01*
X284655Y52201D01*
D02*
G37*
%LPD*%
D10*
X242697Y51632D02*
G03*
X243967Y51632I635J0D01*
G01*
X229743Y56078D02*
G03*
X231013Y56078I635J0D01*
G01*
X208915Y35560D02*
G03*
X207645Y35560I-635J0D01*
G01*
X240682Y41332D02*
Y51632D01*
X245982Y41332D02*
Y51632D01*
X240682D02*
X242697D01*
X243967D02*
X245982D01*
X240682Y41332D02*
X245982D01*
X227728Y36378D02*
Y56078D01*
X233028Y36378D02*
Y56078D01*
X227728D02*
X229743D01*
X231013D02*
X233028D01*
X227728Y36378D02*
X233028D01*
X210930Y35433D02*
Y57150D01*
X205630Y35433D02*
Y57150D01*
X208915Y35433D02*
X210930D01*
X205630D02*
X207645D01*
X205630Y57150D02*
X210930D01*
X285200Y48800D02*
Y52800D01*
X273600D02*
X285200D01*
X273600Y48800D02*
Y52800D01*
Y48800D02*
X285200D01*
D11*
X239647Y51592D02*
G03*
X239647Y51592I-125J0D01*
G01*
X226693Y55148D02*
G03*
X226693Y55148I-125J0D01*
G01*
X212215Y36038D02*
G03*
X212215Y36038I-125J0D01*
G01*
X282025Y48150D02*
G03*
X282025Y48150I-125J0D01*
G01*
D12*
X241982Y50632D02*
G03*
X241982Y50632I-300J0D01*
G01*
X229028Y55078D02*
G03*
X229028Y55078I-300J0D01*
G01*
X210358Y36449D02*
G03*
X210358Y36449I-300J0D01*
G01*
D13*
X281900Y42164D02*
G03*
X281900Y42164I-2500J0D01*
G01*
X185366Y44931D02*
G03*
X185366Y47525I2594J1297D01*
G01*
X173936Y44931D02*
G03*
X173936Y47525I2594J1297D01*
G01*
X162557Y44931D02*
G03*
X162557Y47525I2594J1297D01*
G01*
X151127Y44931D02*
G03*
X151127Y47525I2594J1297D01*
G01*
X139646Y44931D02*
G03*
X139646Y47525I2594J1297D01*
G01*
X128216Y44931D02*
G03*
X128216Y47525I2594J1297D01*
G01*
X116837Y44931D02*
G03*
X116837Y47525I2594J1297D01*
G01*
X105356Y44931D02*
G03*
X105356Y47525I2594J1297D01*
G01*
X438175Y40096D02*
X445244D01*
X438170Y40102D02*
X438175Y40096D01*
X416187Y40102D02*
X438170D01*
X405285D02*
X416187D01*
X405280Y40096D02*
X405285Y40102D01*
X395448Y40096D02*
X405280D01*
X395442Y40102D02*
X395448Y40096D01*
X395442Y40102D02*
Y52850D01*
X395430Y52862D02*
X395442Y52850D01*
X395430Y52862D02*
X405351D01*
X445315D01*
X445326Y52852D01*
Y40015D02*
Y52852D01*
X384835Y40096D02*
X391904D01*
X384830Y40102D02*
X384835Y40096D01*
X362847Y40102D02*
X384830D01*
X351945D02*
X362847D01*
X351940Y40096D02*
X351945Y40102D01*
X342108Y40096D02*
X351940D01*
X342102Y40102D02*
X342108Y40096D01*
X342102Y40102D02*
Y52850D01*
X342090Y52862D02*
X342102Y52850D01*
X342090Y52862D02*
X352011D01*
X391975D01*
X391986Y52852D01*
Y40015D02*
Y52852D01*
X331497Y40096D02*
X338566D01*
X331492Y40102D02*
X331497Y40096D01*
X309509Y40102D02*
X331492D01*
X298607D02*
X309509D01*
X298602Y40096D02*
X298607Y40102D01*
X288770Y40096D02*
X298602D01*
X288764Y40102D02*
X288770Y40096D01*
X288764Y40102D02*
Y52850D01*
X288752Y52862D02*
X288764Y52850D01*
X288752Y52862D02*
X298673D01*
X338637D01*
X338647Y52852D01*
Y40015D02*
Y52852D01*
X252222Y43434D02*
X261874D01*
Y33782D02*
Y43434D01*
X252222Y33782D02*
X261874D01*
X252222D02*
Y43434D01*
Y58674D02*
X261874D01*
Y49022D02*
Y58674D01*
X252222Y49022D02*
X261874D01*
X252222D02*
Y58674D01*
X185344Y44958D02*
Y47498D01*
X173914Y44958D02*
Y47498D01*
X162535Y44958D02*
Y47498D01*
X151105Y44958D02*
Y47498D01*
X139624Y44958D02*
Y47498D01*
X128194Y44958D02*
Y47498D01*
X116815Y44958D02*
Y47498D01*
X105334Y44958D02*
Y47498D01*
X281559Y45085D02*
Y44069D01*
X282067Y44577D02*
X281051D01*
X207010Y46990D02*
Y45720D01*
X207264Y45466D01*
X207772D01*
X208026Y45720D01*
Y46990D01*
X208534Y46736D02*
X208788Y46990D01*
X209296D01*
X209550Y46736D01*
Y46482D01*
X209296Y46228D01*
X209042D01*
X209296D01*
X209550Y45974D01*
Y45720D01*
X209296Y45466D01*
X208788D01*
X208534Y45720D01*
X229108Y46990D02*
Y45720D01*
X229362Y45466D01*
X229870D01*
X230124Y45720D01*
Y46990D01*
X231648Y45466D02*
X230632D01*
X231648Y46482D01*
Y46736D01*
X231394Y46990D01*
X230886D01*
X230632Y46736D01*
X242316Y47244D02*
Y45974D01*
X242570Y45720D01*
X243078D01*
X243332Y45974D01*
Y47244D01*
X243840Y45720D02*
X244348D01*
X244094D01*
Y47244D01*
X243840Y46990D01*
X274751Y54965D02*
X274498Y55219D01*
X273990D01*
X273736Y54965D01*
Y54711D01*
X273990Y54457D01*
X274498D01*
X274751Y54203D01*
Y53950D01*
X274498Y53696D01*
X273990D01*
X273736Y53950D01*
X275259Y55219D02*
Y53696D01*
X275767Y54203D01*
X276275Y53696D01*
Y55219D01*
X276783Y53696D02*
X277291D01*
X277037D01*
Y55219D01*
X276783Y54965D01*
X110490Y35814D02*
Y37338D01*
X111252D01*
X111506Y37084D01*
Y36576D01*
X111252Y36322D01*
X110490D01*
X110998D02*
X111506Y35814D01*
X112014Y37084D02*
X112268Y37338D01*
X112776D01*
X113030Y37084D01*
Y36830D01*
X112776Y36576D01*
X113030Y36322D01*
Y36068D01*
X112776Y35814D01*
X112268D01*
X112014Y36068D01*
Y36322D01*
X112268Y36576D01*
X112014Y36830D01*
Y37084D01*
X112268Y36576D02*
X112776D01*
X121920Y55118D02*
Y56642D01*
X122682D01*
X122936Y56388D01*
Y55880D01*
X122682Y55626D01*
X121920D01*
X122428D02*
X122936Y55118D01*
X123444Y56642D02*
X124460D01*
Y56388D01*
X123444Y55372D01*
Y55118D01*
X133350Y35814D02*
Y37338D01*
X134112D01*
X134366Y37084D01*
Y36576D01*
X134112Y36322D01*
X133350D01*
X133858D02*
X134366Y35814D01*
X135890Y37338D02*
X135382Y37084D01*
X134874Y36576D01*
Y36068D01*
X135128Y35814D01*
X135636D01*
X135890Y36068D01*
Y36322D01*
X135636Y36576D01*
X134874D01*
X144780Y55118D02*
Y56642D01*
X145542D01*
X145796Y56388D01*
Y55880D01*
X145542Y55626D01*
X144780D01*
X145288D02*
X145796Y55118D01*
X147320Y56642D02*
X146304D01*
Y55880D01*
X146812Y56134D01*
X147066D01*
X147320Y55880D01*
Y55372D01*
X147066Y55118D01*
X146558D01*
X146304Y55372D01*
X156210Y35814D02*
Y37338D01*
X156972D01*
X157226Y37084D01*
Y36576D01*
X156972Y36322D01*
X156210D01*
X156718D02*
X157226Y35814D01*
X158496D02*
Y37338D01*
X157734Y36576D01*
X158750D01*
X167640Y55118D02*
Y56642D01*
X168402D01*
X168656Y56388D01*
Y55880D01*
X168402Y55626D01*
X167640D01*
X168148D02*
X168656Y55118D01*
X169164Y56388D02*
X169418Y56642D01*
X169926D01*
X170180Y56388D01*
Y56134D01*
X169926Y55880D01*
X169672D01*
X169926D01*
X170180Y55626D01*
Y55372D01*
X169926Y55118D01*
X169418D01*
X169164Y55372D01*
X179070Y35814D02*
Y37338D01*
X179832D01*
X180086Y37084D01*
Y36576D01*
X179832Y36322D01*
X179070D01*
X179578D02*
X180086Y35814D01*
X181610D02*
X180594D01*
X181610Y36830D01*
Y37084D01*
X181356Y37338D01*
X180848D01*
X180594Y37084D01*
X190754Y55118D02*
Y56642D01*
X191516D01*
X191770Y56388D01*
Y55880D01*
X191516Y55626D01*
X190754D01*
X191262D02*
X191770Y55118D01*
X192278D02*
X192786D01*
X192532D01*
Y56642D01*
X192278Y56388D01*
X243841Y33782D02*
Y35306D01*
X244603D01*
X244857Y35052D01*
Y34544D01*
X244603Y34290D01*
X243841D01*
X246126Y35306D02*
X245619D01*
X245365Y35052D01*
Y34036D01*
X245619Y33782D01*
X246126D01*
X246380Y34036D01*
Y35052D01*
X246126Y35306D01*
X246888D02*
X247904D01*
X247396D01*
Y33782D01*
X249935Y35306D02*
Y33782D01*
X250697D01*
X250951Y34036D01*
Y34290D01*
X250697Y34544D01*
X249935D01*
X250697D01*
X250951Y34798D01*
Y35052D01*
X250697Y35306D01*
X249935D01*
X243841Y57150D02*
Y58674D01*
X244603D01*
X244857Y58420D01*
Y57912D01*
X244603Y57658D01*
X243841D01*
X246126Y58674D02*
X245619D01*
X245365Y58420D01*
Y57404D01*
X245619Y57150D01*
X246126D01*
X246380Y57404D01*
Y58420D01*
X246126Y58674D01*
X246888D02*
X247904D01*
X247396D01*
Y57150D01*
X249935D02*
Y58166D01*
X250443Y58674D01*
X250951Y58166D01*
Y57150D01*
Y57912D01*
X249935D01*
X105461Y51536D02*
Y50013D01*
X106223D01*
X106476Y50267D01*
Y51282D01*
X106223Y51536D01*
X105461D01*
X106984Y51282D02*
X107238Y51536D01*
X107746D01*
X108000Y51282D01*
Y51028D01*
X107746Y50774D01*
X108000Y50520D01*
Y50267D01*
X107746Y50013D01*
X107238D01*
X106984Y50267D01*
Y50520D01*
X107238Y50774D01*
X106984Y51028D01*
Y51282D01*
X107238Y50774D02*
X107746D01*
X116942Y51536D02*
Y50013D01*
X117703D01*
X117957Y50267D01*
Y51282D01*
X117703Y51536D01*
X116942D01*
X118465D02*
X119481D01*
Y51282D01*
X118465Y50267D01*
Y50013D01*
X128321Y51536D02*
Y50013D01*
X129083D01*
X129336Y50267D01*
Y51282D01*
X129083Y51536D01*
X128321D01*
X130860D02*
X130352Y51282D01*
X129844Y50774D01*
Y50267D01*
X130098Y50013D01*
X130606D01*
X130860Y50267D01*
Y50520D01*
X130606Y50774D01*
X129844D01*
X139751Y51536D02*
Y50013D01*
X140513D01*
X140766Y50267D01*
Y51282D01*
X140513Y51536D01*
X139751D01*
X142290D02*
X141274D01*
Y50774D01*
X141782Y51028D01*
X142036D01*
X142290Y50774D01*
Y50267D01*
X142036Y50013D01*
X141528D01*
X141274Y50267D01*
X151232Y51536D02*
Y50013D01*
X151993D01*
X152247Y50267D01*
Y51282D01*
X151993Y51536D01*
X151232D01*
X153517Y50013D02*
Y51536D01*
X152755Y50774D01*
X153771D01*
X162662Y51536D02*
Y50013D01*
X163423D01*
X163677Y50267D01*
Y51282D01*
X163423Y51536D01*
X162662D01*
X164185Y51282D02*
X164439Y51536D01*
X164947D01*
X165201Y51282D01*
Y51028D01*
X164947Y50774D01*
X164693D01*
X164947D01*
X165201Y50520D01*
Y50267D01*
X164947Y50013D01*
X164439D01*
X164185Y50267D01*
X174041Y51536D02*
Y50013D01*
X174803D01*
X175056Y50267D01*
Y51282D01*
X174803Y51536D01*
X174041D01*
X176580Y50013D02*
X175564D01*
X176580Y51028D01*
Y51282D01*
X176326Y51536D01*
X175818D01*
X175564Y51282D01*
X185471Y51536D02*
Y50013D01*
X186233D01*
X186486Y50267D01*
Y51282D01*
X186233Y51536D01*
X185471D01*
X186994Y50013D02*
X187502D01*
X187248D01*
Y51536D01*
X186994Y51282D01*
X267360Y43180D02*
X267106Y43434D01*
X266598D01*
X266344Y43180D01*
Y42164D01*
X266598Y41910D01*
X267106D01*
X267360Y42164D01*
X268630Y41910D02*
Y43434D01*
X267868Y42672D01*
X268884D01*
X267360Y49784D02*
X267106Y50038D01*
X266598D01*
X266344Y49784D01*
Y48768D01*
X266598Y48514D01*
X267106D01*
X267360Y48768D01*
X267868Y49784D02*
X268122Y50038D01*
X268630D01*
X268884Y49784D01*
Y49530D01*
X268630Y49276D01*
X268376D01*
X268630D01*
X268884Y49022D01*
Y48768D01*
X268630Y48514D01*
X268122D01*
X267868Y48768D01*
X396495Y51816D02*
Y50292D01*
X397256D01*
X397510Y50546D01*
Y50800D01*
X397256Y51054D01*
X396495D01*
X397256D01*
X397510Y51308D01*
Y51562D01*
X397256Y51816D01*
X396495D01*
X398018D02*
X399034D01*
X398526D01*
Y50292D01*
X399542Y51562D02*
X399796Y51816D01*
X400303D01*
X400557Y51562D01*
Y51308D01*
X400303Y51054D01*
X400049D01*
X400303D01*
X400557Y50800D01*
Y50546D01*
X400303Y50292D01*
X399796D01*
X399542Y50546D01*
X343155Y51816D02*
Y50292D01*
X343916D01*
X344170Y50546D01*
Y50800D01*
X343916Y51054D01*
X343155D01*
X343916D01*
X344170Y51308D01*
Y51562D01*
X343916Y51816D01*
X343155D01*
X344678D02*
X345694D01*
X345186D01*
Y50292D01*
X347217D02*
X346202D01*
X347217Y51308D01*
Y51562D01*
X346963Y51816D01*
X346456D01*
X346202Y51562D01*
X289561Y51816D02*
Y50292D01*
X290322D01*
X290576Y50546D01*
Y50800D01*
X290322Y51054D01*
X289561D01*
X290322D01*
X290576Y51308D01*
Y51562D01*
X290322Y51816D01*
X289561D01*
X291084D02*
X292100D01*
X291592D01*
Y50292D01*
X292608D02*
X293115D01*
X292862D01*
Y51816D01*
X292608Y51562D01*
X278053Y47371D02*
X277800Y47625D01*
X277292D01*
X277038Y47371D01*
Y46355D01*
X277292Y46101D01*
X277800D01*
X278053Y46355D01*
X278561Y46101D02*
X279069D01*
X278815D01*
Y47625D01*
X278561Y47371D01*
X218948Y41910D02*
X218694Y42164D01*
X218186D01*
X217932Y41910D01*
Y40894D01*
X218186Y40640D01*
X218694D01*
X218948Y40894D01*
X220472Y42164D02*
X219964Y41910D01*
X219456Y41402D01*
Y40894D01*
X219710Y40640D01*
X220218D01*
X220472Y40894D01*
Y41148D01*
X220218Y41402D01*
X219456D01*
X218948Y51816D02*
X218694Y52070D01*
X218186D01*
X217932Y51816D01*
Y50800D01*
X218186Y50546D01*
X218694D01*
X218948Y50800D01*
X220472Y52070D02*
X219456D01*
Y51308D01*
X219964Y51562D01*
X220218D01*
X220472Y51308D01*
Y50800D01*
X220218Y50546D01*
X219710D01*
X219456Y50800D01*
X267360Y56134D02*
X267106Y56388D01*
X266598D01*
X266344Y56134D01*
Y55118D01*
X266598Y54864D01*
X267106D01*
X267360Y55118D01*
X268884Y54864D02*
X267868D01*
X268884Y55880D01*
Y56134D01*
X268630Y56388D01*
X268122D01*
X267868Y56134D01*
D14*
X399370Y46482D02*
X400170D01*
X399770Y46082D02*
Y46882D01*
X346030Y46482D02*
X346830D01*
X346430Y46082D02*
Y46882D01*
X292692Y46482D02*
X293492D01*
X293092Y46082D02*
Y46882D01*
D15*
X219456Y37846D02*
X220472D01*
X219456Y36830D02*
Y38862D01*
X218948Y36830D02*
Y38862D01*
X217932Y37846D02*
X218948D01*
X219456Y54610D02*
X220472D01*
X219456Y53594D02*
Y55626D01*
X218948Y53594D02*
Y55626D01*
X217932Y54610D02*
X218948D01*
X266954Y52832D02*
X267970D01*
Y51816D02*
Y53848D01*
X268478Y51816D02*
Y53848D01*
Y52832D02*
X269494D01*
X268478Y46482D02*
X269494D01*
X268478Y45466D02*
Y47498D01*
X267970Y45466D02*
Y47498D01*
X266954Y46482D02*
X267970D01*
X268478Y39878D02*
X269494D01*
X268478Y38862D02*
Y40894D01*
X267970Y38862D02*
Y40894D01*
X266954Y39878D02*
X267970D01*
D16*
X188341Y54610D02*
Y55880D01*
Y54610D02*
X195072D01*
Y57150D01*
X188341D02*
X195072D01*
X188341Y55880D02*
Y57150D01*
X195072Y55880D02*
X195580D01*
X187960D02*
X188341D01*
X176911Y35306D02*
Y36576D01*
Y35306D02*
X183642D01*
Y37846D01*
X176911D02*
X183642D01*
X176911Y36576D02*
Y37846D01*
X183642Y36576D02*
X184150D01*
X176530D02*
X176911D01*
X154051Y35306D02*
Y36576D01*
Y35306D02*
X160782D01*
Y37846D01*
X154051D02*
X160782D01*
X154051Y36576D02*
Y37846D01*
X160782Y36576D02*
X161290D01*
X153670D02*
X154051D01*
X165481Y54610D02*
Y55880D01*
Y54610D02*
X172212D01*
Y57150D01*
X165481D02*
X172212D01*
X165481Y55880D02*
Y57150D01*
X172212Y55880D02*
X172720D01*
X165100D02*
X165481D01*
X142621Y54610D02*
Y55880D01*
Y54610D02*
X149352D01*
Y57150D01*
X142621D02*
X149352D01*
X142621Y55880D02*
Y57150D01*
X149352Y55880D02*
X149860D01*
X142240D02*
X142621D01*
X119761Y54610D02*
Y55880D01*
Y54610D02*
X126492D01*
Y57150D01*
X119761D02*
X126492D01*
X119761Y55880D02*
Y57150D01*
X126492Y55880D02*
X127000D01*
X119380D02*
X119761D01*
X131191Y35306D02*
Y36576D01*
Y35306D02*
X137922D01*
Y37846D01*
X131191D02*
X137922D01*
X131191Y36576D02*
Y37846D01*
X137922Y36576D02*
X138430D01*
X130810D02*
X131191D01*
X108331Y35306D02*
Y36576D01*
Y35306D02*
X115062D01*
Y37846D01*
X108331D02*
X115062D01*
X108331Y36576D02*
Y37846D01*
X115062Y36576D02*
X115570D01*
X107950D02*
X108331D01*
M02*
