G04*
G04 #@! TF.GenerationSoftware,Altium Limited,CircuitMaker,2.3.0 (2.3.0.3)*
G04*
G04 Layer_Physical_Order=2*
G04 Layer_Color=11436288*
%FSLAX25Y25*%
%MOIN*%
G70*
G04*
G04 #@! TF.SameCoordinates,7AE3FD1B-1B4B-44F7-B449-01DE26A486A1*
G04*
G04*
G04 #@! TF.FilePolarity,Positive*
G04*
G01*
G75*
%ADD16C,0.02000*%
%ADD17C,0.01200*%
%ADD18C,0.15000*%
%ADD19R,0.06102X0.06102*%
%ADD20C,0.06102*%
%ADD21C,0.08000*%
%ADD22C,0.06000*%
%ADD23C,0.06693*%
%ADD24C,0.05905*%
%ADD25R,0.05905X0.05905*%
%ADD26C,0.15748*%
%ADD27C,0.23622*%
%ADD28C,0.05512*%
%ADD29R,0.05905X0.05905*%
%ADD30C,0.06299*%
%ADD31O,0.07874X0.03937*%
%ADD32O,0.07874X0.03937*%
G36*
X1115000Y100000D02*
X225000D01*
Y500000D01*
X1115000D01*
Y100000D01*
D02*
G37*
%LPC*%
G36*
X1097837Y490500D02*
X1097500D01*
Y482500D01*
X1105500D01*
Y482837D01*
X1105173Y484479D01*
X1104533Y486026D01*
X1103602Y487418D01*
X1102418Y488602D01*
X1101026Y489533D01*
X1099479Y490173D01*
X1097837Y490500D01*
D02*
G37*
G36*
X1096500D02*
X1096163D01*
X1094521Y490173D01*
X1092974Y489533D01*
X1091582Y488602D01*
X1090398Y487418D01*
X1089467Y486026D01*
X1088827Y484479D01*
X1088500Y482837D01*
Y482500D01*
X1096500D01*
Y490500D01*
D02*
G37*
G36*
X243837D02*
X243500D01*
Y482500D01*
X251500D01*
Y482837D01*
X251173Y484479D01*
X250533Y486026D01*
X249602Y487418D01*
X248418Y488602D01*
X247026Y489533D01*
X245479Y490173D01*
X243837Y490500D01*
D02*
G37*
G36*
X242500D02*
X242163D01*
X240521Y490173D01*
X238974Y489533D01*
X237582Y488602D01*
X236398Y487418D01*
X235467Y486026D01*
X234827Y484479D01*
X234500Y482837D01*
Y482500D01*
X242500D01*
Y490500D01*
D02*
G37*
G36*
X1105500Y481500D02*
X1097500D01*
Y473500D01*
X1097837D01*
X1099479Y473827D01*
X1101026Y474467D01*
X1102418Y475398D01*
X1103602Y476582D01*
X1104533Y477974D01*
X1105173Y479521D01*
X1105500Y481163D01*
Y481500D01*
D02*
G37*
G36*
X1096500D02*
X1088500D01*
Y481163D01*
X1088827Y479521D01*
X1089467Y477974D01*
X1090398Y476582D01*
X1091582Y475398D01*
X1092974Y474467D01*
X1094521Y473827D01*
X1096163Y473500D01*
X1096500D01*
Y481500D01*
D02*
G37*
G36*
X251500D02*
X243500D01*
Y473500D01*
X243837D01*
X245479Y473827D01*
X247026Y474467D01*
X248418Y475398D01*
X249602Y476582D01*
X250533Y477974D01*
X251173Y479521D01*
X251500Y481163D01*
Y481500D01*
D02*
G37*
G36*
X242500D02*
X234500D01*
Y481163D01*
X234827Y479521D01*
X235467Y477974D01*
X236398Y476582D01*
X237582Y475398D01*
X238974Y474467D01*
X240521Y473827D01*
X242163Y473500D01*
X242500D01*
Y481500D01*
D02*
G37*
G36*
X655658Y477000D02*
X654342D01*
X653070Y476659D01*
X651930Y476001D01*
X650999Y475070D01*
X650341Y473930D01*
X650261Y473631D01*
X644000D01*
X643376Y473507D01*
X642846Y473153D01*
X614247Y444554D01*
X613494Y444756D01*
X612505D01*
X611550Y444500D01*
X610694Y444005D01*
X609995Y443306D01*
X609605Y442631D01*
X592676D01*
X588631Y446676D01*
Y460949D01*
X591051D01*
Y469051D01*
X582949D01*
Y460949D01*
X585369D01*
Y446000D01*
X585493Y445376D01*
X585847Y444846D01*
X590846Y439847D01*
X591376Y439493D01*
X592000Y439369D01*
X609605D01*
X609995Y438694D01*
X610694Y437994D01*
X611550Y437500D01*
X612505Y437244D01*
X613494D01*
X614450Y437500D01*
X615306Y437994D01*
X616006Y438694D01*
X616500Y439550D01*
X616756Y440506D01*
Y441495D01*
X616554Y442247D01*
X644676Y470369D01*
X650261D01*
X650341Y470070D01*
X650999Y468930D01*
X651930Y467999D01*
X653070Y467341D01*
X654342Y467000D01*
X655658D01*
X656930Y467341D01*
X658070Y467999D01*
X659001Y468930D01*
X659659Y470070D01*
X660000Y471342D01*
Y472658D01*
X659659Y473930D01*
X659001Y475070D01*
X658070Y476001D01*
X656930Y476659D01*
X655658Y477000D01*
D02*
G37*
G36*
X587533Y479051D02*
X586467D01*
X585436Y478775D01*
X584513Y478242D01*
X583758Y477488D01*
X583225Y476564D01*
X582949Y475533D01*
Y474467D01*
X583225Y473436D01*
X583758Y472512D01*
X584513Y471758D01*
X585436Y471225D01*
X586467Y470949D01*
X587533D01*
X588033Y471083D01*
X588558Y470558D01*
X589220Y470116D01*
X590000Y469961D01*
X610404D01*
X610999Y468930D01*
X611930Y467999D01*
X613070Y467341D01*
X614342Y467000D01*
X615658D01*
X616930Y467341D01*
X618070Y467999D01*
X619001Y468930D01*
X619659Y470070D01*
X620000Y471342D01*
Y472658D01*
X619659Y473930D01*
X619001Y475070D01*
X618070Y476001D01*
X616930Y476659D01*
X615658Y477000D01*
X614342D01*
X613070Y476659D01*
X611930Y476001D01*
X610999Y475070D01*
X610404Y474039D01*
X591347D01*
X591043Y474436D01*
X591051Y474467D01*
Y475533D01*
X590775Y476564D01*
X590242Y477488D01*
X589488Y478242D01*
X588564Y478775D01*
X587533Y479051D01*
D02*
G37*
G36*
X1017012Y479720D02*
X1014996D01*
X1013004Y479405D01*
X1011086Y478782D01*
X1009290Y477866D01*
X1007658Y476681D01*
X1006232Y475255D01*
X1005047Y473624D01*
X1004132Y471827D01*
X1003508Y469909D01*
X1003193Y467918D01*
Y465901D01*
X1003508Y463909D01*
X1004132Y461992D01*
X1005047Y460195D01*
X1006232Y458564D01*
X1007658Y457138D01*
X1009290Y455952D01*
X1011086Y455037D01*
X1013004Y454414D01*
X1014996Y454098D01*
X1017012D01*
X1019004Y454414D01*
X1020922Y455037D01*
X1022718Y455952D01*
X1024350Y457138D01*
X1025776Y458564D01*
X1026961Y460195D01*
X1027876Y461992D01*
X1028500Y463909D01*
X1028815Y465901D01*
Y467918D01*
X1028500Y469909D01*
X1027876Y471827D01*
X1026961Y473624D01*
X1025776Y475255D01*
X1024350Y476681D01*
X1022718Y477866D01*
X1020922Y478782D01*
X1019004Y479405D01*
X1017012Y479720D01*
D02*
G37*
G36*
X929492D02*
X927476D01*
X925484Y479405D01*
X923567Y478782D01*
X921770Y477866D01*
X920138Y476681D01*
X918713Y475255D01*
X917527Y473624D01*
X916612Y471827D01*
X915989Y469909D01*
X915673Y467918D01*
Y465901D01*
X915989Y463909D01*
X916612Y461992D01*
X917527Y460195D01*
X918713Y458564D01*
X920138Y457138D01*
X921770Y455952D01*
X923567Y455037D01*
X925484Y454414D01*
X927476Y454098D01*
X929492D01*
X931484Y454414D01*
X933402Y455037D01*
X935199Y455952D01*
X936830Y457138D01*
X938256Y458564D01*
X939441Y460195D01*
X940357Y461992D01*
X940980Y463909D01*
X941295Y465901D01*
Y467918D01*
X940980Y469909D01*
X940357Y471827D01*
X939441Y473624D01*
X938256Y475255D01*
X936830Y476681D01*
X935199Y477866D01*
X933402Y478782D01*
X931484Y479405D01*
X929492Y479720D01*
D02*
G37*
G36*
X763546Y451150D02*
X763500D01*
Y447500D01*
X767150D01*
Y447546D01*
X766867Y448602D01*
X766321Y449548D01*
X765548Y450320D01*
X764602Y450867D01*
X763546Y451150D01*
D02*
G37*
G36*
X762500D02*
X762454D01*
X761398Y450867D01*
X760452Y450320D01*
X759680Y449548D01*
X759133Y448602D01*
X758850Y447546D01*
Y447500D01*
X762500D01*
Y451150D01*
D02*
G37*
G36*
X1076878Y453874D02*
X1076504D01*
Y445500D01*
X1084878D01*
Y445874D01*
X1084537Y447588D01*
X1083868Y449203D01*
X1082897Y450657D01*
X1081661Y451893D01*
X1080207Y452864D01*
X1078592Y453533D01*
X1076878Y453874D01*
D02*
G37*
G36*
X1075504D02*
X1075130D01*
X1073416Y453533D01*
X1071801Y452864D01*
X1070347Y451893D01*
X1069111Y450657D01*
X1068140Y449203D01*
X1067471Y447588D01*
X1067130Y445874D01*
Y445500D01*
X1075504D01*
Y453874D01*
D02*
G37*
G36*
X767150Y446500D02*
X763500D01*
Y442850D01*
X763546D01*
X764602Y443133D01*
X765548Y443680D01*
X766321Y444452D01*
X766867Y445398D01*
X767150Y446454D01*
Y446500D01*
D02*
G37*
G36*
X762500D02*
X758850D01*
Y446454D01*
X759133Y445398D01*
X759680Y444452D01*
X760452Y443680D01*
X761398Y443133D01*
X762454Y442850D01*
X762500D01*
Y446500D01*
D02*
G37*
G36*
X753546Y451150D02*
X752454D01*
X751398Y450867D01*
X750452Y450320D01*
X749680Y449548D01*
X749133Y448602D01*
X748850Y447546D01*
Y446454D01*
X749133Y445398D01*
X749680Y444452D01*
X750452Y443680D01*
X751398Y443133D01*
X752454Y442850D01*
X753546D01*
X754602Y443133D01*
X755548Y443680D01*
X756320Y444452D01*
X756867Y445398D01*
X757150Y446454D01*
Y447546D01*
X756867Y448602D01*
X756320Y449548D01*
X755548Y450320D01*
X754602Y450867D01*
X753546Y451150D01*
D02*
G37*
G36*
X710572Y451346D02*
X709428D01*
X708322Y451050D01*
X707331Y450478D01*
X706522Y449669D01*
X705950Y448678D01*
X705653Y447572D01*
Y446428D01*
X705950Y445322D01*
X706522Y444331D01*
X707331Y443522D01*
X708322Y442950D01*
X709428Y442654D01*
X710572D01*
X711678Y442950D01*
X712669Y443522D01*
X713478Y444331D01*
X714050Y445322D01*
X714347Y446428D01*
Y447572D01*
X714050Y448678D01*
X713478Y449669D01*
X712669Y450478D01*
X711678Y451050D01*
X710572Y451346D01*
D02*
G37*
G36*
X633500Y444754D02*
Y441500D01*
X636754D01*
X636500Y442450D01*
X636005Y443306D01*
X635306Y444005D01*
X634450Y444500D01*
X633500Y444754D01*
D02*
G37*
G36*
X632500D02*
X631550Y444500D01*
X630694Y444005D01*
X629994Y443306D01*
X629500Y442450D01*
X629246Y441500D01*
X632500D01*
Y444754D01*
D02*
G37*
G36*
X636754Y440500D02*
X633500D01*
Y437246D01*
X634450Y437500D01*
X635306Y437994D01*
X636005Y438694D01*
X636500Y439550D01*
X636754Y440500D01*
D02*
G37*
G36*
X632500D02*
X629246D01*
X629500Y439550D01*
X629994Y438694D01*
X630694Y437994D01*
X631550Y437500D01*
X632500Y437246D01*
Y440500D01*
D02*
G37*
G36*
X623494Y444756D02*
X622506D01*
X621550Y444500D01*
X620694Y444005D01*
X619994Y443306D01*
X619500Y442450D01*
X619244Y441495D01*
Y440506D01*
X619500Y439550D01*
X619994Y438694D01*
X620694Y437994D01*
X621550Y437500D01*
X622506Y437244D01*
X623494D01*
X624450Y437500D01*
X625306Y437994D01*
X626006Y438694D01*
X626500Y439550D01*
X626756Y440506D01*
Y441495D01*
X626500Y442450D01*
X626006Y443306D01*
X625306Y444005D01*
X624450Y444500D01*
X623494Y444756D01*
D02*
G37*
G36*
X1084878Y444500D02*
X1076504D01*
Y436126D01*
X1076878D01*
X1078592Y436467D01*
X1080207Y437136D01*
X1081661Y438107D01*
X1082897Y439343D01*
X1083868Y440797D01*
X1084537Y442412D01*
X1084878Y444126D01*
Y444500D01*
D02*
G37*
G36*
X1075504D02*
X1067130D01*
Y444126D01*
X1067471Y442412D01*
X1068140Y440797D01*
X1069111Y439343D01*
X1070347Y438107D01*
X1071801Y437136D01*
X1073416Y436467D01*
X1075130Y436126D01*
X1075504D01*
Y444500D01*
D02*
G37*
G36*
X636572Y419347D02*
X635428D01*
X634322Y419050D01*
X633331Y418478D01*
X632522Y417669D01*
X631950Y416678D01*
X631937Y416631D01*
X613063D01*
X613050Y416678D01*
X612478Y417669D01*
X611669Y418478D01*
X610678Y419050D01*
X609572Y419347D01*
X608428D01*
X607322Y419050D01*
X606331Y418478D01*
X605522Y417669D01*
X604950Y416678D01*
X604654Y415572D01*
Y414428D01*
X604950Y413322D01*
X605522Y412331D01*
X606331Y411522D01*
X607322Y410950D01*
X608428Y410653D01*
X609572D01*
X610678Y410950D01*
X611669Y411522D01*
X612478Y412331D01*
X613050Y413322D01*
X613063Y413369D01*
X631937D01*
X631950Y413322D01*
X632522Y412331D01*
X633331Y411522D01*
X634322Y410950D01*
X635428Y410653D01*
X636572D01*
X637678Y410950D01*
X638669Y411522D01*
X639478Y412331D01*
X640050Y413322D01*
X640346Y414428D01*
Y415572D01*
X640050Y416678D01*
X639478Y417669D01*
X638669Y418478D01*
X637678Y419050D01*
X636572Y419347D01*
D02*
G37*
G36*
X770527Y420000D02*
X770500D01*
Y416500D01*
X774000D01*
Y416527D01*
X773727Y417544D01*
X773201Y418456D01*
X772456Y419201D01*
X771544Y419727D01*
X770527Y420000D01*
D02*
G37*
G36*
X800968Y418994D02*
X799500D01*
Y416500D01*
X803897D01*
X803861Y416775D01*
X803561Y417497D01*
X803086Y418117D01*
X802466Y418593D01*
X801744Y418892D01*
X800968Y418994D01*
D02*
G37*
G36*
X798500D02*
X797031D01*
X796256Y418892D01*
X795534Y418593D01*
X794914Y418117D01*
X794439Y417497D01*
X794139Y416775D01*
X794103Y416500D01*
X798500D01*
Y418994D01*
D02*
G37*
G36*
X769500Y420000D02*
X769473D01*
X768456Y419727D01*
X767544Y419201D01*
X766799Y418456D01*
X766273Y417544D01*
X766000Y416527D01*
Y416500D01*
X769500D01*
Y420000D01*
D02*
G37*
G36*
X676572Y419347D02*
X676500D01*
Y415500D01*
X680346D01*
Y415572D01*
X680050Y416678D01*
X679478Y417669D01*
X678669Y418478D01*
X677678Y419050D01*
X676572Y419347D01*
D02*
G37*
G36*
X675500D02*
X675428D01*
X674322Y419050D01*
X673331Y418478D01*
X672522Y417669D01*
X671950Y416678D01*
X671654Y415572D01*
Y415500D01*
X675500D01*
Y419347D01*
D02*
G37*
G36*
X743953Y418890D02*
X740500D01*
Y415437D01*
X743953D01*
Y418890D01*
D02*
G37*
G36*
X739500D02*
X736047D01*
Y415437D01*
X739500D01*
Y418890D01*
D02*
G37*
G36*
X774000Y415500D02*
X770500D01*
Y412000D01*
X770527D01*
X771544Y412273D01*
X772456Y412799D01*
X773201Y413544D01*
X773727Y414456D01*
X774000Y415473D01*
Y415500D01*
D02*
G37*
G36*
X769500D02*
X766000D01*
Y415473D01*
X766273Y414456D01*
X766799Y413544D01*
X767544Y412799D01*
X768456Y412273D01*
X769473Y412000D01*
X769500D01*
Y415500D01*
D02*
G37*
G36*
X680346Y414500D02*
X676500D01*
Y410653D01*
X676572D01*
X677678Y410950D01*
X678669Y411522D01*
X679478Y412331D01*
X680050Y413322D01*
X680346Y414428D01*
Y414500D01*
D02*
G37*
G36*
X675500D02*
X671654D01*
Y414428D01*
X671950Y413322D01*
X672522Y412331D01*
X673331Y411522D01*
X674322Y410950D01*
X675428Y410653D01*
X675500D01*
Y414500D01*
D02*
G37*
G36*
X743953Y414437D02*
X740000D01*
X736047D01*
Y410984D01*
X737886D01*
X738020Y410484D01*
X737573Y410226D01*
X736837Y409490D01*
X736317Y408589D01*
X736047Y407583D01*
Y406543D01*
X736317Y405537D01*
X736837Y404636D01*
X737573Y403900D01*
X738474Y403380D01*
X739480Y403110D01*
X740520D01*
X741526Y403380D01*
X742427Y403900D01*
X743163Y404636D01*
X743683Y405537D01*
X743953Y406543D01*
Y407583D01*
X743683Y408589D01*
X743163Y409490D01*
X742427Y410226D01*
X741980Y410484D01*
X742114Y410984D01*
X743953D01*
Y414437D01*
D02*
G37*
G36*
X803897Y415500D02*
X794103D01*
X794139Y415225D01*
X794439Y414503D01*
X794914Y413883D01*
X795087Y413750D01*
Y413250D01*
X794914Y413117D01*
X794439Y412497D01*
X794139Y411775D01*
X794037Y411000D01*
X794139Y410225D01*
X794439Y409503D01*
X794914Y408883D01*
X795087Y408750D01*
Y408250D01*
X794914Y408117D01*
X794439Y407497D01*
X794139Y406775D01*
X794037Y406000D01*
X794139Y405225D01*
X794439Y404503D01*
X794914Y403883D01*
X795534Y403407D01*
X796257Y403108D01*
X797031Y403006D01*
X800968D01*
X801743Y403108D01*
X802466Y403407D01*
X803086Y403883D01*
X803561Y404503D01*
X803861Y405225D01*
X803963Y406000D01*
X803861Y406775D01*
X803561Y407497D01*
X803086Y408117D01*
X802913Y408250D01*
Y408750D01*
X803086Y408883D01*
X803561Y409503D01*
X803861Y410225D01*
X803963Y411000D01*
X803861Y411775D01*
X803561Y412497D01*
X803086Y413117D01*
X802913Y413250D01*
Y413750D01*
X803086Y413883D01*
X803561Y414503D01*
X803861Y415225D01*
X803897Y415500D01*
D02*
G37*
G36*
X569572Y419347D02*
X568428D01*
X567322Y419050D01*
X566331Y418478D01*
X565522Y417669D01*
X564950Y416678D01*
X564653Y415572D01*
Y414428D01*
X564950Y413322D01*
X565522Y412331D01*
X566331Y411522D01*
X566961Y411159D01*
Y396000D01*
X567116Y395220D01*
X567558Y394558D01*
X573558Y388558D01*
X574220Y388116D01*
X575000Y387961D01*
X592739D01*
X592963Y387573D01*
X593699Y386837D01*
X594600Y386317D01*
X595606Y386047D01*
X596646D01*
X597652Y386317D01*
X598553Y386837D01*
X599289Y387573D01*
X599547Y388020D01*
X600047Y387886D01*
Y386047D01*
X603500D01*
Y390000D01*
Y393953D01*
X600047D01*
Y392114D01*
X599547Y391980D01*
X599289Y392427D01*
X598553Y393163D01*
X598165Y393387D01*
Y399155D01*
X603971Y404961D01*
X706158D01*
X706522Y404331D01*
X707331Y403522D01*
X708322Y402950D01*
X709428Y402654D01*
X710572D01*
X711678Y402950D01*
X712669Y403522D01*
X713478Y404331D01*
X714050Y405322D01*
X714347Y406428D01*
Y407572D01*
X714050Y408678D01*
X713478Y409669D01*
X712669Y410478D01*
X711678Y411050D01*
X710572Y411346D01*
X709428D01*
X708322Y411050D01*
X707331Y410478D01*
X706522Y409669D01*
X706158Y409039D01*
X603126D01*
X602346Y408884D01*
X601684Y408442D01*
X601684Y408442D01*
X594684Y401442D01*
X594242Y400780D01*
X594087Y400000D01*
Y393387D01*
X593699Y393163D01*
X592963Y392427D01*
X592739Y392039D01*
X575845D01*
X571039Y396845D01*
Y411159D01*
X571669Y411522D01*
X572478Y412331D01*
X573050Y413322D01*
X573347Y414428D01*
Y415572D01*
X573050Y416678D01*
X572478Y417669D01*
X571669Y418478D01*
X570678Y419050D01*
X569572Y419347D01*
D02*
G37*
G36*
X770527Y410000D02*
X769473D01*
X768456Y409727D01*
X767544Y409201D01*
X766799Y408456D01*
X766273Y407544D01*
X766000Y406527D01*
Y405473D01*
X766273Y404456D01*
X766799Y403544D01*
X767544Y402799D01*
X768456Y402273D01*
X769473Y402000D01*
X770527D01*
X771544Y402273D01*
X772456Y402799D01*
X773201Y403544D01*
X773727Y404456D01*
X774000Y405473D01*
Y406527D01*
X773727Y407544D01*
X773201Y408456D01*
X772456Y409201D01*
X771544Y409727D01*
X770527Y410000D01*
D02*
G37*
G36*
X834520Y408795D02*
X833480D01*
X832474Y408526D01*
X831573Y408006D01*
X830837Y407270D01*
X830317Y406368D01*
X830047Y405363D01*
Y404322D01*
X830317Y403317D01*
X830837Y402416D01*
X831573Y401680D01*
X832474Y401159D01*
X833480Y400890D01*
X834520D01*
X835526Y401159D01*
X836427Y401680D01*
X837163Y402416D01*
X837683Y403317D01*
X837953Y404322D01*
Y405363D01*
X837683Y406368D01*
X837163Y407270D01*
X836427Y408006D01*
X835526Y408526D01*
X834520Y408795D01*
D02*
G37*
G36*
Y398953D02*
X833480D01*
X832474Y398683D01*
X831573Y398163D01*
X830837Y397427D01*
X830317Y396526D01*
X830047Y395520D01*
Y394480D01*
X830317Y393474D01*
X830837Y392573D01*
X831573Y391837D01*
X832474Y391317D01*
X833480Y391047D01*
X834520D01*
X835526Y391317D01*
X836427Y391837D01*
X837163Y392573D01*
X837683Y393474D01*
X837953Y394480D01*
Y395520D01*
X837683Y396526D01*
X837163Y397427D01*
X836427Y398163D01*
X835526Y398683D01*
X834520Y398953D01*
D02*
G37*
G36*
X607953Y393953D02*
X604500D01*
Y390500D01*
X607953D01*
Y393953D01*
D02*
G37*
G36*
X1076878Y403874D02*
X1075130D01*
X1073416Y403533D01*
X1071801Y402864D01*
X1070347Y401893D01*
X1069111Y400657D01*
X1068140Y399203D01*
X1067471Y397588D01*
X1067130Y395874D01*
Y394126D01*
X1067471Y392411D01*
X1068140Y390797D01*
X1069111Y389343D01*
X1070347Y388107D01*
X1071801Y387136D01*
X1073416Y386467D01*
X1075130Y386126D01*
X1076878D01*
X1078592Y386467D01*
X1080207Y387136D01*
X1081661Y388107D01*
X1082897Y389343D01*
X1083868Y390797D01*
X1084537Y392411D01*
X1084878Y394126D01*
Y395874D01*
X1084537Y397588D01*
X1083868Y399203D01*
X1082897Y400657D01*
X1081661Y401893D01*
X1080207Y402864D01*
X1078592Y403533D01*
X1076878Y403874D01*
D02*
G37*
G36*
X607953Y389500D02*
X604500D01*
Y386047D01*
X607953D01*
Y389500D01*
D02*
G37*
G36*
X639953Y397890D02*
X632047D01*
Y389984D01*
X633886D01*
X634020Y389484D01*
X633573Y389226D01*
X632837Y388490D01*
X632317Y387589D01*
X632047Y386583D01*
Y385543D01*
X632317Y384537D01*
X632837Y383636D01*
X633573Y382900D01*
X634474Y382380D01*
X635480Y382110D01*
X636520D01*
X637526Y382380D01*
X638427Y382900D01*
X639163Y383636D01*
X639683Y384537D01*
X639953Y385543D01*
Y386583D01*
X639683Y387589D01*
X639163Y388490D01*
X638427Y389226D01*
X637980Y389484D01*
X638114Y389984D01*
X639953D01*
Y397890D01*
D02*
G37*
G36*
X837953Y389110D02*
X830047D01*
Y381205D01*
X837953D01*
Y389110D01*
D02*
G37*
G36*
X800520Y388890D02*
X799480D01*
X798474Y388620D01*
X797573Y388100D01*
X796837Y387364D01*
X796317Y386463D01*
X796047Y385457D01*
Y384417D01*
X796317Y383411D01*
X796837Y382510D01*
X797573Y381774D01*
X798020Y381516D01*
X797886Y381016D01*
X796047D01*
Y377563D01*
X800000D01*
X803953D01*
Y381016D01*
X802114D01*
X801980Y381516D01*
X802427Y381774D01*
X803163Y382510D01*
X803683Y383411D01*
X803953Y384417D01*
Y385457D01*
X803683Y386463D01*
X803163Y387364D01*
X802427Y388100D01*
X801526Y388620D01*
X800520Y388890D01*
D02*
G37*
G36*
X803953Y376563D02*
X800500D01*
Y373110D01*
X803953D01*
Y376563D01*
D02*
G37*
G36*
X799500D02*
X796047D01*
Y373110D01*
X799500D01*
Y376563D01*
D02*
G37*
G36*
X1017012Y385902D02*
X1014996D01*
X1013004Y385586D01*
X1011086Y384963D01*
X1009290Y384048D01*
X1007658Y382862D01*
X1006232Y381436D01*
X1005047Y379805D01*
X1004132Y378008D01*
X1003508Y376091D01*
X1003193Y374099D01*
Y372082D01*
X1003508Y370091D01*
X1004132Y368173D01*
X1005047Y366376D01*
X1006232Y364745D01*
X1007658Y363319D01*
X1009290Y362134D01*
X1011086Y361218D01*
X1013004Y360595D01*
X1014996Y360280D01*
X1017012D01*
X1019004Y360595D01*
X1020922Y361218D01*
X1022718Y362134D01*
X1024350Y363319D01*
X1025776Y364745D01*
X1026961Y366376D01*
X1027876Y368173D01*
X1028500Y370091D01*
X1028815Y372082D01*
Y374099D01*
X1028500Y376091D01*
X1027876Y378008D01*
X1026961Y379805D01*
X1025776Y381436D01*
X1024350Y382862D01*
X1022718Y384048D01*
X1020922Y384963D01*
X1019004Y385586D01*
X1017012Y385902D01*
D02*
G37*
G36*
X929492D02*
X927476D01*
X925484Y385586D01*
X923567Y384963D01*
X921770Y384048D01*
X920138Y382862D01*
X918713Y381436D01*
X917527Y379805D01*
X916612Y378008D01*
X915989Y376091D01*
X915673Y374099D01*
Y372082D01*
X915989Y370091D01*
X916612Y368173D01*
X917527Y366376D01*
X918713Y364745D01*
X920138Y363319D01*
X921770Y362134D01*
X923567Y361218D01*
X925484Y360595D01*
X927476Y360280D01*
X929492D01*
X931484Y360595D01*
X933402Y361218D01*
X935199Y362134D01*
X936830Y363319D01*
X938256Y364745D01*
X939441Y366376D01*
X940357Y368173D01*
X940980Y370091D01*
X941295Y372082D01*
Y374099D01*
X940980Y376091D01*
X940357Y378008D01*
X939441Y379805D01*
X938256Y381436D01*
X936830Y382862D01*
X935199Y384048D01*
X933402Y384963D01*
X931484Y385586D01*
X929492Y385902D01*
D02*
G37*
G36*
X646953Y362953D02*
X643500D01*
Y359500D01*
X646953D01*
Y362953D01*
D02*
G37*
G36*
X642500D02*
X639047D01*
Y359500D01*
X642500D01*
Y362953D01*
D02*
G37*
G36*
X646953Y358500D02*
X643500D01*
Y355047D01*
X646953D01*
Y358500D01*
D02*
G37*
G36*
X642500D02*
X639047D01*
Y355047D01*
X642500D01*
Y358500D01*
D02*
G37*
G36*
X633520Y362953D02*
X632480D01*
X631474Y362683D01*
X630573Y362163D01*
X629837Y361427D01*
X629317Y360526D01*
X629047Y359520D01*
Y358480D01*
X629317Y357474D01*
X629837Y356573D01*
X630573Y355837D01*
X631474Y355317D01*
X632480Y355047D01*
X633520D01*
X634526Y355317D01*
X635427Y355837D01*
X636163Y356573D01*
X636683Y357474D01*
X636953Y358480D01*
Y359520D01*
X636683Y360526D01*
X636163Y361427D01*
X635427Y362163D01*
X634526Y362683D01*
X633520Y362953D01*
D02*
G37*
G36*
X623520D02*
X622480D01*
X621474Y362683D01*
X620573Y362163D01*
X619837Y361427D01*
X619317Y360526D01*
X619047Y359520D01*
Y358480D01*
X619317Y357474D01*
X619837Y356573D01*
X620573Y355837D01*
X621474Y355317D01*
X622480Y355047D01*
X623520D01*
X624526Y355317D01*
X625427Y355837D01*
X626163Y356573D01*
X626683Y357474D01*
X626953Y358480D01*
Y359520D01*
X626683Y360526D01*
X626163Y361427D01*
X625427Y362163D01*
X624526Y362683D01*
X623520Y362953D01*
D02*
G37*
G36*
X613520D02*
X612480D01*
X611474Y362683D01*
X610573Y362163D01*
X609837Y361427D01*
X609317Y360526D01*
X609047Y359520D01*
Y358480D01*
X609317Y357474D01*
X609837Y356573D01*
X610573Y355837D01*
X611474Y355317D01*
X612480Y355047D01*
X613520D01*
X614526Y355317D01*
X615427Y355837D01*
X616163Y356573D01*
X616683Y357474D01*
X616953Y358480D01*
Y359520D01*
X616683Y360526D01*
X616163Y361427D01*
X615427Y362163D01*
X614526Y362683D01*
X613520Y362953D01*
D02*
G37*
G36*
X643520Y332953D02*
X642480D01*
X641474Y332683D01*
X640573Y332163D01*
X639837Y331427D01*
X639317Y330526D01*
X639047Y329520D01*
Y328480D01*
X639317Y327474D01*
X639837Y326573D01*
X640573Y325837D01*
X641474Y325317D01*
X642480Y325047D01*
X643520D01*
X644526Y325317D01*
X645427Y325837D01*
X646163Y326573D01*
X646683Y327474D01*
X646953Y328480D01*
Y329520D01*
X646683Y330526D01*
X646163Y331427D01*
X645427Y332163D01*
X644526Y332683D01*
X643520Y332953D01*
D02*
G37*
G36*
X623520D02*
X622480D01*
X621474Y332683D01*
X620573Y332163D01*
X619837Y331427D01*
X619317Y330526D01*
X619047Y329520D01*
Y328480D01*
X619317Y327474D01*
X619837Y326573D01*
X620573Y325837D01*
X621474Y325317D01*
X622480Y325047D01*
X623520D01*
X624526Y325317D01*
X625427Y325837D01*
X626163Y326573D01*
X626683Y327474D01*
X626953Y328480D01*
Y329520D01*
X626683Y330526D01*
X626163Y331427D01*
X625427Y332163D01*
X624526Y332683D01*
X623520Y332953D01*
D02*
G37*
G36*
X613520D02*
X612480D01*
X611474Y332683D01*
X610573Y332163D01*
X609837Y331427D01*
X609317Y330526D01*
X609047Y329520D01*
Y328480D01*
X609317Y327474D01*
X609837Y326573D01*
X610573Y325837D01*
X611474Y325317D01*
X612480Y325047D01*
X613520D01*
X614526Y325317D01*
X615427Y325837D01*
X616163Y326573D01*
X616683Y327474D01*
X616953Y328480D01*
Y329520D01*
X616683Y330526D01*
X616163Y331427D01*
X615427Y332163D01*
X614526Y332683D01*
X613520Y332953D01*
D02*
G37*
G36*
X633520D02*
X632480D01*
X631474Y332683D01*
X630573Y332163D01*
X629837Y331427D01*
X629317Y330526D01*
X629047Y329520D01*
Y328480D01*
X629317Y327474D01*
X629837Y326573D01*
X630573Y325837D01*
X631369Y325378D01*
Y322000D01*
X631493Y321376D01*
X631847Y320847D01*
X642846Y309846D01*
X643376Y309493D01*
X644000Y309369D01*
X650937D01*
X650950Y309322D01*
X651522Y308331D01*
X652331Y307522D01*
X653322Y306950D01*
X654428Y306653D01*
X655572D01*
X656678Y306950D01*
X657669Y307522D01*
X658478Y308331D01*
X659050Y309322D01*
X659063Y309369D01*
X702324D01*
X715974Y295719D01*
X715950Y295678D01*
X715654Y294572D01*
Y293428D01*
X715950Y292322D01*
X716522Y291331D01*
X717331Y290522D01*
X718322Y289950D01*
X719428Y289653D01*
X720572D01*
X721678Y289950D01*
X722669Y290522D01*
X723478Y291331D01*
X724050Y292322D01*
X724063Y292369D01*
X751937D01*
X751950Y292322D01*
X752522Y291331D01*
X753331Y290522D01*
X754322Y289950D01*
X755428Y289653D01*
X756572D01*
X757678Y289950D01*
X758669Y290522D01*
X759478Y291331D01*
X760050Y292322D01*
X760063Y292369D01*
X779937D01*
X779950Y292322D01*
X780522Y291331D01*
X781331Y290522D01*
X782322Y289950D01*
X783428Y289653D01*
X784572D01*
X785678Y289950D01*
X786669Y290522D01*
X787478Y291331D01*
X788050Y292322D01*
X788063Y292369D01*
X807937D01*
X807950Y292322D01*
X808522Y291331D01*
X809331Y290522D01*
X810322Y289950D01*
X811428Y289653D01*
X812572D01*
X813678Y289950D01*
X814669Y290522D01*
X815478Y291331D01*
X816050Y292322D01*
X816063Y292369D01*
X843937D01*
X843950Y292322D01*
X844522Y291331D01*
X845331Y290522D01*
X846322Y289950D01*
X847428Y289653D01*
X848572D01*
X849678Y289950D01*
X850669Y290522D01*
X851478Y291331D01*
X852050Y292322D01*
X852063Y292369D01*
X882937D01*
X882950Y292322D01*
X883522Y291331D01*
X884331Y290522D01*
X885322Y289950D01*
X886428Y289653D01*
X887572D01*
X888678Y289950D01*
X889669Y290522D01*
X890478Y291331D01*
X891050Y292322D01*
X891063Y292369D01*
X917937D01*
X917950Y292322D01*
X918522Y291331D01*
X919331Y290522D01*
X920322Y289950D01*
X921428Y289653D01*
X922572D01*
X923678Y289950D01*
X924669Y290522D01*
X925478Y291331D01*
X926050Y292322D01*
X926063Y292369D01*
X944937D01*
X944950Y292322D01*
X945522Y291331D01*
X946331Y290522D01*
X947322Y289950D01*
X948428Y289653D01*
X949572D01*
X950678Y289950D01*
X951669Y290522D01*
X952478Y291331D01*
X953050Y292322D01*
X953063Y292369D01*
X973937D01*
X973950Y292322D01*
X974522Y291331D01*
X975331Y290522D01*
X976322Y289950D01*
X977428Y289653D01*
X978572D01*
X979678Y289950D01*
X980669Y290522D01*
X981478Y291331D01*
X982050Y292322D01*
X982063Y292369D01*
X999937D01*
X999950Y292322D01*
X1000522Y291331D01*
X1001331Y290522D01*
X1002322Y289950D01*
X1003428Y289653D01*
X1004572D01*
X1005678Y289950D01*
X1006669Y290522D01*
X1007478Y291331D01*
X1008050Y292322D01*
X1008063Y292369D01*
X1028937D01*
X1028950Y292322D01*
X1029522Y291331D01*
X1030331Y290522D01*
X1031322Y289950D01*
X1032428Y289653D01*
X1033572D01*
X1034678Y289950D01*
X1035669Y290522D01*
X1036478Y291331D01*
X1037050Y292322D01*
X1037063Y292369D01*
X1062937D01*
X1062950Y292322D01*
X1063522Y291331D01*
X1064331Y290522D01*
X1065322Y289950D01*
X1066428Y289653D01*
X1067572D01*
X1068678Y289950D01*
X1069669Y290522D01*
X1070478Y291331D01*
X1071050Y292322D01*
X1071346Y293428D01*
Y294572D01*
X1071050Y295678D01*
X1070478Y296669D01*
X1069669Y297478D01*
X1068678Y298050D01*
X1067572Y298346D01*
X1066428D01*
X1065322Y298050D01*
X1064331Y297478D01*
X1063522Y296669D01*
X1062950Y295678D01*
X1062937Y295631D01*
X1037063D01*
X1037050Y295678D01*
X1036478Y296669D01*
X1035669Y297478D01*
X1034678Y298050D01*
X1033572Y298346D01*
X1032428D01*
X1031322Y298050D01*
X1030331Y297478D01*
X1029522Y296669D01*
X1028950Y295678D01*
X1028937Y295631D01*
X1008063D01*
X1008050Y295678D01*
X1007478Y296669D01*
X1006669Y297478D01*
X1005678Y298050D01*
X1004572Y298346D01*
X1003428D01*
X1002322Y298050D01*
X1001331Y297478D01*
X1000522Y296669D01*
X999950Y295678D01*
X999937Y295631D01*
X982063D01*
X982050Y295678D01*
X981478Y296669D01*
X980669Y297478D01*
X979678Y298050D01*
X978572Y298346D01*
X977428D01*
X976322Y298050D01*
X975331Y297478D01*
X974522Y296669D01*
X973950Y295678D01*
X973937Y295631D01*
X953063D01*
X953050Y295678D01*
X952478Y296669D01*
X951669Y297478D01*
X950678Y298050D01*
X949572Y298346D01*
X948428D01*
X947322Y298050D01*
X946331Y297478D01*
X945522Y296669D01*
X944950Y295678D01*
X944937Y295631D01*
X926063D01*
X926050Y295678D01*
X925478Y296669D01*
X924669Y297478D01*
X923678Y298050D01*
X922572Y298346D01*
X921428D01*
X920322Y298050D01*
X919331Y297478D01*
X918522Y296669D01*
X917950Y295678D01*
X917937Y295631D01*
X891063D01*
X891050Y295678D01*
X890478Y296669D01*
X889669Y297478D01*
X888678Y298050D01*
X887572Y298346D01*
X886428D01*
X885322Y298050D01*
X884331Y297478D01*
X883522Y296669D01*
X882950Y295678D01*
X882937Y295631D01*
X852063D01*
X852050Y295678D01*
X851478Y296669D01*
X850669Y297478D01*
X849678Y298050D01*
X848572Y298346D01*
X847428D01*
X846322Y298050D01*
X845331Y297478D01*
X844522Y296669D01*
X843950Y295678D01*
X843937Y295631D01*
X816063D01*
X816050Y295678D01*
X815478Y296669D01*
X814669Y297478D01*
X813678Y298050D01*
X812572Y298346D01*
X811428D01*
X810322Y298050D01*
X809331Y297478D01*
X808522Y296669D01*
X807950Y295678D01*
X807937Y295631D01*
X788063D01*
X788050Y295678D01*
X787478Y296669D01*
X786669Y297478D01*
X785678Y298050D01*
X784572Y298346D01*
X783428D01*
X782322Y298050D01*
X781331Y297478D01*
X780522Y296669D01*
X779950Y295678D01*
X779937Y295631D01*
X760063D01*
X760050Y295678D01*
X759478Y296669D01*
X758669Y297478D01*
X757678Y298050D01*
X756572Y298346D01*
X755428D01*
X754322Y298050D01*
X753331Y297478D01*
X752522Y296669D01*
X751950Y295678D01*
X751937Y295631D01*
X724063D01*
X724050Y295678D01*
X723478Y296669D01*
X722669Y297478D01*
X721678Y298050D01*
X720572Y298346D01*
X719428D01*
X718322Y298050D01*
X718281Y298026D01*
X704153Y312154D01*
X703624Y312507D01*
X703000Y312631D01*
X659063D01*
X659050Y312678D01*
X658478Y313669D01*
X657669Y314478D01*
X656678Y315050D01*
X655572Y315347D01*
X654428D01*
X653322Y315050D01*
X652331Y314478D01*
X651522Y313669D01*
X650950Y312678D01*
X650937Y312631D01*
X644676D01*
X634631Y322676D01*
Y325378D01*
X635427Y325837D01*
X636163Y326573D01*
X636683Y327474D01*
X636953Y328480D01*
Y329520D01*
X636683Y330526D01*
X636163Y331427D01*
X635427Y332163D01*
X634526Y332683D01*
X633520Y332953D01*
D02*
G37*
G36*
X634527Y290000D02*
X634500D01*
Y286500D01*
X638000D01*
Y286527D01*
X637727Y287544D01*
X637201Y288456D01*
X636456Y289201D01*
X635544Y289727D01*
X634527Y290000D01*
D02*
G37*
G36*
X614527D02*
X614500D01*
Y286500D01*
X618000D01*
Y286527D01*
X617727Y287544D01*
X617201Y288456D01*
X616456Y289201D01*
X615544Y289727D01*
X614527Y290000D01*
D02*
G37*
G36*
X592527D02*
X592500D01*
Y286500D01*
X596000D01*
Y286527D01*
X595727Y287544D01*
X595201Y288456D01*
X594456Y289201D01*
X593544Y289727D01*
X592527Y290000D01*
D02*
G37*
G36*
X633500D02*
X633473D01*
X632456Y289727D01*
X631544Y289201D01*
X630799Y288456D01*
X630273Y287544D01*
X630000Y286527D01*
Y286500D01*
X633500D01*
Y290000D01*
D02*
G37*
G36*
X613500D02*
X613473D01*
X612456Y289727D01*
X611544Y289201D01*
X610799Y288456D01*
X610273Y287544D01*
X610000Y286527D01*
Y286500D01*
X613500D01*
Y290000D01*
D02*
G37*
G36*
X591500D02*
X591473D01*
X590456Y289727D01*
X589544Y289201D01*
X588799Y288456D01*
X588273Y287544D01*
X588000Y286527D01*
Y286500D01*
X591500D01*
Y290000D01*
D02*
G37*
G36*
X638000Y285500D02*
X634500D01*
Y282000D01*
X634527D01*
X635544Y282273D01*
X636456Y282799D01*
X637201Y283544D01*
X637727Y284456D01*
X638000Y285473D01*
Y285500D01*
D02*
G37*
G36*
X633500D02*
X630000D01*
Y285473D01*
X630273Y284456D01*
X630799Y283544D01*
X631544Y282799D01*
X632456Y282273D01*
X633473Y282000D01*
X633500D01*
Y285500D01*
D02*
G37*
G36*
X618000D02*
X614500D01*
Y282000D01*
X614527D01*
X615544Y282273D01*
X616456Y282799D01*
X617201Y283544D01*
X617727Y284456D01*
X618000Y285473D01*
Y285500D01*
D02*
G37*
G36*
X613500D02*
X610000D01*
Y285473D01*
X610273Y284456D01*
X610799Y283544D01*
X611544Y282799D01*
X612456Y282273D01*
X613473Y282000D01*
X613500D01*
Y285500D01*
D02*
G37*
G36*
X596000D02*
X592500D01*
Y282000D01*
X592527D01*
X593544Y282273D01*
X594456Y282799D01*
X595201Y283544D01*
X595727Y284456D01*
X596000Y285473D01*
Y285500D01*
D02*
G37*
G36*
X591500D02*
X588000D01*
Y285473D01*
X588273Y284456D01*
X588799Y283544D01*
X589544Y282799D01*
X590456Y282273D01*
X591473Y282000D01*
X591500D01*
Y285500D01*
D02*
G37*
G36*
X592527Y280000D02*
X591473D01*
X590456Y279727D01*
X589544Y279201D01*
X588799Y278456D01*
X588273Y277544D01*
X588000Y276527D01*
Y275473D01*
X588273Y274456D01*
X588799Y273544D01*
X589544Y272799D01*
X590456Y272273D01*
X591473Y272000D01*
X592527D01*
X593544Y272273D01*
X594456Y272799D01*
X595201Y273544D01*
X595727Y274456D01*
X596000Y275473D01*
Y276527D01*
X595727Y277544D01*
X595201Y278456D01*
X594456Y279201D01*
X593544Y279727D01*
X592527Y280000D01*
D02*
G37*
G36*
X634527D02*
X633473D01*
X632456Y279727D01*
X631544Y279201D01*
X630799Y278456D01*
X630273Y277544D01*
X630000Y276527D01*
Y275473D01*
X630273Y274456D01*
X630799Y273544D01*
X631544Y272799D01*
X632456Y272273D01*
X633473Y272000D01*
X634527D01*
X634992Y272125D01*
X637558Y269558D01*
X638220Y269116D01*
X639000Y268961D01*
X651159D01*
X651522Y268331D01*
X652331Y267522D01*
X653322Y266950D01*
X654428Y266653D01*
X655572D01*
X656678Y266950D01*
X657669Y267522D01*
X658478Y268331D01*
X659050Y269322D01*
X659346Y270428D01*
Y271572D01*
X659050Y272678D01*
X658478Y273669D01*
X657669Y274478D01*
X656678Y275050D01*
X655572Y275346D01*
X654428D01*
X653322Y275050D01*
X652331Y274478D01*
X651522Y273669D01*
X651159Y273039D01*
X639845D01*
X637875Y275008D01*
X638000Y275473D01*
Y276527D01*
X637727Y277544D01*
X637201Y278456D01*
X636456Y279201D01*
X635544Y279727D01*
X634527Y280000D01*
D02*
G37*
G36*
X1067572Y258347D02*
X1066428D01*
X1065322Y258050D01*
X1064331Y257478D01*
X1063522Y256669D01*
X1062950Y255678D01*
X1062654Y254572D01*
Y253428D01*
X1062950Y252322D01*
X1063522Y251331D01*
X1064331Y250522D01*
X1065322Y249950D01*
X1066428Y249654D01*
X1067572D01*
X1068678Y249950D01*
X1069669Y250522D01*
X1070478Y251331D01*
X1071050Y252322D01*
X1071346Y253428D01*
Y254572D01*
X1071050Y255678D01*
X1070478Y256669D01*
X1069669Y257478D01*
X1068678Y258050D01*
X1067572Y258347D01*
D02*
G37*
G36*
X1033572D02*
X1032428D01*
X1031322Y258050D01*
X1030331Y257478D01*
X1029522Y256669D01*
X1028950Y255678D01*
X1028654Y254572D01*
Y253428D01*
X1028950Y252322D01*
X1029522Y251331D01*
X1030331Y250522D01*
X1031322Y249950D01*
X1032428Y249654D01*
X1033572D01*
X1034678Y249950D01*
X1035669Y250522D01*
X1036478Y251331D01*
X1037050Y252322D01*
X1037346Y253428D01*
Y254572D01*
X1037050Y255678D01*
X1036478Y256669D01*
X1035669Y257478D01*
X1034678Y258050D01*
X1033572Y258347D01*
D02*
G37*
G36*
X1004572D02*
X1003428D01*
X1002322Y258050D01*
X1001331Y257478D01*
X1000522Y256669D01*
X999950Y255678D01*
X999654Y254572D01*
Y253428D01*
X999950Y252322D01*
X1000522Y251331D01*
X1001331Y250522D01*
X1002322Y249950D01*
X1003428Y249654D01*
X1004572D01*
X1005678Y249950D01*
X1006669Y250522D01*
X1007478Y251331D01*
X1008050Y252322D01*
X1008346Y253428D01*
Y254572D01*
X1008050Y255678D01*
X1007478Y256669D01*
X1006669Y257478D01*
X1005678Y258050D01*
X1004572Y258347D01*
D02*
G37*
G36*
X978572D02*
X977428D01*
X976322Y258050D01*
X975331Y257478D01*
X974522Y256669D01*
X973950Y255678D01*
X973654Y254572D01*
Y253428D01*
X973950Y252322D01*
X974522Y251331D01*
X975331Y250522D01*
X976322Y249950D01*
X977428Y249654D01*
X978572D01*
X979678Y249950D01*
X980669Y250522D01*
X981478Y251331D01*
X982050Y252322D01*
X982347Y253428D01*
Y254572D01*
X982050Y255678D01*
X981478Y256669D01*
X980669Y257478D01*
X979678Y258050D01*
X978572Y258347D01*
D02*
G37*
G36*
X949572D02*
X948428D01*
X947322Y258050D01*
X946331Y257478D01*
X945522Y256669D01*
X944950Y255678D01*
X944654Y254572D01*
Y253428D01*
X944950Y252322D01*
X945522Y251331D01*
X946331Y250522D01*
X947322Y249950D01*
X948428Y249654D01*
X949572D01*
X950678Y249950D01*
X951669Y250522D01*
X952478Y251331D01*
X953050Y252322D01*
X953347Y253428D01*
Y254572D01*
X953050Y255678D01*
X952478Y256669D01*
X951669Y257478D01*
X950678Y258050D01*
X949572Y258347D01*
D02*
G37*
G36*
X922572D02*
X921428D01*
X920322Y258050D01*
X919331Y257478D01*
X918522Y256669D01*
X917950Y255678D01*
X917653Y254572D01*
Y253428D01*
X917950Y252322D01*
X918522Y251331D01*
X919331Y250522D01*
X920322Y249950D01*
X921428Y249654D01*
X922572D01*
X923678Y249950D01*
X924669Y250522D01*
X925478Y251331D01*
X926050Y252322D01*
X926346Y253428D01*
Y254572D01*
X926050Y255678D01*
X925478Y256669D01*
X924669Y257478D01*
X923678Y258050D01*
X922572Y258347D01*
D02*
G37*
G36*
X887572D02*
X886428D01*
X885322Y258050D01*
X884331Y257478D01*
X883522Y256669D01*
X882950Y255678D01*
X882654Y254572D01*
Y253428D01*
X882950Y252322D01*
X883522Y251331D01*
X884331Y250522D01*
X885322Y249950D01*
X886428Y249654D01*
X887572D01*
X888678Y249950D01*
X889669Y250522D01*
X890478Y251331D01*
X891050Y252322D01*
X891346Y253428D01*
Y254572D01*
X891050Y255678D01*
X890478Y256669D01*
X889669Y257478D01*
X888678Y258050D01*
X887572Y258347D01*
D02*
G37*
G36*
X848572D02*
X847428D01*
X846322Y258050D01*
X845331Y257478D01*
X844522Y256669D01*
X843950Y255678D01*
X843653Y254572D01*
Y253428D01*
X843950Y252322D01*
X844522Y251331D01*
X845331Y250522D01*
X846322Y249950D01*
X847428Y249654D01*
X848572D01*
X849678Y249950D01*
X850669Y250522D01*
X851478Y251331D01*
X852050Y252322D01*
X852347Y253428D01*
Y254572D01*
X852050Y255678D01*
X851478Y256669D01*
X850669Y257478D01*
X849678Y258050D01*
X848572Y258347D01*
D02*
G37*
G36*
X812572D02*
X811428D01*
X810322Y258050D01*
X809331Y257478D01*
X808522Y256669D01*
X807950Y255678D01*
X807654Y254572D01*
Y253428D01*
X807950Y252322D01*
X808522Y251331D01*
X809331Y250522D01*
X810322Y249950D01*
X811428Y249654D01*
X812572D01*
X813678Y249950D01*
X814669Y250522D01*
X815478Y251331D01*
X816050Y252322D01*
X816346Y253428D01*
Y254572D01*
X816050Y255678D01*
X815478Y256669D01*
X814669Y257478D01*
X813678Y258050D01*
X812572Y258347D01*
D02*
G37*
G36*
X784572D02*
X783428D01*
X782322Y258050D01*
X781331Y257478D01*
X780522Y256669D01*
X779950Y255678D01*
X779654Y254572D01*
Y253428D01*
X779950Y252322D01*
X780522Y251331D01*
X781331Y250522D01*
X782322Y249950D01*
X783428Y249654D01*
X784572D01*
X785678Y249950D01*
X786669Y250522D01*
X787478Y251331D01*
X788050Y252322D01*
X788346Y253428D01*
Y254572D01*
X788050Y255678D01*
X787478Y256669D01*
X786669Y257478D01*
X785678Y258050D01*
X784572Y258347D01*
D02*
G37*
G36*
X756572D02*
X755428D01*
X754322Y258050D01*
X753331Y257478D01*
X752522Y256669D01*
X751950Y255678D01*
X751653Y254572D01*
Y253428D01*
X751950Y252322D01*
X752522Y251331D01*
X753331Y250522D01*
X754322Y249950D01*
X755428Y249654D01*
X756572D01*
X757678Y249950D01*
X758669Y250522D01*
X759478Y251331D01*
X760050Y252322D01*
X760347Y253428D01*
Y254572D01*
X760050Y255678D01*
X759478Y256669D01*
X758669Y257478D01*
X757678Y258050D01*
X756572Y258347D01*
D02*
G37*
G36*
X720572D02*
X719428D01*
X718322Y258050D01*
X717331Y257478D01*
X716522Y256669D01*
X715950Y255678D01*
X715654Y254572D01*
Y253428D01*
X715950Y252322D01*
X716522Y251331D01*
X717331Y250522D01*
X718322Y249950D01*
X719428Y249654D01*
X720572D01*
X721678Y249950D01*
X722669Y250522D01*
X723478Y251331D01*
X724050Y252322D01*
X724346Y253428D01*
Y254572D01*
X724050Y255678D01*
X723478Y256669D01*
X722669Y257478D01*
X721678Y258050D01*
X720572Y258347D01*
D02*
G37*
G36*
X1031527Y225843D02*
X1030473D01*
X1029456Y225570D01*
X1028544Y225043D01*
X1027799Y224299D01*
X1027273Y223387D01*
X1027000Y222369D01*
Y221316D01*
X1027273Y220299D01*
X1027799Y219387D01*
X1028544Y218642D01*
X1029456Y218115D01*
X1030473Y217843D01*
X1031527D01*
X1032544Y218115D01*
X1033456Y218642D01*
X1034201Y219387D01*
X1034727Y220299D01*
X1035000Y221316D01*
Y222369D01*
X1034727Y223387D01*
X1034201Y224299D01*
X1033456Y225043D01*
X1032544Y225570D01*
X1031527Y225843D01*
D02*
G37*
G36*
X976527D02*
X975473D01*
X974456Y225570D01*
X973544Y225043D01*
X972799Y224299D01*
X972273Y223387D01*
X972000Y222369D01*
Y221316D01*
X972273Y220299D01*
X972799Y219387D01*
X973544Y218642D01*
X974456Y218115D01*
X975473Y217843D01*
X976527D01*
X977544Y218115D01*
X978456Y218642D01*
X979201Y219387D01*
X979727Y220299D01*
X980000Y221316D01*
Y222369D01*
X979727Y223387D01*
X979201Y224299D01*
X978456Y225043D01*
X977544Y225570D01*
X976527Y225843D01*
D02*
G37*
G36*
X921527D02*
X920473D01*
X919456Y225570D01*
X918544Y225043D01*
X917799Y224299D01*
X917273Y223387D01*
X917000Y222369D01*
Y221316D01*
X917273Y220299D01*
X917799Y219387D01*
X918544Y218642D01*
X919456Y218115D01*
X920473Y217843D01*
X921527D01*
X922544Y218115D01*
X923456Y218642D01*
X924201Y219387D01*
X924727Y220299D01*
X925000Y221316D01*
Y222369D01*
X924727Y223387D01*
X924201Y224299D01*
X923456Y225043D01*
X922544Y225570D01*
X921527Y225843D01*
D02*
G37*
G36*
X812527D02*
X811473D01*
X810456Y225570D01*
X809544Y225043D01*
X808799Y224299D01*
X808273Y223387D01*
X808000Y222369D01*
Y221316D01*
X808273Y220299D01*
X808799Y219387D01*
X809544Y218642D01*
X810456Y218115D01*
X811473Y217843D01*
X812527D01*
X813544Y218115D01*
X814456Y218642D01*
X815201Y219387D01*
X815727Y220299D01*
X816000Y221316D01*
Y222369D01*
X815727Y223387D01*
X815201Y224299D01*
X814456Y225043D01*
X813544Y225570D01*
X812527Y225843D01*
D02*
G37*
G36*
X756527D02*
X755473D01*
X754456Y225570D01*
X753544Y225043D01*
X752799Y224299D01*
X752273Y223387D01*
X752000Y222369D01*
Y221316D01*
X752273Y220299D01*
X752799Y219387D01*
X753544Y218642D01*
X754456Y218115D01*
X755473Y217843D01*
X756527D01*
X757544Y218115D01*
X758456Y218642D01*
X759201Y219387D01*
X759727Y220299D01*
X760000Y221316D01*
Y222369D01*
X759727Y223387D01*
X759201Y224299D01*
X758456Y225043D01*
X757544Y225570D01*
X756527Y225843D01*
D02*
G37*
G36*
X1031527Y206157D02*
X1030473D01*
X1029456Y205885D01*
X1028544Y205358D01*
X1027799Y204613D01*
X1027323Y203789D01*
X979677D01*
X979201Y204613D01*
X978456Y205358D01*
X977544Y205885D01*
X976527Y206157D01*
X975473D01*
X974456Y205885D01*
X973544Y205358D01*
X972799Y204613D01*
X972323Y203789D01*
X924677D01*
X924201Y204613D01*
X923456Y205358D01*
X922544Y205885D01*
X921527Y206157D01*
X920473D01*
X919456Y205885D01*
X918544Y205358D01*
X917799Y204613D01*
X917273Y203701D01*
X917000Y202684D01*
Y201631D01*
X917273Y200613D01*
X917799Y199701D01*
X918544Y198957D01*
X919456Y198430D01*
X920473Y198157D01*
X921527D01*
X922544Y198430D01*
X923456Y198957D01*
X924201Y199701D01*
X924677Y200526D01*
X972323D01*
X972799Y199701D01*
X973544Y198957D01*
X974456Y198430D01*
X975473Y198157D01*
X976527D01*
X977544Y198430D01*
X978456Y198957D01*
X979201Y199701D01*
X979677Y200526D01*
X1027323D01*
X1027799Y199701D01*
X1028544Y198957D01*
X1029456Y198430D01*
X1030473Y198157D01*
X1031527D01*
X1032544Y198430D01*
X1033456Y198957D01*
X1034201Y199701D01*
X1034727Y200613D01*
X1035000Y201631D01*
Y202684D01*
X1034727Y203701D01*
X1034201Y204613D01*
X1033456Y205358D01*
X1032544Y205885D01*
X1031527Y206157D01*
D02*
G37*
G36*
X614527Y280000D02*
X613473D01*
X612456Y279727D01*
X611544Y279201D01*
X610799Y278456D01*
X610273Y277544D01*
X610000Y276527D01*
Y275473D01*
X610273Y274456D01*
X610799Y273544D01*
X611544Y272799D01*
X612456Y272273D01*
X613473Y272000D01*
X614527D01*
X615447Y272247D01*
X686689Y201004D01*
X687218Y200650D01*
X687843Y200526D01*
X752323D01*
X752799Y199701D01*
X753544Y198957D01*
X754456Y198430D01*
X755473Y198157D01*
X756527D01*
X757544Y198430D01*
X758456Y198957D01*
X759201Y199701D01*
X759677Y200526D01*
X808323D01*
X808799Y199701D01*
X809544Y198957D01*
X810456Y198430D01*
X811473Y198157D01*
X812527D01*
X813544Y198430D01*
X814456Y198957D01*
X815201Y199701D01*
X815727Y200613D01*
X816000Y201631D01*
Y202684D01*
X815727Y203701D01*
X815201Y204613D01*
X814456Y205358D01*
X813544Y205885D01*
X812527Y206157D01*
X811473D01*
X810456Y205885D01*
X809544Y205358D01*
X808799Y204613D01*
X808323Y203789D01*
X759677D01*
X759201Y204613D01*
X758456Y205358D01*
X757544Y205885D01*
X756527Y206157D01*
X755473D01*
X754456Y205885D01*
X753544Y205358D01*
X752799Y204613D01*
X752323Y203789D01*
X688518D01*
X617754Y274553D01*
X618000Y275473D01*
Y276527D01*
X617727Y277544D01*
X617201Y278456D01*
X616456Y279201D01*
X615544Y279727D01*
X614527Y280000D01*
D02*
G37*
G36*
X1058527Y155843D02*
X1057473D01*
X1056456Y155570D01*
X1055544Y155043D01*
X1054799Y154299D01*
X1054273Y153386D01*
X1054000Y152369D01*
Y151316D01*
X1054273Y150299D01*
X1054799Y149387D01*
X1055544Y148642D01*
X1056456Y148115D01*
X1057473Y147843D01*
X1058527D01*
X1059544Y148115D01*
X1060456Y148642D01*
X1061201Y149387D01*
X1061727Y150299D01*
X1062000Y151316D01*
Y152369D01*
X1061727Y153386D01*
X1061201Y154299D01*
X1060456Y155043D01*
X1059544Y155570D01*
X1058527Y155843D01*
D02*
G37*
G36*
X1004527D02*
X1003473D01*
X1002456Y155570D01*
X1001544Y155043D01*
X1000799Y154299D01*
X1000273Y153386D01*
X1000000Y152369D01*
Y151316D01*
X1000273Y150299D01*
X1000799Y149387D01*
X1001544Y148642D01*
X1002456Y148115D01*
X1003473Y147843D01*
X1004527D01*
X1005544Y148115D01*
X1006456Y148642D01*
X1007201Y149387D01*
X1007727Y150299D01*
X1008000Y151316D01*
Y152369D01*
X1007727Y153386D01*
X1007201Y154299D01*
X1006456Y155043D01*
X1005544Y155570D01*
X1004527Y155843D01*
D02*
G37*
G36*
X949527D02*
X948473D01*
X947456Y155570D01*
X946544Y155043D01*
X945799Y154299D01*
X945273Y153386D01*
X945000Y152369D01*
Y151316D01*
X945273Y150299D01*
X945799Y149387D01*
X946544Y148642D01*
X947456Y148115D01*
X948473Y147843D01*
X949527D01*
X950544Y148115D01*
X951456Y148642D01*
X952201Y149387D01*
X952727Y150299D01*
X953000Y151316D01*
Y152369D01*
X952727Y153386D01*
X952201Y154299D01*
X951456Y155043D01*
X950544Y155570D01*
X949527Y155843D01*
D02*
G37*
G36*
X894527D02*
X893473D01*
X892456Y155570D01*
X891544Y155043D01*
X890799Y154299D01*
X890273Y153386D01*
X890000Y152369D01*
Y151316D01*
X890273Y150299D01*
X890799Y149387D01*
X891544Y148642D01*
X892456Y148115D01*
X893473Y147843D01*
X894527D01*
X895544Y148115D01*
X896456Y148642D01*
X897201Y149387D01*
X897727Y150299D01*
X898000Y151316D01*
Y152369D01*
X897727Y153386D01*
X897201Y154299D01*
X896456Y155043D01*
X895544Y155570D01*
X894527Y155843D01*
D02*
G37*
G36*
X840527D02*
X839473D01*
X838456Y155570D01*
X837544Y155043D01*
X836799Y154299D01*
X836273Y153386D01*
X836000Y152369D01*
Y151316D01*
X836273Y150299D01*
X836799Y149387D01*
X837544Y148642D01*
X838456Y148115D01*
X839473Y147843D01*
X840527D01*
X841544Y148115D01*
X842456Y148642D01*
X843201Y149387D01*
X843727Y150299D01*
X844000Y151316D01*
Y152369D01*
X843727Y153386D01*
X843201Y154299D01*
X842456Y155043D01*
X841544Y155570D01*
X840527Y155843D01*
D02*
G37*
G36*
X783527D02*
X782473D01*
X781456Y155570D01*
X780544Y155043D01*
X779799Y154299D01*
X779273Y153386D01*
X779000Y152369D01*
Y151316D01*
X779273Y150299D01*
X779799Y149387D01*
X780544Y148642D01*
X781456Y148115D01*
X782473Y147843D01*
X783527D01*
X784544Y148115D01*
X785456Y148642D01*
X786201Y149387D01*
X786727Y150299D01*
X787000Y151316D01*
Y152369D01*
X786727Y153386D01*
X786201Y154299D01*
X785456Y155043D01*
X784544Y155570D01*
X783527Y155843D01*
D02*
G37*
G36*
X728527D02*
X727473D01*
X726456Y155570D01*
X725544Y155043D01*
X724799Y154299D01*
X724273Y153386D01*
X724000Y152369D01*
Y151316D01*
X724273Y150299D01*
X724799Y149387D01*
X725544Y148642D01*
X726456Y148115D01*
X727473Y147843D01*
X728527D01*
X729544Y148115D01*
X730456Y148642D01*
X731201Y149387D01*
X731727Y150299D01*
X732000Y151316D01*
Y152369D01*
X731727Y153386D01*
X731201Y154299D01*
X730456Y155043D01*
X729544Y155570D01*
X728527Y155843D01*
D02*
G37*
G36*
X1058527Y136157D02*
X1057473D01*
X1056456Y135885D01*
X1055544Y135358D01*
X1054799Y134614D01*
X1054323Y133789D01*
X1007677D01*
X1007201Y134614D01*
X1006456Y135358D01*
X1005544Y135885D01*
X1004527Y136157D01*
X1003473D01*
X1002456Y135885D01*
X1001544Y135358D01*
X1000799Y134614D01*
X1000323Y133789D01*
X952677D01*
X952201Y134614D01*
X951456Y135358D01*
X950544Y135885D01*
X949527Y136157D01*
X948473D01*
X947456Y135885D01*
X946544Y135358D01*
X945799Y134614D01*
X945323Y133789D01*
X897677D01*
X897201Y134614D01*
X896456Y135358D01*
X895544Y135885D01*
X894527Y136157D01*
X893473D01*
X892456Y135885D01*
X891544Y135358D01*
X890799Y134614D01*
X890323Y133789D01*
X843677D01*
X843201Y134614D01*
X842456Y135358D01*
X841544Y135885D01*
X840527Y136157D01*
X839473D01*
X838456Y135885D01*
X837544Y135358D01*
X836799Y134614D01*
X836323Y133789D01*
X786677D01*
X786201Y134614D01*
X785456Y135358D01*
X784544Y135885D01*
X783527Y136157D01*
X782473D01*
X781456Y135885D01*
X780544Y135358D01*
X779799Y134614D01*
X779323Y133789D01*
X731677D01*
X731201Y134614D01*
X730456Y135358D01*
X729544Y135885D01*
X728527Y136157D01*
X727473D01*
X726456Y135885D01*
X725544Y135358D01*
X724799Y134614D01*
X724273Y133701D01*
X724000Y132684D01*
Y131631D01*
X724273Y130614D01*
X724799Y129701D01*
X725544Y128957D01*
X726456Y128430D01*
X727473Y128157D01*
X728527D01*
X729544Y128430D01*
X730456Y128957D01*
X731201Y129701D01*
X731677Y130526D01*
X779323D01*
X779799Y129701D01*
X780544Y128957D01*
X781456Y128430D01*
X782473Y128157D01*
X783527D01*
X784544Y128430D01*
X785456Y128957D01*
X786201Y129701D01*
X786677Y130526D01*
X836323D01*
X836799Y129701D01*
X837544Y128957D01*
X838456Y128430D01*
X839473Y128157D01*
X840527D01*
X841544Y128430D01*
X842456Y128957D01*
X843201Y129701D01*
X843677Y130526D01*
X890323D01*
X890799Y129701D01*
X891544Y128957D01*
X892456Y128430D01*
X893473Y128157D01*
X894527D01*
X895544Y128430D01*
X896456Y128957D01*
X897201Y129701D01*
X897677Y130526D01*
X945323D01*
X945799Y129701D01*
X946544Y128957D01*
X947456Y128430D01*
X948473Y128157D01*
X949527D01*
X950544Y128430D01*
X951456Y128957D01*
X952201Y129701D01*
X952677Y130526D01*
X1000323D01*
X1000799Y129701D01*
X1001544Y128957D01*
X1002456Y128430D01*
X1003473Y128157D01*
X1004527D01*
X1005544Y128430D01*
X1006456Y128957D01*
X1007201Y129701D01*
X1007677Y130526D01*
X1054323D01*
X1054799Y129701D01*
X1055544Y128957D01*
X1056456Y128430D01*
X1057473Y128157D01*
X1058527D01*
X1059544Y128430D01*
X1060456Y128957D01*
X1061201Y129701D01*
X1061727Y130614D01*
X1062000Y131631D01*
Y132684D01*
X1061727Y133701D01*
X1061201Y134614D01*
X1060456Y135358D01*
X1059544Y135885D01*
X1058527Y136157D01*
D02*
G37*
G36*
X1097837Y126500D02*
X1097500D01*
Y118500D01*
X1105500D01*
Y118837D01*
X1105173Y120479D01*
X1104533Y122026D01*
X1103602Y123418D01*
X1102418Y124602D01*
X1101026Y125533D01*
X1099479Y126173D01*
X1097837Y126500D01*
D02*
G37*
G36*
X1096500D02*
X1096163D01*
X1094521Y126173D01*
X1092974Y125533D01*
X1091582Y124602D01*
X1090398Y123418D01*
X1089467Y122026D01*
X1088827Y120479D01*
X1088500Y118837D01*
Y118500D01*
X1096500D01*
Y126500D01*
D02*
G37*
G36*
X243837D02*
X243500D01*
Y118500D01*
X251500D01*
Y118837D01*
X251173Y120479D01*
X250533Y122026D01*
X249602Y123418D01*
X248418Y124602D01*
X247026Y125533D01*
X245479Y126173D01*
X243837Y126500D01*
D02*
G37*
G36*
X242500D02*
X242163D01*
X240521Y126173D01*
X238974Y125533D01*
X237582Y124602D01*
X236398Y123418D01*
X235467Y122026D01*
X234827Y120479D01*
X234500Y118837D01*
Y118500D01*
X242500D01*
Y126500D01*
D02*
G37*
G36*
X1105500Y117500D02*
X1097500D01*
Y109500D01*
X1097837D01*
X1099479Y109827D01*
X1101026Y110467D01*
X1102418Y111398D01*
X1103602Y112582D01*
X1104533Y113974D01*
X1105173Y115521D01*
X1105500Y117163D01*
Y117500D01*
D02*
G37*
G36*
X1096500D02*
X1088500D01*
Y117163D01*
X1088827Y115521D01*
X1089467Y113974D01*
X1090398Y112582D01*
X1091582Y111398D01*
X1092974Y110467D01*
X1094521Y109827D01*
X1096163Y109500D01*
X1096500D01*
Y117500D01*
D02*
G37*
G36*
X251500D02*
X243500D01*
Y109500D01*
X243837D01*
X245479Y109827D01*
X247026Y110467D01*
X248418Y111398D01*
X249602Y112582D01*
X250533Y113974D01*
X251173Y115521D01*
X251500Y117163D01*
Y117500D01*
D02*
G37*
G36*
X242500D02*
X234500D01*
Y117163D01*
X234827Y115521D01*
X235467Y113974D01*
X236398Y112582D01*
X237582Y111398D01*
X238974Y110467D01*
X240521Y109827D01*
X242163Y109500D01*
X242500D01*
Y117500D01*
D02*
G37*
%LPD*%
D16*
X639000Y271000D02*
X655000D01*
X634000Y276000D02*
X639000Y271000D01*
X590000Y472000D02*
X615000D01*
X587000Y475000D02*
X590000Y472000D01*
X569000Y396000D02*
Y415000D01*
Y396000D02*
X575000Y390000D01*
X596126D01*
X603126Y407000D02*
X710000D01*
X596126Y400000D02*
X603126Y407000D01*
X596126Y390000D02*
Y400000D01*
D17*
X644000Y311000D02*
X655000D01*
X633000Y322000D02*
X644000Y311000D01*
X633000Y322000D02*
Y329000D01*
X614000Y276000D02*
X687843Y202157D01*
X756000D01*
X613000Y441000D02*
X644000Y472000D01*
X655000D01*
Y311000D02*
X703000D01*
X720000Y294000D01*
X592000Y441000D02*
X613000D01*
X587000Y446000D02*
X592000Y441000D01*
X587000Y446000D02*
Y465000D01*
X976000Y202157D02*
X1031000D01*
X921000D02*
X976000D01*
X756000D02*
X812000D01*
X728000Y132157D02*
X783000D01*
X894000D02*
X949000D01*
X783000D02*
X840000D01*
X894000D01*
X949000D02*
X1004000D01*
X1058000D01*
X609000Y415000D02*
X636000D01*
X812000Y294000D02*
X848000D01*
X720000D02*
X756000D01*
X784000D02*
X812000D01*
X756000D02*
X784000D01*
X1033000D02*
X1067000D01*
X1004000D02*
X1033000D01*
X978000D02*
X1004000D01*
X848000D02*
X887000D01*
X949000D02*
X978000D01*
X887000D02*
X922000D01*
X949000D01*
D18*
X1097000Y482000D02*
D03*
Y118000D02*
D03*
X243000D02*
D03*
Y482000D02*
D03*
D19*
X587000Y465000D02*
D03*
D20*
Y475000D02*
D03*
D21*
X615000Y472000D02*
D03*
X655000D02*
D03*
D22*
X592000Y286000D02*
D03*
Y276000D02*
D03*
X614000Y286000D02*
D03*
Y276000D02*
D03*
X634000Y286000D02*
D03*
Y276000D02*
D03*
X728000Y151843D02*
D03*
Y132157D02*
D03*
X756000Y221843D02*
D03*
Y202157D02*
D03*
X770000Y416000D02*
D03*
Y406000D02*
D03*
X1058000Y151843D02*
D03*
Y132157D02*
D03*
X1031000Y221843D02*
D03*
Y202157D02*
D03*
X1004000Y151843D02*
D03*
Y132157D02*
D03*
X976000Y221843D02*
D03*
Y202157D02*
D03*
X949000Y151843D02*
D03*
Y132157D02*
D03*
X921000Y221843D02*
D03*
Y202157D02*
D03*
X894000Y151843D02*
D03*
Y132157D02*
D03*
X840000Y151843D02*
D03*
Y132157D02*
D03*
X812000Y221843D02*
D03*
Y202157D02*
D03*
X783000Y151843D02*
D03*
Y132157D02*
D03*
D23*
X655000Y271000D02*
D03*
Y311000D02*
D03*
X1067000Y294000D02*
D03*
Y254000D02*
D03*
X1033000Y294000D02*
D03*
Y254000D02*
D03*
X1004000Y294000D02*
D03*
Y254000D02*
D03*
X978000Y294000D02*
D03*
Y254000D02*
D03*
X949000Y294000D02*
D03*
Y254000D02*
D03*
X922000Y294000D02*
D03*
Y254000D02*
D03*
X887000Y294000D02*
D03*
Y254000D02*
D03*
X848000Y294000D02*
D03*
Y254000D02*
D03*
X812000Y294000D02*
D03*
Y254000D02*
D03*
X784000Y294000D02*
D03*
Y254000D02*
D03*
X756000Y294000D02*
D03*
Y254000D02*
D03*
X720000Y294000D02*
D03*
Y254000D02*
D03*
X636000Y415000D02*
D03*
X676000D02*
D03*
X569000D02*
D03*
X609000D02*
D03*
X710000Y407000D02*
D03*
Y447000D02*
D03*
D24*
X834000Y404843D02*
D03*
Y395000D02*
D03*
X636000Y386063D02*
D03*
X596126Y390000D02*
D03*
X800000Y384937D02*
D03*
X740000Y407063D02*
D03*
X613000Y329000D02*
D03*
X623000D02*
D03*
X633000D02*
D03*
X643000D02*
D03*
X613000Y359000D02*
D03*
X623000D02*
D03*
X633000D02*
D03*
D25*
X834000Y385157D02*
D03*
X636000Y393937D02*
D03*
X800000Y377063D02*
D03*
X740000Y414937D02*
D03*
X643000Y359000D02*
D03*
D26*
X1076004Y445000D02*
D03*
Y395000D02*
D03*
D27*
X1016004Y373091D02*
D03*
Y466909D02*
D03*
X928484D02*
D03*
Y373091D02*
D03*
D28*
X633000Y441000D02*
D03*
X613000D02*
D03*
X623000D02*
D03*
D29*
X604000Y390000D02*
D03*
D30*
X753000Y447000D02*
D03*
X763000D02*
D03*
D31*
X799000Y416000D02*
D03*
Y411000D02*
D03*
D32*
Y406000D02*
D03*
M02*
