M48
;Layer_Color=6321
;FILE_FORMAT=4:3
METRIC
;TYPE=PLATED
T1F00S00C0.750
T2F00S00C0.800
T3F00S00C0.889
T4F00S00C0.900
T5F00S00C1.000
T6F00S00C1.016
T7F00S00C1.020
T8F00S00C2.200
T9F00S00C3.175
T10F00S00C3.300
%
T01
X0241046Y0064516
X0248412
X0255016
X0262382
X0271018
Y0074676
X0262382
X0255016
X0248412
X0241046
X0234188
X0225298
X0215392
X0206248
X0199136
Y0064516
X0206248
X0215392
X0225298
X0234188
X0192024
X0182880
Y0074676
X0192024
X0166370Y0078994
Y0068834
X0154686Y0105410
X0144526
X0161544
X0171704
X0180340Y0103378
Y0113538
T02
X0155702Y0112014
X0158242
X0160782
T03
X0161036Y0070104
Y0072644
X0155956
Y0070104
X0150368
Y0072644
X0195580Y0103124
Y0105664
T04
X0155702Y0083566
X0158242
Y0091186
X0155702
X0153416Y0099060
X0151416
X0161544Y0100060
Y0098060
X0160782Y0091186
X0163322
Y0083566
X0160782
X0187960Y0103394
Y0105394
X0202946Y0105664
Y0104394
Y0103124
X0203200Y0097774
Y0095774
T05
X0184912Y0033568
Y0038568
X0198882
Y0033568
X0213360
Y0038568
X0227076
Y0033568
X0241046
Y0038568
X0255016
Y0033568
X0268732
Y0038568
X0261874Y0051348
Y0056348
X0247904
Y0051348
X0233934
Y0056348
X0206248
Y0051348
X0192024
Y0056348
X0191262Y0113538
X0193802
X0211836Y0102830
Y0100330
Y0097830
T06
X0166370Y0119888
X0156210
T07
X0149098Y0118110
Y0120650
T08
X0273305Y0100330
Y0113030
T09
X0061722Y0029972
X0278638
Y0122428
X0061722
T10
X0235835Y0094765
Y0118595
X0258065
Y0094765
M30
