M48
;Layer_Color=6321
;FILE_FORMAT=4:3
METRIC
;TYPE=PLATED
T1F00S00C0.254
T2F00S00C0.762
T3F00S00C0.810
T4F00S00C0.900
T5F00S00C1.000
T6F00S00C1.067
T7F00S00C1.200
%
T01
X0204521Y0035052
T02
X0254508Y0038608
X0257048Y0036068
X0259588Y0038608
X0257048Y0051308
X0254508Y0053848
X0259588
T03
X0217932Y0037846
X0220472
X0266954Y0039878
X0269494
Y0046482
X0266954
Y0052832
X0269494
X0220472Y0054610
X0217932
T04
X0204470Y0037338
X0212090
X0226568Y0038608
X0234188
X0279400Y0041164
Y0043164
X0247142Y0042672
Y0045212
Y0047752
Y0050292
X0239522
Y0047752
Y0045212
Y0042672
X0234188Y0043688
Y0046228
Y0048768
Y0051308
Y0053848
X0226568
Y0051308
Y0048768
Y0046228
Y0043688
Y0041148
X0234188
X0212090Y0039878
Y0042418
Y0044958
Y0047498
Y0050038
Y0052578
Y0055118
X0204470
Y0052578
Y0050038
Y0047498
Y0044958
Y0042418
Y0039878
T05
X0279400Y0050800
X0281900
X0276900
X0189179Y0046228
X0186639
X0177749
X0175209
X0166370
X0163830
X0154940
X0152400
X0143459
X0140919
X0132029
X0129489
X0120650
X0118110
X0109169
X0106629
T06
X0106680Y0036576
X0116840
X0129540
X0139700
X0152400
X0162560
X0175260
X0185420
X0186690Y0055880
X0196850
X0173990
X0163830
X0151130
X0140970
X0128270
X0118110
T07
X0442720Y0046482
X0398020
X0389380
X0344680
X0336042
X0291342
M30
